<?xml version="1.0"?>
<svg width="650" height="650" xmlns="http://www.w3.org/2000/svg" xmlns:svg="http://www.w3.org/2000/svg" clip-rule="evenodd" fill-rule="evenodd" stroke-linejoin="round" version="1.1" xml:space="preserve">
 <g class="layer">
  <title>Layer 1</title>
  <path d="m332.75,277.75c0,0 57.34,333.29 -20,406.55c-3.4,3.21 -54.54,-13.86 -81.75,-8.11c0,0 133.57,-171.51 73.84,-394.09" fill="#0000ff" id="svg_11" stroke="white" stroke-width="1px"/>
  <path d="m316.57,301.81c0.18,-0.49 -6.22,-15.43 -26.87,-26.39c-6.4,-3.39 -15.22,-5.76 -25.11,-7.95c-8.55,-1.89 -17.98,-3.83 -26.41,-3.72c-5.83,0.07 -22.34,-3.15 -32.14,-2.97c-28.98,0.5 -45.37,4.99 -46.17,5.57c-1.07,0.79 14.5,-3.05 16.75,0.34c0.72,1.09 -3.41,-0.38 -7.81,0.35c-12.5,2.07 -37.28,5.42 -37.71,7.76c-0.78,3.74 16.63,-4.25 21.86,-1.19c1.61,0.94 -3.7,0.35 -8.39,2.36c-4.08,1.76 -9.74,2.94 -14.52,5.19c-7.57,3.55 -13.73,8.07 -13.92,8.83c-0.27,1.03 9.3,-3.12 17.62,-5.51c6.22,-1.78 11.78,-1.9 11.78,-1.9l-12.23,5.08l-9.39,5.32l-8.87,8.41c0,0 5.92,-2.87 10.87,-4.46c3.66,-1.17 6.82,-1.19 6.44,-1.22c-0.37,-0.03 -5.59,3.11 -9.16,7.02c-5.03,5.51 -8.83,12.35 -8.83,12.35l8.83,-5.79l7.71,-6.28l-4.57,10.31l-3.64,6.96l0.96,5.88c0,0 2.35,-5.13 4.82,-8.47c4.63,-6.3 10.82,-12.74 10.46,-12.29c-2.36,2.97 -2.03,15.45 -0.28,13.31c3.94,-7.74 7.75,-15.56 14.2,-21.8c-3.14,9.39 -4.67,17.4 -3.14,22.8l4.41,-4.7c2.55,-6.9 5.11,-13.78 8.76,-19.42c0.59,3.63 0.1,9.63 -0.67,16.23c3.1,-5.01 6.27,-10.53 9.52,-16.63c-0.67,7.36 -1.1,14.05 0.43,15.76l5.65,-7.66l6.01,-16.39l3.61,-5.29c0.1,1.81 0.17,3.64 0.22,5.47c0.11,3.74 -2.11,8.91 -2.12,12.67c-0.01,2.02 0.14,4.12 0.79,5.72c0.35,0.87 1.4,1.09 1.4,2.18l2.45,-2.3c1.63,-5.11 3.39,-9.51 5.72,-11.02c0.79,1.1 1.23,4.8 1.61,9.04c2.89,-3.27 4.32,-7.79 6.45,-12.32c1.15,-2.45 3.13,-4.72 4.25,-7.23l-1.75,10.92l0.87,5.86l3.54,-3.15c1.9,-5.22 4.03,-9.8 6.95,-12.19l-0.62,4.91l0.52,4.48l2.14,2.52c3.42,-5.95 7.01,-11.32 11.27,-14.45c-1.94,4.65 -2.27,7.71 -0.85,9.02c4.51,-2.47 9.25,-7.44 14,-12.48c-4.67,7.45 -7.44,13.22 -7.91,16.96c2.55,-0.4 6.42,-3.67 11.31,-9.15c-0.86,1.38 -1.7,2.85 -2.49,4.62c-1.14,2.16 -1.14,3.94 0.1,5.31l0.22,-0.28c0,0 5,-5.91 6,-5.75c0.99,0.15 5.07,-4.92 9.27,-3.95c4.2,0.95 -0.15,0.04 -0.15,0.04c0,0 -8.16,8.67 -7.59,9.69c0.57,1.01 12.32,-4.78 13.27,-3.93c0.95,0.84 10.52,-5.15 10.87,-4.11c0.35,1.03 -9.01,10.01 -10.39,10.63c-1.39,0.63 19.78,-9.56 19.25,-8.02c-0.53,1.54 -7.66,8.93 -7.35,10.71c0.3,1.79 2.18,-4.28 13.13,-6.08c3.77,-0.62 -1.77,1.74 -3.03,4.06c-2.41,4.41 -4.61,10.76 -4.61,10.76c2.77,-0.11 9.78,-10.58 12.72,-10.55c3.11,0.04 8.95,-1.6 11.41,0.49c1.5,1.27 5.13,1.77 6.05,3.67c1.44,2.96 0.13,7.28 3.26,7.48l-0.68,-9.92l0.68,9.92" fill="#0000ff" id="svg_1"/>
  <path d="m327.22,306.14c0,0 -0.93,-3.22 -5.42,-5.76c-4.31,-2.44 -12.13,-4.19 -15.12,-4.39c-3.71,-0.25 -6.95,-0.82 -10.43,-1.28c-7.73,-1.04 -15.25,-1.7 -15.25,-1.7c-9.78,-0.17 -19.58,0.33 -29.41,1.65c-9.19,0.83 -18.26,2.8 -27.21,5.87l-19.55,7.12c0,0 -7.14,1.65 -13.69,3.94c-5.72,2 -10.94,4.66 -11.18,5.01c-0.65,0.94 -6.75,3.39 -13.26,7.38c-11.63,7.14 -25.68,17.3 -25.02,19.49c0.21,0.68 -1.58,2.63 -1.04,2.71c0.52,0.07 3,-2.07 3.82,-2.6c1.97,-1.28 3.92,-2.49 3.92,-2.49l-5.4,5.9c-8.44,6.42 -12.04,12.32 -13.85,18.02l11.29,-9.91c-6.3,8.46 -9.07,16.9 -9.36,25.32c5.51,-9.6 11.88,-19.19 19.48,-28.76c-1.84,6.73 -3.44,12.93 -4.9,18.8c-1.08,2.12 18.64,-28.46 18.66,-28.07c0.02,0.55 -1.94,4.56 -3.59,9.53c-1.18,3.55 -5.86,9.95 -6.92,13.59c-1.82,6.2 0.36,8.86 1.14,8.22c4.03,-9.14 8.71,-17.8 14.08,-25.98c0.86,2.42 1.57,5.14 2.04,8.25c-0.18,3.2 0.05,6.33 0.81,8.54c4.56,-9.24 6.71,-19.24 9.55,-29.04c1.07,6.69 0.94,13.87 0.8,19.96c-0.09,1.28 5.88,-11.58 5.77,-11.34c-0.25,0.5 0.32,2.73 -0.15,5c-0.3,1.46 0.35,2.69 0.52,3.36c0.62,2.51 1.94,3.24 2.43,3.1c5.08,-6.42 8.01,-15.38 10.84,-24.44c-0.94,7.03 -1.18,13 0.84,15.53c1.83,-5.12 4.19,-9.42 6.85,-13.27c0.96,5.02 1.49,9.79 1.23,14.12l4.32,-6.31l4.69,-10.87c-0.4,0.44 0.76,13.3 0.65,13.76c-0.14,0.57 1.55,-2.27 2.65,-4.05c2.11,-3.44 4.03,-8.41 3.87,-8.43c0.6,1.21 0.59,3.02 0.74,4.77c3.82,-6.25 6.88,-13.69 10.11,-20.89c-0.5,5.37 -1.59,11.85 -3,17.98c2.81,-3.91 5.12,-8.36 7.12,-13.13c0.59,3.18 0.77,6.72 0.55,10.62c3.87,-5.16 7.14,-10.9 9.87,-17.18c0.96,1.41 1.59,3.27 1.81,5.69c1.09,-1.87 2.51,-3.7 4.58,-5.43c0.86,-0.62 1.91,-0.87 3.19,-0.73c0.28,2.49 -0.94,5.76 -1.1,8.15c-0.16,2.32 0.75,3.76 0.44,6.06c1.69,-4.21 3.9,-9.82 7.13,-15.2c0.68,-0.26 1.46,-0.32 2.44,0.09c0.14,1.4 -0.04,3 -0.5,4.81c1.3,-2.16 2.85,-4.02 4.7,-5.52c0.32,-0.44 4.59,13.4 3.66,14.38c-0.73,0.77 7.2,-11.56 7.2,-11.56l41.58,-8.36z" fill="#0000ff" id="svg_2"/>
  <path d="m323.06,313.2c-0.09,-0.1 -3.79,9.01 -5.25,16.92c-1.27,6.95 -0.35,13.63 -0.12,14.45c0.3,1.11 -2.27,-3.46 -4.81,-9.16c-2.56,-5.74 -4.95,-13.3 -5.2,-14.31c-0.12,-0.49 -1.76,6.85 1.52,18.36c3.28,11.51 4.92,23.47 3.82,23.51c-0.59,0.01 -2.2,-3.98 -3.88,-7.56c-1.44,-3.08 -3.02,-5.81 -2.96,-5.98c0.07,-0.24 -2.03,-4.76 -3.06,-9.31c-0.64,-2.86 -1.26,-6.32 -1.25,-6.74c0,-0.74 -2.28,-1.94 -1.92,8.02c0.23,6.22 3.54,16.07 5.12,22.89c0.95,4.1 0.59,8.33 0.36,8.46c-0.88,0.49 -0.97,-0.86 -1.41,-2.14c-0.65,-1.93 -2.13,-4.47 -2.49,-4.87c-0.59,-0.67 0.99,7.39 1.47,8.31c0.48,0.93 0.8,7.75 0.07,7.89c-0.46,0.1 -2.76,-3.66 -4.7,-8.05c-1.16,-2.63 -1.96,-5.91 -2.78,-7.56c-0.62,-1.24 0.54,4.29 1.07,9.11c0.37,3.35 0.22,7.17 -0.11,7.57c-0.42,0.51 -4.93,-9.8 -5.39,-10.31c-0.46,-0.51 -6.41,-12.37 -6.88,-13.04c-0.19,-0.28 -0.21,6.09 1.44,9.41c1,1.99 3.65,10.17 4.72,16.35c0.7,4.07 0.11,7.27 0.04,7.24c-0.36,-0.17 -1.09,-1.52 -1.97,-2.88c-3.33,-5.13 -9.28,-16.68 -9.17,-17.21c0.13,-0.68 -0.87,2.83 0.46,7.64c1.33,4.79 5,12.03 5.83,14.92c0.41,1.46 0.62,8.61 1.53,13.9c0.67,3.9 1.36,6.48 0.96,7.35c-0.26,0.56 -2.12,-0.79 -4.16,-4.49c-2.07,-3.74 -4.2,-9.92 -6.04,-14.19c-1.61,-3.75 -3.05,-5.8 -3.11,-6.39c-0.05,-0.48 0.08,2.31 0.86,6.3c0.82,4.23 2.67,9.87 3.63,14.37c0.96,4.45 0.4,8.38 0.4,8.38l-3.08,-3.72l-4.75,-8.73l-4.01,-10.25l-3.12,-7.05c-1.16,-2.07 -2.38,-3.6 -3.65,-4.66c-1.34,0.68 -0.67,6.69 -0.19,7.56c0.11,0.19 0.45,2.54 1.05,4.2c1.84,5.14 5.36,13.87 5.36,13.87c3.46,7.01 6.6,13.77 9.08,19.09c0.47,1.76 0.72,3.07 0.84,4.11l-0.27,4.73c-5.07,-4.37 -9.91,-16.4 -14.57,-26.26c-0.34,0.86 -0.44,1.95 -0.18,3.36c0.42,2.1 0.91,4.01 1.34,5.78c0.37,1.53 0.69,2.95 1.16,4.18c0.39,3.53 -0.1,5.47 -0.64,7.3c0,0 -1.26,-1.14 -2.29,-3.85c-1.42,-3.74 -2.56,-9.14 -2.9,-8.86c-0.76,0.62 -1.02,4.65 -0.64,4.8c0.82,4.67 2.11,9.14 3.72,12.86c0.37,2.11 0.36,4.1 -0.04,5.93c-2.13,-0.83 -3.5,-3.88 -4.73,-7.29c-1.51,-5.44 -3.1,-10.54 -5.18,-13.75c-0.67,2.88 -0.75,5.35 -0.47,7.57c0.66,4.3 0.84,7.16 0.77,9.25c-0.71,0.98 -2.38,-2.4 -4.48,-7.54c-0.16,8.29 -0.55,15.57 -1.04,22.2c-2.02,-1.57 -3.81,-4.66 -5.35,-9.49c-1.36,-3.55 -1.72,-9.07 -2.19,-14.72c0.47,-6.56 0.94,-11.43 2.5,-15.18c-0.7,-0.56 -0.63,-0.94 -0.7,-0.28c0,0 -0.7,1.76 -1.65,3.87c-1.07,2.35 -2.08,5.7 -2.33,6.4c-0.31,0.89 -1.71,4.47 -2.56,7.42c-0.59,2.08 -0.73,3.93 -0.83,3.94c-0.31,0.03 -2.58,-5.75 -1.83,-12.15c0.75,-6.39 9.13,-22 8.21,-22.05c-0.92,-0.05 -12.19,17.19 -12.52,18.89c-0.33,1.7 -0.49,-3.25 0.15,-4.31c0.64,-1.05 0.74,-3.61 3.53,-7.34c2.8,-3.72 -6.47,4.97 -6.48,6.11c-0.01,1.14 0.51,-7.5 1.3,-7.87c0.79,-0.37 4.06,-8.49 8.77,-11.84c4.71,-3.34 17.18,-16.53 16.51,-16.8c-0.24,-0.1 -3.18,0.91 -6.93,3.44c-7.02,4.75 -17.06,13.05 -18.64,16.94c-2.41,5.95 2.5,-8.63 3.13,-9.24c1.72,-1.67 12.63,-13.78 16.15,-15.23c0.54,-0.22 -12.89,3.37 -14.36,6.76c-0.54,1.26 -7.14,3.14 -7.19,2.68c-0.14,-1.22 2.98,-4.23 2.98,-4.23l-3.49,0.22c-0.32,-0.16 7.11,-7.5 7.77,-8.06c1.39,-1.17 18.04,-12.84 18.26,-12.99c0.71,-0.54 -9.9,2.25 -11.58,4.46c-0.3,0.4 -15.62,7.4 -15.72,8.24c-0.07,0.5 -1.04,-3.1 6.25,-7.64c7.24,-4.5 16.15,-7.36 15.93,-8.6c-0.16,-0.94 -14.37,4.2 -14.91,4.84c-0.53,0.63 -8.97,3.55 -8.91,4.32c0.06,0.78 4.75,-6.62 9.92,-9.39c5.21,-2.77 22.07,-12.88 23.02,-11.67c0.33,0.41 11.97,-7.32 12.31,-6.44c0.19,0.5 -12.45,0.13 -16.86,3.99c-4.41,3.85 -23.64,11.12 -23.84,10.56c-0.19,-0.55 12.71,-9.22 12.2,-9.67c-0.23,-0.2 14.51,-8.13 14.46,-8.4c-0.08,-0.51 -11.37,2.23 -13.11,4.53c-1.73,2.3 -10.4,4.53 -11.03,4.7c-0.64,0.17 8.2,-7.34 8.2,-7.34l13.86,-7.09c0,0 21.6,-5.04 21.93,-5.55c0.73,-1.16 -26.66,2.9 -26.89,3.82c3.3,-1.8 5.83,-4.32 9.35,-5.67c6.11,-2.34 13.43,-3.04 20.14,-4.05l-4.66,-4.01l-4.82,-7.61c0.81,0.45 1.7,0.73 2.87,0.38c0.53,0.41 11.52,7.84 12.25,7.09c0.17,-1.42 -10.43,-10.42 -10.81,-11.82c6.28,-0.11 12.27,1.89 18.27,3.78l36.21,7.37z" fill="#0000ff" id="svg_3"/>
  <path d="m318.54,298.84c0,0 -56.06,-71.46 -57.87,-68.44c-1.81,3.03 3.82,2.36 2.61,5.34c-1.21,2.97 -21.69,-19.34 -21.83,-18.6c-0.14,0.73 -11.28,-11.21 -13.13,-7.24c-1.86,3.97 16.24,14.43 16.04,15.8c-0.21,1.38 -15.51,-9.91 -15.69,-10.82c-0.19,-0.9 -21.11,-10.39 -22.06,-8.88c-0.95,1.53 16.08,9.28 14.31,11.73c-1.78,2.46 -18.67,-9.51 -19.93,-8.7c-1.28,0.81 -16.15,-6.28 -16.84,-3.96c-0.28,0.97 4.03,1.78 8.75,3.53c4.58,1.71 9.52,4.33 11.98,6.21c1.06,0.82 2.16,1.21 1.85,2.03c-0.49,1.29 -1.69,-0.44 -4.02,-0.98c-6.1,-1.4 -16.47,-4.74 -16.47,-4.74c0,0 -19.89,-2.79 -29.79,-3.77c-3.08,-0.31 -5.52,-1.36 -5.77,-0.56c-0.38,1.28 5.61,3.11 5.61,3.11c0,0 8.74,1.87 8.51,2.32c-0.22,0.45 -14.37,-0.18 -15.1,-0.17c-0.73,0 -49.41,2.06 -49.47,4.48c-0.06,2.42 43.77,-0.45 43.61,0.28c-0.17,0.73 -17.3,3.47 -17.81,4.33c-0.53,0.86 36.35,-2.28 36.21,-1.72c-0.14,0.57 -46.27,13.69 -46.5,15.18c-0.23,1.48 17.02,-0.26 17.52,-1.01c0.5,-0.75 12.64,-2.57 12.73,-2.46c0.09,0.12 -4.68,3.37 -4.19,4.85c0.49,1.47 12.84,-2.88 12.73,-3.27c-0.11,-0.4 26.89,-7.89 27.09,-6.7c0.21,1.2 -15.44,4.37 -15.69,5.24c-0.25,0.86 -13.26,4.68 -12.92,6.82c0.34,2.15 14.08,-3.06 14.51,-3.34c0.43,-0.28 46.27,-11.07 45.89,-8.82c-0.38,2.27 -37.52,12.32 -37.56,15.36c-0.03,3.03 6.4,-0.97 6.02,-0.22c-0.38,0.75 -20.43,9.92 -20.21,10.94c0.22,1.02 20.98,-8.61 21.04,-7.13c0.07,1.47 20.38,-8.66 23.35,-7.89c2.96,0.77 10.52,-1.76 10.93,-1.42c0.41,0.34 -38.71,13.02 -37.45,16.88c1.27,3.85 11.82,-5.26 12.05,-4.17c0.22,1.09 26.18,-10.36 27.4,-8.08c1.22,2.29 -33.52,15.91 -33.55,17.33c-0.03,1.43 16.93,-4.76 16.59,-3.78c-0.33,0.97 -2.73,6.9 -2.42,7.77c0.12,0.33 2.05,-2.15 4.93,-4.34c4.85,-3.71 10,-6.65 11.63,-6.74c2,-0.1 25.48,-8.81 30.27,-6.31c3.07,1.6 -21.85,3.31 -26.65,11.36c-3.51,3.52 3.59,-1.43 10.95,-3.6c10.89,-3.21 24.74,-5.24 25.04,-4.53c0.49,1.19 -31.38,9.79 -31.39,14.13c-0.01,1.4 2.93,-0.47 6.57,-1.54c7.6,-2.22 19.11,-6.07 19.13,-5.29c0.04,1.14 -7.92,5.83 -7.86,6.94c0.06,1.1 17.14,-6.18 17.75,-5.73c0.61,0.45 -9.67,11.69 -7.99,13.35c1.67,1.66 13.63,-9.5 13.85,-7.95c0.22,1.54 52.73,37.62 52.73,37.62z" fill="#0000ff" id="svg_4"/>
  <path d="m320.88,302.67c0,0 -2.41,-16.62 -1.51,-17.46c0.89,-0.84 0.26,-15.87 -1.66,-17.54c-1.91,-1.66 -1.91,-25.58 -2.47,-23.05c-0.55,2.53 1.44,-3.91 -4.32,-0.29c-5.77,3.63 0.3,-10.36 0.3,-10.36c0,0 -3.55,1.4 -4.86,4.55c-1.31,3.15 2.46,-10.6 2.04,-11.74c-0.41,-1.13 -1.84,-10.22 -0.21,-9.38c1.63,0.84 -6.04,7.18 -6.36,9.44c-0.33,2.26 2.81,-24.83 0.07,-23.61c-2.73,1.22 -3.3,16.62 -5.25,16.07c-1.94,-0.55 -1.01,-6.6 -0.61,-6.77c0.39,-0.17 1.18,-2.13 1.59,-2.57c0.42,-0.44 -5.14,-27.65 -6.36,-26.37c-1.23,1.28 0.39,12.92 -0.82,13.75c-1.22,0.82 -1.29,-5.28 -2.42,-4.92c-1.13,0.37 0.45,9.76 -0.95,9.83c-1.4,0.07 -1.95,-11.06 -2.64,-10.72c-0.69,0.34 -2.01,-15.08 -3.56,-14.24c-1.55,0.84 -1.33,2.17 -1.46,4.88c-0.13,2.7 0.91,13.68 1.05,15.54c0.14,1.87 -3.63,-6.07 -3.22,-8.89c0.42,-2.83 -5.26,-13.46 -5.42,-13.87c-0.16,-0.41 -6.13,-11.63 -5.78,-11.92c0.35,-0.29 -1.32,-0.95 -2.27,3.27c-0.95,4.23 4.57,8.15 3.88,10.14c-0.68,1.98 5.6,10.1 3.93,11.47c-1.68,1.38 -1.38,-3.73 -3.23,-5.68c-1.85,-1.96 -8.09,-16.87 -8.13,-15.73c-0.09,2.32 0.16,10.01 -0.25,10.07c-1.47,0.23 -3.8,-7.93 -3.8,-7.93l-1.16,-7.32c-2.01,-5.51 -4.42,-9.98 -7.56,-12.52l-1.58,3.89c0,0 1.42,5.22 0.75,6.31c-0.67,1.1 -3.49,-2.42 -3.68,-3.35c-0.2,-0.92 -9.3,-16.04 -10.78,-15.56c-1.48,0.47 1.16,9.64 1.65,9.88c0.48,0.24 -8.88,-9.81 -10.5,-9.46c-1.62,0.35 -6.91,-6.41 -8,-5.58c-1.1,0.83 -5.02,-0.95 -4.62,0.3c0.39,1.26 9.23,7.66 9.52,8.9c0.29,1.24 14.91,13.1 13.37,14.91c-1.54,1.8 -5.04,-2.98 -6.7,-4.11c-1.65,-1.12 -11.88,-5.94 -12.29,-5.58c-0.41,0.36 11.89,11.6 11.13,12.43c-0.76,0.82 15.28,8.71 15.24,9.57c-0.05,0.87 -12.04,-3.66 -12.61,-4.09c-0.58,-0.44 -12.03,-5.09 -12.44,-4.24c-0.41,0.84 13.3,8.86 13.68,7.68c0.37,-1.19 17.7,11.12 17.55,11.57c-0.14,0.46 -9.68,-1.9 -10.44,-2.71c-0.75,-0.81 -13.19,-5.44 -13.56,-4.81c-0.38,0.63 8.71,8.78 8.7,8.41c0,-0.38 18.5,8.17 18.04,8.84c-0.47,0.67 -9.94,-0.37 -10.07,0.5c-0.14,0.87 5.56,4.07 5.14,4.66c-0.43,0.59 14.82,10.39 15.08,10.05c0.27,-0.34 -14.37,-2.76 -14.8,-2.04c-0.44,0.71 9.5,6.05 9.92,5.83c0.42,-0.21 6.96,2.92 7.52,2.91c0.95,-0.01 -21.66,-4.71 -22.18,-3.57c-0.51,1.14 6.14,4.27 6.53,4.71c0.39,0.43 14.38,2.87 14.94,4.09c0.56,1.22 9.62,2.39 9.8,3.28c0.18,0.88 -16.6,-1.34 -16.4,-1.68c0.21,-0.35 13.43,4.73 13.3,5.24c-0.14,0.52 -15.25,-1.98 -15.55,-1c-0.31,0.98 12.12,3.98 12.03,5.06c-0.08,1.09 15.35,2.01 21.79,10.73c1.29,1.73 1.09,2.17 0.14,1.65c-2.38,-1.29 -20.62,-8.18 -23.06,-3.72c-0.35,1.18 5.89,1.19 11.64,4.2c9.21,4.83 19.75,13.05 19.45,13.7c-0.5,1.06 -16.9,-8.16 -17.46,-7.87c-0.55,0.29 7.81,5.58 8.25,6.42c0.44,0.84 5.72,4.6 6.7,4.89c0.98,0.28 12.18,4.33 12.16,5.35c-0.03,1.03 -12.18,-2.69 -12.68,-1.49c-0.5,1.19 6.88,6.94 5.47,8.87c-1.4,1.94 23.33,29.9 23.33,29.9z" fill="#0000ff" id="svg_5"/>
  <path d="m323.29,297.15l2.14,-3.36l4.8,1.49c0,0 4.04,5.8 5.75,6.78c1.7,0.98 -1.15,-11.22 -0.43,-11.16c0.72,0.06 9.97,10.4 11.93,11.11c1.96,0.71 -5.4,-13.04 -4.2,-12.95c1.19,0.09 20.86,4.43 20.85,5.78c0,1.36 -10.16,-8.27 -9.79,-9.39c0.38,-1.11 10.95,-2.56 12.25,-0.34c1.3,2.22 -2.45,-5.94 -3.72,-5.87c-1.27,0.08 13.87,4.67 14.97,4.51c1.09,-0.16 -7.75,-5.37 -7.4,-7.11c0.2,-0.99 14.73,2.62 15.01,4.36c0.28,1.74 -9.75,-8.8 -9.75,-8.8c0,0 2.63,-2.15 4.3,-0.56c1.67,1.59 16.64,8.91 17.36,10.33c0.72,1.41 -16.44,-16.6 -15.42,-18.2c0.82,-1.27 25.66,20.22 29.66,19.92c4,-0.31 -6.35,-11.89 -4.21,-11.6c2.13,0.29 20.3,11.9 21.8,12.72c1.5,0.82 -19.08,-25.69 -17.86,-26.17c1.23,-0.48 27.41,24.71 28.8,24.78c1.4,0.08 -17.2,-24.26 -16.26,-25.99c0.94,-1.74 27.76,24.02 30.06,23.86c2.3,-0.15 -0.61,-14.06 1.04,-13.79c1.65,0.27 11.52,12.72 13.18,12.97c1.65,0.24 -19.04,-28.78 -17.34,-28.3c1.71,0.49 26.67,24.48 27.42,24.97c1.85,1.22 -4.04,-15.52 -6.34,-17.91c-1.56,-1.63 15.96,9.23 15.4,12.42c-0.56,3.2 6.96,-7.78 2.01,-9.28c-4.95,-1.5 -58.9,-19.82 -59.42,-19.87c-1.04,-0.11 14.96,-1.45 17.47,0.33c2.51,1.76 -28.28,-10.49 -47.78,-7.46c-19.5,3.03 38.79,-10.69 37.5,-10.04c-1.3,0.65 -30.98,-0.43 -31.93,0.64c-0.94,1.07 37,-12.43 37.77,-14.43c0.32,-0.83 -43.47,10.07 -43.93,7.3c-0.2,-1.18 46.94,-14.71 46.55,-15.06c-1.29,-1.14 -3.41,-0.75 -3.41,-0.75l7.78,-2.76c0,0 -25.56,2.14 -33.58,4.54c-8.02,2.4 31.12,-9.36 30.54,-9.96c-0.74,-0.78 -22.15,4.86 -27.3,5.13c-4.5,0.24 47.41,-16.96 47.08,-17.97c-0.81,-2.44 -25.22,2.99 -51.95,15.07c-28.69,12.97 -59.99,33.14 -66.54,45.74c-7.9,15.2 -24.84,54.34 -24.84,54.34z" fill="#0000ff" id="svg_6"/>
  <path d="m321.41,293.65l2.01,-11.51c0,0 -3.92,-7.81 -3.17,-10.26c0.74,-2.43 1.98,-9.94 1.78,-12.98c-0.2,-3.04 -5.78,-24.76 -4.4,-27.18c1.37,-2.42 1.14,-10.5 1.35,-12.63c0.1,-1.12 1.18,-3.27 1.18,-3.27c0.6,-1.98 7.57,15.86 6.57,16.79c-0.8,-0.11 2.26,0.65 2.2,-0.74c-0.07,-1.39 -6.08,-22.25 -5.72,-23.36c0.5,-1.52 -2.37,-13.61 1.88,-15.66c2.98,-1.43 3.16,13.94 4.25,15.72c1.09,1.78 0.25,2.95 1.11,2c0.88,-0.96 1.18,-14.76 0.85,-15.22c-0.33,-0.47 -2.24,-10.88 -2.14,-11.84c0.11,-0.95 0.89,-15.11 1.46,-14.64c0.56,0.46 -1,-0.7 1.6,0.12c2.61,0.82 2.95,13.77 3.44,14.2c0.49,0.43 1.08,6.84 1.61,7.4c0.53,0.56 0.9,-1.18 1.07,-2.63c0.18,-1.45 -1.19,-6.05 -0.65,-6.53c0.55,-0.49 1.33,-15.21 1.33,-15.21c0,0 3.9,-6.39 4.69,-6.44c0.79,-0.06 2.03,0.19 2.19,1.07c0.16,0.88 -1.66,19.5 -1.46,20.3c0.2,0.81 1.47,2.65 1.94,2.29c0.47,-0.36 1.9,-4.84 1.51,-5.54c-0.4,-0.7 0.69,-11.71 1.16,-11.47c0.48,0.24 2.75,9.22 1.82,10.86c-0.94,1.65 2.37,-0.44 2.58,-1.48c0.2,-1.05 1.84,-17.76 2.69,-17.54c0.86,0.22 5.73,-10.64 8.18,-9.72c2.45,0.91 0.45,3.48 0.56,3.03c0.1,-0.45 -2.3,4.39 -2.2,4.92c0.1,0.54 -2,9.78 -1.74,10.05c0.26,0.27 1.01,0.8 1.36,0.12c0.34,-0.68 2.1,-6.59 2.92,-8.3c0.83,-1.71 5.05,-10.34 5.83,-10.19c0.79,0.14 3.24,-4.26 3.47,-4.68c0.22,-0.41 1.53,-1.2 1.61,-0.35c0.09,0.85 -0.75,15.19 -1.69,15.14c-0.94,-0.05 3.27,-1.92 3.87,-2.98c0.61,-1.06 8.46,-9.02 9.07,-9.44c0.62,-0.41 8.53,-5.66 8.89,-5.49c0.36,0.16 9.59,-4.15 9.85,-3.56c0.25,0.6 -1.86,2.22 -2.48,2.88c-0.62,0.65 -8.26,6.26 -7.82,7.23c0.45,0.97 -5.31,5.1 -4.61,5.61c0.71,0.52 5.86,-1.29 6.67,-2.16c0.81,-0.87 7.49,-3.35 7.49,-4.21c-0.01,-0.78 15.39,-4.53 17.58,-4.55c0.12,0 11.01,-1.44 11.55,-1.15c0.04,0.02 -33.66,14.96 -36.83,18.08c-3.16,3.12 11.56,-1.99 12.08,-1.56c0.52,0.43 17.4,-1.67 16.8,-0.22c-0.61,1.45 -28.6,5.87 -29.28,7.03c-0.67,1.17 14.18,-1.39 14.94,-0.5c0.77,0.88 -6.72,2.5 -7.47,3.45c-0.75,0.96 18.59,0.3 18.42,1.25c-0.16,0.95 -21.84,2.52 -22.46,3.74c-0.61,1.23 -17.35,0.92 -17.4,1.78c-0.05,0.86 27.92,0.04 27.73,1.41c-0.19,1.38 -7.43,1.77 -8.18,2.16c-0.76,0.39 -12.99,0.38 -13.36,0.46c-0.37,0.08 -9.82,0.79 -9.89,1.66c-0.07,0.88 10.74,-1.02 11.41,-0.48c0.67,0.54 12.79,0.31 12.24,1.54c-0.54,1.23 -4.83,-0.21 -5.18,0.25c-0.34,0.46 -11.29,2.32 -11.73,2.91c-0.43,0.59 -10.85,-1.43 -13.27,1.56c-2.42,2.99 9.02,-0.28 9.47,0.79c0.46,1.07 11.33,-0.25 11.2,0.86c-0.12,1.11 -14.28,0.54 -14.43,1.37c-0.16,0.82 22.96,1.45 22.69,2c-0.26,0.56 -9.09,1.67 -9.93,2.34c-0.84,0.66 -10.76,1.41 -10.76,1.41c0,0 -18.5,1.5 -18.73,2.45c-0.23,0.96 14.97,-0.96 14.86,-0.48c-0.1,0.49 11.61,0.32 11.23,1.01c-0.38,0.69 -12.52,0.87 -13.15,1.4c-0.62,0.53 -12.14,1.93 -12.64,2.86c-0.5,0.94 11.69,0.14 11.22,0.78c-0.47,0.65 9.9,-0.55 9.65,0.19c-0.25,0.74 -2.17,1.63 -2.64,1.78c-0.47,0.16 -0.62,-0.01 -2.32,0.72c-1.7,0.73 -5.9,0.45 -6.77,1.15c-0.87,0.7 4.91,0.66 5.02,1.23c0.12,0.57 -2.58,2.11 -3.24,2.18c-0.66,0.07 -7.67,-0.02 -8.57,0.15c-0.89,0.16 -8.95,1.27 -9.08,2.45c-0.12,1.18 6.35,0.71 6.83,0.6c0.47,-0.1 12.81,-0.5 13.25,0.27c0.43,0.76 -10.14,4.73 -10.43,5.5c-0.3,0.77 3.61,0.68 3.55,1.49c-0.05,0.81 -17.69,4.43 -18.47,5.12c-0.78,0.69 16.65,-0.46 16.56,0.34c-0.08,0.8 -11.63,3.28 -11.91,3.86c-0.28,0.59 15.94,2.21 15.88,3.27c-0.05,1.05 -12.38,2.02 -12.97,2.24c-0.59,0.22 -9.45,4.47 -9.89,4.94c-0.44,0.48 15.68,2.03 16.42,3.13c0.75,1.1 -15.87,3.02 -16.64,4.56c-0.78,1.54 2.69,1.82 5.01,3.5c2.33,1.67 -6.49,-0.29 -6.37,1.01c0.13,1.29 11.64,7.65 12.1,9.64c0.46,1.98 -4.26,1.06 -4.57,1.66c-0.31,0.6 0.83,6.07 2.62,7.45c1.78,1.39 -15.29,-2.42 -14.02,-0.77c1.27,1.64 -21.34,23.12 -21.69,24.21z" fill="#0000ff" id="svg_7"/>
  <path d="m368.86,385.61c0,0 10.53,-11.5 10.82,-10.63c0.29,0.87 -7.35,13.73 -6.04,14.89c1.31,1.17 7.22,-10.22 7.73,-8.78c0.5,1.43 -4.05,10.85 -3.08,11.83c0.97,0.99 4.73,-5.67 4.79,-4.39c0.08,1.28 -2.63,10.07 1.56,16.39c1.15,1.73 1.01,-10.14 1.41,-7.77c0.39,2.36 3.26,10.4 3.96,11.3c0.69,0.91 1.23,-4.52 1.24,-4.71c0.02,-0.18 2.82,7.7 3.71,8.76c0.88,1.07 1.11,-16.15 1.38,-16.68c0.27,-0.53 1.15,6.31 1.99,6.38c0.84,0.07 0.91,-15 0.44,-15.99c-0.47,-0.99 1.39,2.49 1.9,3.35c0.5,0.85 0.58,-14.57 -6.62,-24.46c-7.2,-9.89 3.36,3.17 3.52,1.98c0.16,-1.19 -8.76,-14.6 -8.1,-14.06c0.66,0.55 3.18,2.55 3.25,2.11c0.42,-2.57 -0.72,-4.71 -0.72,-4.71c-1.69,-3.12 -3.55,-6.25 -5.73,-9.41c0,0 -8.34,-8.7 -10.08,-9.49c-1.74,-0.8 -27.72,-20.54 -27.73,-20.49l-8.89,1.09l-0.01,0.08l5.9,9.07c0,0 -2.33,7.1 -2.99,8.43c-0.66,1.32 0.66,2.6 0.66,2.6l5.79,-10.49c0,0 -5.07,16.8 -2.99,21.68c0.86,2.02 5.03,-12.14 5.95,-13.05c0.92,-0.92 4.14,-3.39 4.14,-3.39l-2.75,5.77c0,0 -8.32,11.14 -6.19,15.83c0.59,1.31 8.37,-10.77 8.7,-11.17c1.8,-2.23 -4.2,15.04 -3.99,17.15c0.17,1.7 11.25,-14.22 11.57,-14.66c2.39,-3.35 -2.44,8.98 -3.59,10.69c0,0 -4.27,6.75 -4.49,9.76c-0.23,3 12.16,-15.43 12.16,-15.43c-1.41,4.35 -3.34,8.5 -5.42,12.59c0,0 -5.98,12.6 -5.11,14.17c0.88,1.57 10.24,-14.08 9.86,-14.68c1.26,-0.57 0.9,1.76 -1.83,8.34c0,0 -3.86,5.49 -2.67,7.3c1.19,1.82 3.92,-3.38 3.92,-3.38c0,0 3.89,-6.96 4.3,-7.2c0.4,-0.24 -3.03,11.59 -3.13,13.29c-0.09,1.7 3.13,-2.75 6.84,-7.03c0.82,-0.94 -7.84,15.85 -6.34,17.32" fill="#0000ff" id="svg_9"/>
  <path d="m323.55,314.84l17.36,7.45l5.01,-9.63c0,0 2.73,7.07 3.64,7.65c0.91,0.58 1.74,-2.57 2.97,-2.73c1.24,-0.16 3.27,7.96 4.56,8.73c1.29,0.77 2.44,-3.06 3.17,-3.76c0.74,-0.69 3.52,8.5 4.87,8.85c1.34,0.37 1.18,-4.92 2.05,-5.32c0.87,-0.4 6.11,11.44 7.49,12.26c1.38,0.82 1.7,-4.88 2.5,-6.47c0.79,-1.59 1.57,7.6 2.71,8.92c1.14,1.33 1.44,-19.73 3.12,-20.91c1.67,-1.17 1.88,24.24 3.08,26.72c1.2,2.47 1.07,-6 2.18,-6.59c1.11,-0.59 0.76,7.51 2.1,9.02c1.35,1.52 4.32,-15.74 5.14,-17.25c0.83,-1.5 0.77,13.21 1.75,15.12c0.99,1.91 5.24,-10.58 5.09,-9.96c-0.96,3.89 0.88,23.95 2.76,21.13c1,-1.49 2.32,-14.85 4.73,-17.45c2.41,-2.6 -2.26,24.13 0.43,26.47c2.68,2.34 8.04,-26.31 8.35,-29.11c0.43,-3.81 2.52,6.97 1.12,8.65c0.01,4.84 -0.72,9.56 -2.18,14.2c-0.49,5.89 0.68,9.22 3.06,10.73c0,0 -0.03,-10.77 0.93,-10.84c0.95,-0.08 1.82,5.6 1.82,5.6c0,0 -0.66,8.42 -0.32,9.39c0.35,0.97 1.5,4.56 2.26,4.39c0.77,-0.17 2.77,-5 2.92,-6.08c0.14,-1.07 0.87,-11.55 0.87,-11.55c0,0 0.66,-6.66 1.3,-6.87c0.64,-0.2 -0.45,25.03 0.82,26.2c1.26,1.15 2.63,-4.62 3.02,-5.42c0.39,-0.79 0.54,-10.9 0.53,-11.3c0,-0.4 0.57,-8.75 1.17,-8.29c0.6,0.48 2.33,2.87 1.83,5.5c-0.51,2.63 -2,10.21 -1.92,12.47c0.08,2.26 -1.55,9.86 -0.69,11.49c0.86,1.63 1.99,4.71 3.24,4.54c1.25,-0.18 1.58,-2.48 2.06,-2.29c0.48,0.2 1.04,6.48 1.8,6.6c0.78,0.12 1.91,-22.8 2.79,-22.57c0.88,0.23 8,30.26 9.51,29.82c1.51,-0.43 0.52,-13.82 1.13,-14.29c0.62,-0.47 8.09,21.95 8.95,22.85c0.85,0.89 2.04,-19.7 2.68,-22.33c0.08,-0.32 3.27,1.93 3.28,3.96c0.02,2.36 0.26,-5.11 -0.82,-7.94c-1.08,-2.83 -5.87,-14.89 -7.24,-14.9c-1.36,-0.01 1.65,0.22 2.07,0.11c0.42,-0.12 -0.18,-3.77 -0.18,-3.77c0,0 -6.67,-9.6 -7.65,-9.96c-0.98,-0.36 2.82,1.23 2.82,1.23c0,0 0.23,-2.35 -0.18,-3.3c-0.4,-0.95 -2.23,-3.62 -2.23,-3.62c0,0 -19.73,-22.09 -23.41,-22.55c-3.67,-0.45 -18.62,-12.72 -22.55,-13.22c-3.93,-0.49 -30.1,-15.93 -31.81,-15.98c-1.72,-0.05 -16.41,-6.72 -16.41,-6.72l-29.17,-2.85c0,0 -9.51,25.59 -10.3,25.79z" fill="#0000ff" id="svg_10"/>
  <path d="m303.99,296.95l58.93,-7.3l41.13,-2.52l32.4,0.05c0,0 22.31,-1.64 23.05,-0.77c0.73,0.88 13.29,4.81 13.75,4.65c0.45,-0.16 -7.45,0.73 -7.45,0.73l5.3,1.66l11.33,0.39l10.84,1.64c0,0 -3.21,2.82 -5.47,2.44c-2.26,-0.39 -7.24,-0.45 -7.24,-0.45l10.72,3.09l11.48,3.84l6.94,3.43l-1.38,0.93c0,0 -4.72,-0.31 -5.02,-0.51c-0.29,-0.21 -7.4,-0.8 -7.4,-0.8l-1.63,0.13c0,0 2.88,1.66 3.17,1.65c0.28,-0.01 7.12,2.7 7.33,3.13c0.21,0.43 8.15,5.33 8.56,5.26c0.42,-0.07 4.4,4.28 4.23,4.57c-0.18,0.3 -0.93,0.61 -0.99,0.52c-0.06,-0.09 -5.03,-3.55 -5.52,-3.13c-0.48,0.43 -8.87,-3.65 -9.27,-3.27c-0.4,0.38 -5.94,-2.76 -5.94,-2.76l-5.89,-3.48l-0.49,0.73l2.33,1.85l5.81,5.72l4.84,4.66l3.64,3.51l1.93,2.77l-1.34,-0.09l-2.51,-1.69l-3.89,-2l-2.39,-1.6l-3.57,-2.89l-2.59,-2.3l-3.01,-2.65l-1.71,-1.56l-2.32,-1.64l-0.07,1.12l1.22,1.16l1.68,2.34l1.09,1.85l0.59,1.28l2.74,3.64l3.48,3.71l2.78,3.93l0.91,1.55l-0.78,0.17l-1.08,-1.2l-1.7,-1.4l-3.25,-2.52l-2.37,-2.22l-3.19,-2.42l-2.47,-2.1l-3.57,-2.11l-1.49,-0.44l-1.28,-1.17l-1.87,-1.84l-1.61,-1.78l-2,-1.66l-1.14,-1.08l-1.19,-0.82l-1.44,-1.48l-0.87,0.25l0.32,1.27l0.68,1.44l1.72,1.65l2.78,2.67l2.91,2.76l2.62,2.91l2.77,2.41l2.91,3.75l1.91,2.9l0.99,2.65l-0.68,0.39l-0.77,-1.04l-2.11,-1.06l-3.44,-2.54l-2.53,-1.92l-4.69,-3.54c0,0 -5.07,-3.57 -5.27,-3.84c-0.2,-0.26 -4.14,-3.75 -4.14,-3.75l-2.69,-3.17l-2.71,-2.74l-2.66,-3.15l-3.16,-2.87l-0.95,0.29l1.08,1.4l2.02,2.27l2.41,3.29l2.44,3.03l2.77,4.02l1.88,3.26l1.98,3.76l-0.1,1.5l-0.9,0.18c0,0 -1.68,-1.72 -2.03,-1.79c-0.35,-0.07 -2.97,-2.11 -3.21,-2.45c-0.23,-0.33 -5.43,-5.6 -5.43,-5.6l-4.32,-3.9c0,0 -3.72,-3.83 -3.92,-3.97c-0.21,-0.14 -7.57,-8.1 -7.57,-8.1c0,0 -6.32,-4.84 -6.56,-4.87c-0.25,-0.03 3.23,4.87 3.23,4.87l4.07,6.28l6.27,9.65l0.62,2.81l-1.29,0.37l-1.69,-1.66l-2.91,-2.66l-3.05,-3.39l-3.16,-3.6l-2.86,-3.63l-4.03,-4.12l-0.83,0.14l0.48,0.87l2.91,2.9l3.06,4.41l2.86,3.83l3.26,4.03l3.24,4.09l3.7,5.59l-0.9,0.69l-2.14,-1.55l-4.72,-5.72c0,0 -11.26,-12.25 -11.5,-12.39c-0.23,-0.14 -8.46,-9.52 -8.65,-9.59c-0.19,-0.07 -5.83,-4.12 -6.22,-4.45c-0.4,-0.33 0.49,1.28 0.49,1.28l2.62,2.74l2.38,2.12l6.84,7.82l5.38,6.42c0,0 1.8,2.83 1.34,2.94c-0.46,0.1 -1.46,-0.27 -1.46,-0.27l-4.02,-4.26l-7.05,-6.57l-4.57,-4.43c0,0 -3.07,-2.16 -3.58,-2.1c-0.51,0.05 -0.33,1.37 0.11,1.88c0.44,0.51 4.36,4.33 4.51,4.54c0.15,0.22 6.19,5.81 6.23,6.11c0.04,0.31 3.39,4.64 3.22,5.09c-0.18,0.45 2.01,3.04 -0.9,1.5c-2.91,-1.55 -4.73,-3.9 -5.18,-4.23c-0.46,-0.33 -6.1,-4.97 -6.14,-5.36c-0.03,-0.4 -9.79,-8.09 -9.99,-8.23c-0.21,-0.14 -6.55,-4.02 -6.7,-3.85c-0.15,0.18 4.12,6.97 4.52,7.4c0.4,0.44 3.66,9.92 2.38,10.83c-1.27,0.91 -0.93,0.21 -1.97,-0.99c-1.03,-1.21 -4.84,-7.52 -5.44,-7.62c-0.59,-0.11 -4.56,-1.7 -4.56,-1.7c0,0 -0.53,9.2 0.85,10.15c1.37,0.94 2.69,4.64 2.61,4.79c-0.09,0.14 2.55,6.04 -1.26,1.77c-3.81,-4.25 -7.08,-6.01 -7.46,-7.76c-0.38,-1.75 -0.85,-8.21 -1.16,-8.64c-0.31,-0.42 -5.76,-5.39 -6.46,-5.04c-0.69,0.34 0.98,8.1 0.94,8.33c-0.05,0.21 0.34,8.61 0.76,9.19c0.41,0.58 -0.37,1.89 -1.18,0.86c-0.81,-1.03 -2.44,-9.58 -3.38,-10.54c-0.94,-0.95 -1.44,-6.17 -2.99,-6.33c-1.54,-0.17 -5.41,-2.84 -7.09,-2.3c-1.67,0.54 -14.97,-0.26 -15.72,0.08c-0.75,0.33 -20.08,0.84 -21.37,1.04c-1.29,0.2 -23.49,-4.58 -23.49,-4.58z" fill="#0000ff" id="svg_12" transform="rotate(9.67167 410.769 310.297)"/>
  <g id="svg_13" transform="translate(-532 -1) translate(-164 -285) translate(-1 15) translate(-14 0) matrix(1.98401 -0.712837 0.739685 1.57531 -987.148 182.735)">
   <ellipse cx="717.55" cy="466.93" fill="#0000ff" id="svg_14" rx="13.85" ry="13.42"/>
   <g id="svg_15" transform="matrix(1,0,0,1,45.0842,-0.478904)">
    <ellipse cx="717.55" cy="466.93" fill="#0000ff" id="svg_16" rx="13.85" ry="13.42"/>
   </g>
   <g id="svg_17" transform="matrix(0.984842,0,0,1.04912,10.9733,-20.0763)">
    <rect fill="#0000ff" height="57.02" id="svg_18" width="7.84" x="723.91" y="408.71"/>
   </g>
   <g id="svg_19" transform="matrix(0.984842,0,0,1.04912,55.6995,-18.8003)">
    <rect fill="#0000ff" height="57.02" id="svg_20" width="7.84" x="723.91" y="408.71"/>
   </g>
   <path d="m730.9,408.68c0,0 34.59,2.38 37.83,1.28c1.02,-0.34 5.39,7.47 5.39,7.47c-1,2.3 -42.97,1.05 -42.42,-0.99" fill="#0000ff" id="svg_21"/>
  </g>
 </g>
</svg>