<svg width="508" height="573" viewBox="0 0 508 573" fill="none" xmlns="http://www.w3.org/2000/svg">
<path fill-rule="evenodd" clip-rule="evenodd" d="M321.178 204.684C321.178 204.684 378.518 507.674 301.178 574.274C297.778 577.194 271 561 219.428 566.904C219.428 566.904 357 415 296 212" fill="#003F7F"/>
<path fill-rule="evenodd" clip-rule="evenodd" d="M304.276 224.784C304.456 224.294 298.056 209.354 277.406 198.394C271.006 195.004 262.186 192.634 252.296 190.444C243.746 188.554 234.316 186.614 225.886 186.724C220.056 186.794 203.546 183.574 193.746 183.754C164.766 184.254 148.376 188.744 147.576 189.324C146.506 190.114 162.076 186.274 164.326 189.664C165.046 190.754 160.916 189.284 156.516 190.014C144.016 192.084 119.236 195.434 118.806 197.774C118.026 201.514 135.436 193.524 140.666 196.584C142.276 197.524 136.966 196.934 132.276 198.944C128.196 200.704 122.536 201.884 117.756 204.134C110.186 207.684 104.026 212.204 103.836 212.964C103.566 213.994 113.136 209.844 121.456 207.454C127.676 205.674 133.236 205.554 133.236 205.554L121.006 210.634L111.616 215.954L102.746 224.364C102.746 224.364 108.666 221.494 113.616 219.904C117.276 218.734 120.436 218.714 120.056 218.684C119.686 218.654 114.466 221.794 110.896 225.704C105.866 231.214 102.066 238.054 102.066 238.054L110.896 232.264L118.606 225.984L114.036 236.294L110.396 243.254L111.356 249.134C111.356 249.134 113.706 244.004 116.176 240.664C120.806 234.364 126.996 227.924 126.636 228.374C124.276 231.344 124.606 243.824 126.356 241.684C130.296 233.944 134.106 226.124 140.556 219.884C137.416 229.274 135.886 237.284 137.416 242.684L141.826 237.984C144.376 231.084 146.936 224.204 150.586 218.564C151.176 222.194 150.686 228.194 149.916 234.794C153.016 229.784 156.186 224.264 159.436 218.164C158.766 225.524 158.336 232.214 159.866 233.924L165.516 226.264L171.526 209.874L175.136 204.584C175.236 206.394 175.306 208.224 175.356 210.054C175.466 213.794 173.246 218.964 173.236 222.724C173.226 224.744 173.376 226.844 174.026 228.444C174.376 229.314 175.426 229.534 175.426 230.624L177.876 228.324C179.506 223.214 181.266 218.814 183.596 217.304C184.386 218.404 184.826 222.104 185.206 226.344C188.096 223.074 189.526 218.554 191.656 214.024C192.806 211.574 194.786 209.304 195.906 206.794L194.156 217.714L195.026 223.574L198.566 220.424C200.466 215.204 202.596 210.624 205.516 208.234L204.896 213.144L205.416 217.624L207.556 220.144C210.976 214.194 214.566 208.824 218.826 205.694C216.886 210.344 216.556 213.404 217.976 214.714C222.486 212.244 227.226 207.274 231.976 202.234C227.306 209.684 224.536 215.454 224.066 219.194C226.616 218.794 230.486 215.524 235.376 210.044C234.516 211.424 233.676 212.894 232.886 214.664C231.746 216.824 231.746 218.604 232.986 219.974L233.206 219.694C233.206 219.694 238.206 213.784 239.206 213.944C240.196 214.094 244.276 209.024 248.476 209.994C252.676 210.944 248.326 210.034 248.326 210.034C248.326 210.034 240.166 218.704 240.736 219.724C241.306 220.734 253.056 214.944 254.006 215.794C254.956 216.634 264.526 210.644 264.876 211.684C265.226 212.714 255.866 221.694 254.486 222.314C253.096 222.944 274.266 212.754 273.736 214.294C273.206 215.834 266.076 223.224 266.386 225.004C266.686 226.794 268.566 220.724 279.516 218.924C283.286 218.304 277.746 220.664 276.486 222.984C274.076 227.394 271.876 233.744 271.876 233.744C274.646 233.634 281.656 223.164 284.596 223.194C287.706 223.234 293.546 221.594 296.006 223.684C297.506 224.954 301.136 225.454 302.056 227.354C303.496 230.314 302.186 234.634 305.316 234.834" fill="#003F7F"/>
<path fill-rule="evenodd" clip-rule="evenodd" d="M314.926 229.114C314.926 229.114 313.996 225.894 309.506 223.354C305.196 220.914 297.376 219.164 294.386 218.964C290.676 218.714 287.436 218.144 283.956 217.684C276.226 216.644 268.706 215.984 268.706 215.984C258.926 215.814 249.126 216.314 239.296 217.634C230.106 218.464 221.036 220.434 212.086 223.504L192.536 230.624C192.536 230.624 185.396 232.274 178.846 234.564C173.126 236.564 167.906 239.224 167.666 239.574C167.016 240.514 160.916 242.964 154.406 246.954C142.776 254.094 128.726 264.254 129.386 266.444C129.596 267.124 127.806 269.074 128.346 269.154C128.866 269.224 131.346 267.084 132.166 266.554C134.136 265.274 136.086 264.064 136.086 264.064L130.686 269.964C122.246 276.384 118.646 282.284 116.836 287.984L128.126 278.074C121.826 286.534 119.056 294.974 118.766 303.394C124.276 293.794 130.646 284.204 138.246 274.634C136.406 281.364 134.806 287.564 133.346 293.434C132.266 295.554 151.986 264.974 152.006 265.364C152.026 265.914 150.066 269.924 148.416 274.894C147.236 278.444 142.556 284.844 141.496 288.484C139.676 294.684 141.856 297.344 142.636 296.704C146.666 287.564 151.346 278.904 156.716 270.724C157.576 273.144 158.286 275.864 158.756 278.974C158.576 282.174 158.806 285.304 159.566 287.514C164.126 278.274 166.276 268.274 169.116 258.474C170.186 265.164 170.056 272.344 169.916 278.434C169.826 279.714 175.796 266.854 175.686 267.094C175.436 267.594 176.006 269.824 175.536 272.094C175.236 273.554 175.886 274.784 176.056 275.454C176.676 277.964 177.996 278.694 178.486 278.554C183.566 272.134 186.496 263.174 189.326 254.114C188.386 261.144 188.146 267.114 190.166 269.644C191.996 264.524 194.356 260.224 197.016 256.374C197.976 261.394 198.506 266.164 198.246 270.494L202.566 264.184L207.256 253.314C206.856 253.754 208.016 266.614 207.906 267.074C207.766 267.644 209.456 264.804 210.556 263.024C212.666 259.584 214.586 254.614 214.426 254.594C215.026 255.804 215.016 257.614 215.166 259.364C218.986 253.114 222.046 245.674 225.276 238.474C224.776 243.844 223.686 250.324 222.276 256.454C225.086 252.544 227.396 248.094 229.396 243.324C229.986 246.504 230.166 250.044 229.946 253.944C233.816 248.784 237.086 243.044 239.816 236.764C240.776 238.174 241.406 240.034 241.626 242.454C242.716 240.584 244.136 238.754 246.206 237.024C247.066 236.404 248.116 236.154 249.396 236.294C249.676 238.784 248.456 242.054 248.296 244.444C248.136 246.764 249.046 248.204 248.736 250.504C250.426 246.294 252.636 240.684 255.866 235.304C256.546 235.044 257.326 234.984 258.306 235.394C258.446 236.794 258.266 238.394 257.806 240.204C259.106 238.044 260.656 236.184 262.506 234.684C262.826 234.244 267.096 248.084 266.166 249.064C265.436 249.834 273.366 237.504 273.366 237.504L314.946 229.144L314.926 229.114Z" fill="#003F7F"/>
<path fill-rule="evenodd" clip-rule="evenodd" d="M310.766 236.174C310.676 236.074 306.976 245.184 305.516 253.094C304.246 260.044 305.166 266.724 305.396 267.544C305.696 268.654 303.126 264.084 300.586 258.384C298.026 252.644 295.636 245.084 295.386 244.074C295.266 243.584 293.626 250.924 296.906 262.434C300.186 273.944 301.826 285.904 300.726 285.944C300.136 285.954 298.526 281.964 296.846 278.384C295.406 275.304 293.826 272.574 293.886 272.404C293.956 272.164 291.856 267.644 290.826 263.094C290.186 260.234 289.566 256.774 289.576 256.354C289.576 255.614 287.296 254.414 287.656 264.374C287.886 270.594 291.196 280.444 292.776 287.264C293.726 291.364 293.366 295.594 293.136 295.724C292.256 296.214 292.166 294.864 291.726 293.584C291.076 291.654 289.596 289.114 289.236 288.714C288.646 288.044 290.226 296.104 290.706 297.024C291.186 297.954 291.506 304.774 290.776 304.914C290.316 305.014 288.016 301.254 286.076 296.864C284.916 294.234 284.116 290.954 283.296 289.304C282.676 288.064 283.836 293.594 284.366 298.414C284.736 301.764 284.586 305.584 284.256 305.984C283.836 306.494 279.326 296.184 278.866 295.674C278.406 295.164 272.456 283.304 271.986 282.634C271.796 282.354 271.776 288.724 273.426 292.044C274.426 294.034 277.076 302.214 278.146 308.394C278.846 312.464 278.256 315.664 278.186 315.634C277.826 315.464 277.096 314.114 276.216 312.754C272.886 307.624 266.936 296.074 267.046 295.544C267.176 294.864 266.176 298.374 267.506 303.184C268.836 307.974 272.506 315.214 273.336 318.104C273.746 319.564 273.956 326.714 274.866 332.004C275.536 335.904 276.226 338.484 275.826 339.354C275.566 339.914 273.706 338.564 271.666 334.864C269.596 331.124 267.466 324.944 265.626 320.674C264.016 316.924 262.576 314.874 262.516 314.284C262.466 313.804 262.596 316.594 263.376 320.584C264.196 324.814 266.046 330.454 267.006 334.954C267.966 339.404 267.406 343.334 267.406 343.334L264.326 339.614L259.576 330.884L255.566 320.634L252.446 313.584C251.286 311.514 250.066 309.984 248.796 308.924C247.456 309.604 248.126 315.614 248.606 316.484C248.716 316.674 249.056 319.024 249.656 320.684C251.496 325.824 255.016 334.554 255.016 334.554C258.476 341.564 261.616 348.324 264.096 353.644C264.566 355.404 264.816 356.714 264.936 357.754L264.666 362.484C259.596 358.114 254.756 346.084 250.096 336.224C249.756 337.084 249.656 338.174 249.916 339.584C250.336 341.684 250.826 343.594 251.256 345.364C251.626 346.894 251.946 348.314 252.416 349.544C252.806 353.074 252.316 355.014 251.776 356.844C251.776 356.844 250.516 355.704 249.486 352.994C248.066 349.254 246.926 343.854 246.586 344.134C245.826 344.754 245.566 348.784 245.946 348.934C246.766 353.604 248.056 358.074 249.666 361.794C250.036 363.904 250.026 365.894 249.626 367.724C247.496 366.894 246.126 363.844 244.896 360.434C243.386 354.994 241.796 349.894 239.716 346.684C239.046 349.564 238.966 352.034 239.246 354.254C239.906 358.554 240.086 361.414 240.016 363.504C239.306 364.484 237.636 361.104 235.536 355.964C235.376 364.254 234.986 371.534 234.496 378.164C232.476 376.594 230.686 373.504 229.146 368.674C227.786 365.124 227.426 359.604 226.956 353.954C227.426 347.394 227.896 342.524 229.456 338.774C228.756 338.214 228.826 337.834 228.756 338.494C228.756 338.494 228.056 340.254 227.106 342.364C226.036 344.714 225.026 348.064 224.776 348.764C224.466 349.654 223.066 353.234 222.216 356.184C221.626 358.264 221.486 360.114 221.386 360.124C221.076 360.154 218.806 354.374 219.556 347.974C220.306 341.584 228.686 325.974 227.766 325.924C226.846 325.874 215.576 343.114 215.246 344.814C214.916 346.514 214.756 341.564 215.396 340.504C216.036 339.454 216.136 336.894 218.926 333.164C221.726 329.444 212.456 338.134 212.446 339.274C212.436 340.414 212.956 331.774 213.746 331.404C214.536 331.034 217.806 322.914 222.516 319.564C227.226 316.224 239.696 303.034 239.026 302.764C238.786 302.664 235.846 303.674 232.096 306.204C225.076 310.954 215.036 319.254 213.456 323.144C211.046 329.094 215.956 314.514 216.586 313.904C218.306 312.234 229.216 300.124 232.736 298.674C233.276 298.454 219.846 302.044 218.376 305.434C217.836 306.694 211.236 308.574 211.186 308.114C211.046 306.894 214.166 303.884 214.166 303.884L210.676 304.104C210.356 303.944 217.786 296.604 218.446 296.044C219.836 294.874 236.486 283.204 236.706 283.054C237.416 282.514 226.806 285.304 225.126 287.514C224.826 287.914 209.506 294.914 209.406 295.754C209.336 296.254 208.366 292.654 215.656 288.114C222.896 283.614 231.806 280.754 231.586 279.514C231.426 278.574 217.216 283.714 216.676 284.354C216.146 284.984 207.706 287.904 207.766 288.674C207.826 289.454 212.516 282.054 217.686 279.284C222.896 276.514 239.756 266.404 240.706 267.614C241.036 268.024 252.676 260.294 253.016 261.174C253.206 261.674 240.566 261.304 236.156 265.164C231.746 269.014 212.516 276.284 212.316 275.724C212.126 275.174 225.026 266.504 224.516 266.054C224.286 265.854 239.026 257.924 238.976 257.654C238.896 257.144 227.606 259.884 225.866 262.184C224.136 264.484 215.466 266.714 214.836 266.884C214.196 267.054 223.036 259.544 223.036 259.544L236.896 252.454C236.896 252.454 258.496 247.414 258.826 246.904C259.556 245.744 232.166 249.804 231.936 250.724C235.236 248.924 237.766 246.404 241.286 245.054C247.396 242.714 254.716 242.014 261.426 241.004L256.766 236.994L251.946 229.384C252.756 229.834 253.646 230.114 254.816 229.764C255.346 230.174 266.336 237.604 267.066 236.854C267.236 235.434 256.636 226.434 256.256 225.034C262.536 224.924 268.526 226.924 274.526 228.814L310.736 236.184L310.766 236.174Z" fill="#003F7F"/>
<path fill-rule="evenodd" clip-rule="evenodd" d="M305.982 221.975C305.982 221.975 256.169 161.331 254.561 163.894C252.953 166.465 257.955 165.897 256.88 168.425C255.805 170.946 237.607 152.013 237.483 152.641C237.359 153.26 227.46 143.128 225.816 146.497C224.163 149.866 240.246 158.742 240.069 159.905C239.882 161.076 226.287 151.495 226.127 150.723C225.958 149.959 207.37 141.906 206.525 143.187C205.681 144.485 220.813 151.062 219.241 153.141C217.659 155.229 202.651 145.071 201.532 145.758C200.394 146.446 187.181 140.429 186.568 142.398C186.319 143.221 190.149 143.908 194.343 145.393C198.413 146.845 202.802 149.068 204.988 150.663C205.93 151.359 206.907 151.69 206.632 152.386C206.197 153.481 205.13 152.013 203.06 151.555C197.64 150.366 188.425 147.532 188.425 147.532C188.425 147.532 170.752 145.164 161.955 144.333C159.218 144.07 157.05 143.178 156.828 143.857C156.49 144.944 161.813 146.497 161.813 146.497C161.813 146.497 169.579 148.084 169.375 148.465C169.179 148.847 156.606 148.313 155.957 148.321C155.309 148.321 112.053 150.069 112 152.123C111.947 154.177 150.892 151.741 150.75 152.361C150.599 152.98 135.378 155.306 134.925 156.035C134.454 156.765 167.224 154.1 167.1 154.576C166.975 155.059 125.986 166.194 125.782 167.458C125.577 168.714 140.905 167.237 141.349 166.601C141.794 165.964 152.581 164.42 152.661 164.513C152.741 164.615 148.502 167.373 148.938 168.629C149.373 169.877 160.347 166.185 160.249 165.854C160.151 165.515 184.142 159.158 184.32 160.168C184.507 161.187 170.601 163.877 170.379 164.615C170.156 165.345 158.596 168.587 158.898 170.403C159.201 172.227 171.409 167.806 171.791 167.568C172.174 167.331 212.905 158.174 212.568 160.083C212.23 162.01 179.229 170.539 179.193 173.118C179.167 175.69 184.88 172.295 184.542 172.932C184.205 173.568 166.389 181.35 166.584 182.216C166.78 183.081 185.227 174.909 185.28 176.165C185.342 177.413 203.389 168.816 206.028 169.469C208.658 170.123 215.375 167.976 215.74 168.264C216.104 168.553 181.344 179.313 182.463 182.589C183.592 185.856 192.966 178.125 193.17 179.05C193.366 179.975 216.433 170.259 217.517 172.193C218.601 174.137 187.732 185.695 187.706 186.9C187.679 188.114 202.749 182.861 202.447 183.692C202.154 184.516 200.021 189.548 200.297 190.286C200.403 190.566 202.118 188.462 204.677 186.603C208.987 183.455 213.563 180.96 215.011 180.883C216.788 180.799 237.652 173.407 241.908 175.529C244.636 176.886 222.493 178.338 218.228 185.169C215.109 188.156 221.418 183.956 227.958 182.114C237.634 179.39 249.941 177.667 250.207 178.27C250.643 179.28 222.324 186.578 222.315 190.261C222.306 191.449 224.919 189.862 228.153 188.954C234.906 187.07 245.133 183.803 245.151 184.465C245.187 185.432 238.114 189.412 238.167 190.354C238.22 191.288 253.397 185.11 253.939 185.492C254.481 185.873 245.347 195.412 246.839 196.821C248.323 198.23 258.951 188.759 259.146 190.074C259.342 191.381 306 222 306 222L305.982 221.975Z" fill="#003F7F"/>
<path fill-rule="evenodd" clip-rule="evenodd" d="M308.586 225.644C308.586 225.644 306.176 209.024 307.076 208.184C307.966 207.344 307.336 192.314 305.416 190.644C303.506 188.984 303.506 165.064 302.946 167.594C302.396 170.124 304.386 163.684 298.626 167.304C292.856 170.934 298.926 156.944 298.926 156.944C298.926 156.944 295.376 158.344 294.066 161.494C292.756 164.644 296.526 150.894 296.106 149.754C295.696 148.624 294.266 139.534 295.896 140.374C297.526 141.214 289.856 147.554 289.536 149.814C289.206 152.074 292.346 124.984 289.606 126.204C286.876 127.424 286.306 142.824 284.356 142.274C282.416 141.724 283.346 135.674 283.746 135.504C284.136 135.334 284.926 133.374 285.336 132.934C285.756 132.494 280.196 105.284 278.976 106.564C277.746 107.844 279.366 119.484 278.156 120.314C276.936 121.134 276.866 115.034 275.736 115.394C274.606 115.764 276.186 125.154 274.786 125.224C273.386 125.294 272.836 114.164 272.146 114.504C271.456 114.844 270.136 99.4239 268.586 100.264C267.036 101.104 267.256 102.434 267.126 105.144C266.996 107.844 268.036 118.824 268.176 120.684C268.316 122.554 264.546 114.614 264.956 111.794C265.376 108.964 259.696 98.3339 259.536 97.9239C259.376 97.5139 253.406 86.2939 253.756 86.0039C254.106 85.7139 252.436 85.0539 251.486 89.2739C250.536 93.5039 256.056 97.4239 255.366 99.4139C254.686 101.394 260.966 109.514 259.296 110.884C257.616 112.264 257.916 107.154 256.066 105.204C254.216 103.244 247.976 88.3339 247.936 89.4739C247.846 91.7939 248.096 99.4839 247.686 99.5439C246.216 99.7739 243.886 91.6139 243.886 91.6139L242.726 84.2939C240.716 78.7839 238.306 74.3139 235.166 71.7739L233.586 75.6639C233.586 75.6639 235.006 80.8839 234.336 81.9739C233.666 83.0739 230.846 79.5539 230.656 78.6239C230.456 77.7039 221.356 62.5839 219.876 63.0639C218.396 63.5339 221.036 72.7039 221.526 72.9439C222.006 73.1839 212.646 63.1339 211.026 63.4839C209.406 63.8339 204.116 57.0739 203.026 57.9039C201.926 58.7339 198.006 56.9539 198.406 58.2039C198.796 59.4639 207.636 65.8639 207.926 67.1039C208.216 68.3439 222.836 80.2039 221.296 82.0139C219.756 83.8139 216.256 79.0339 214.596 77.9039C212.946 76.7839 202.716 71.9639 202.306 72.3239C201.896 72.6839 214.196 83.9239 213.436 84.7539C212.676 85.5739 228.716 93.4639 228.676 94.3239C228.626 95.1939 216.636 90.6639 216.066 90.2339C215.486 89.7939 204.036 85.1439 203.626 85.9939C203.216 86.8339 216.926 94.8539 217.306 93.6739C217.676 92.4839 235.006 104.794 234.856 105.244C234.716 105.704 225.176 103.344 224.416 102.534C223.666 101.724 211.226 97.0939 210.856 97.7239C210.476 98.3539 219.566 106.504 219.556 106.134C219.556 105.754 238.056 114.304 237.596 114.974C237.126 115.644 227.656 114.604 227.526 115.474C227.386 116.344 233.086 119.544 232.666 120.134C232.236 120.724 247.486 130.524 247.746 130.184C248.016 129.844 233.376 127.424 232.946 128.144C232.506 128.854 242.446 134.194 242.866 133.974C243.286 133.764 249.826 136.894 250.386 136.884C251.336 136.874 228.726 132.174 228.206 133.314C227.696 134.454 234.346 137.584 234.736 138.024C235.126 138.454 249.116 140.894 249.676 142.114C250.236 143.334 259.296 144.504 259.476 145.394C259.656 146.274 242.876 144.054 243.076 143.714C243.286 143.364 256.506 148.444 256.376 148.954C256.236 149.474 241.126 146.974 240.826 147.954C240.516 148.934 252.946 151.934 252.856 153.014C252.776 154.104 268.206 155.024 274.646 163.744C275.936 165.474 275.736 165.914 274.786 165.394C272.406 164.104 254.166 157.214 251.726 161.674C251.376 162.854 257.616 162.864 263.366 165.874C272.576 170.704 283.116 178.924 282.816 179.574C282.316 180.634 265.916 171.414 265.356 171.704C264.806 171.994 273.166 177.284 273.606 178.124C274.046 178.964 279.326 182.724 280.306 183.014C281.286 183.294 292.486 187.344 292.466 188.364C292.436 189.394 280.286 185.674 279.786 186.874C279.286 188.064 286.666 193.814 285.256 195.744C283.856 197.684 308.586 225.644 308.586 225.644Z" fill="#003F7F"/>
<path fill-rule="evenodd" clip-rule="evenodd" d="M310.996 220.124L313.136 216.764L317.936 218.254C317.936 218.254 321.976 224.054 323.686 225.034C325.386 226.014 322.536 213.814 323.256 213.874C323.976 213.934 333.226 224.274 335.186 224.984C337.146 225.694 329.786 211.944 330.986 212.034C332.176 212.124 351.846 216.464 351.836 217.814C351.836 219.174 341.676 209.544 342.046 208.424C342.426 207.314 352.996 205.864 354.296 208.084C355.596 210.304 351.846 202.144 350.576 202.214C349.306 202.294 364.446 206.884 365.546 206.724C366.636 206.564 357.796 201.354 358.146 199.614C358.346 198.624 372.876 202.234 373.156 203.974C373.436 205.714 363.406 195.174 363.406 195.174C363.406 195.174 366.036 193.024 367.706 194.614C369.376 196.204 384.346 203.524 385.066 204.944C385.786 206.354 368.626 188.344 369.646 186.744C370.466 185.474 395.306 206.964 399.306 206.664C403.306 206.354 392.956 194.774 395.096 195.064C397.226 195.354 415.396 206.964 416.896 207.784C418.396 208.604 397.816 182.094 399.036 181.614C400.266 181.134 426.446 206.324 427.836 206.394C429.236 206.474 410.636 182.134 411.576 180.404C412.516 178.664 439.336 204.424 441.636 204.264C443.936 204.114 441.026 190.204 442.676 190.474C444.326 190.744 454.196 203.194 455.856 203.444C457.506 203.684 436.816 174.664 438.516 175.144C440.226 175.634 465.186 199.624 465.936 200.114C467.786 201.334 461.896 184.594 459.596 182.204C458.036 180.574 475.556 191.434 474.996 194.624C474.436 197.824 481.956 186.844 477.006 185.344C472.056 183.844 418.106 165.524 417.586 165.474C416.546 165.364 432.546 164.024 435.056 165.804C437.566 167.564 406.776 155.314 387.276 158.344C367.776 161.374 426.066 147.654 424.776 148.304C423.476 148.954 393.796 147.874 392.846 148.944C391.906 150.014 429.846 136.514 430.616 134.514C430.936 133.684 387.146 144.584 386.686 141.814C386.486 140.634 433.626 127.104 433.236 126.754C431.946 125.614 429.826 126.004 429.826 126.004L437.606 123.244C437.606 123.244 412.046 125.384 404.026 127.784C396.006 130.184 435.146 118.424 434.566 117.824C433.826 117.044 412.416 122.684 407.266 122.954C402.766 123.194 454.676 105.994 454.346 104.984C453.536 102.544 429.126 107.974 402.396 120.054C373.706 133.024 342.406 153.194 335.856 165.794C327.956 180.994 311.016 220.134 311.016 220.134L310.996 220.124Z" fill="#003F7F"/>
<path fill-rule="evenodd" clip-rule="evenodd" d="M309.116 216.624L311.126 205.114C311.126 205.114 307.206 197.304 307.956 194.854C308.696 192.424 309.936 184.914 309.736 181.874C309.536 178.834 303.956 157.114 305.336 154.694C306.706 152.274 306.476 144.194 306.686 142.064C306.786 140.944 307.866 138.794 307.866 138.794C308.466 136.814 315.436 154.654 314.436 155.584C313.636 155.474 316.696 156.234 316.636 154.844C316.566 153.454 310.556 132.594 310.916 131.484C311.416 129.964 308.546 117.874 312.796 115.824C315.776 114.394 315.956 129.764 317.046 131.544C318.136 133.324 317.296 134.494 318.156 133.544C319.036 132.584 319.336 118.784 319.006 118.324C318.676 117.854 316.766 107.444 316.866 106.484C316.976 105.534 317.756 91.3739 318.326 91.8439C318.886 92.3039 317.326 91.144 319.926 91.964C322.536 92.784 322.876 105.734 323.366 106.164C323.856 106.594 324.446 113.004 324.976 113.564C325.506 114.124 325.876 112.384 326.046 110.934C326.226 109.484 324.856 104.884 325.396 104.404C325.946 103.914 326.726 89.194 326.726 89.194C326.726 89.194 330.626 82.804 331.416 82.754C332.206 82.694 333.446 82.944 333.606 83.824C333.766 84.704 331.946 103.324 332.146 104.124C332.346 104.934 333.616 106.774 334.086 106.414C334.556 106.054 335.986 101.574 335.596 100.874C335.196 100.174 336.286 89.1639 336.756 89.4039C337.236 89.6439 339.506 98.6239 338.576 100.264C337.636 101.914 340.946 99.824 341.156 98.784C341.356 97.734 342.996 81.024 343.846 81.244C344.706 81.464 349.576 70.604 352.026 71.524C354.476 72.434 352.476 75.004 352.586 74.554C352.686 74.104 350.286 78.944 350.386 79.474C350.486 80.014 348.386 89.254 348.646 89.524C348.906 89.794 349.656 90.3239 350.006 89.6439C350.346 88.9639 352.106 83.0539 352.926 81.3439C353.756 79.6339 357.976 71.0039 358.756 71.1539C359.546 71.2939 361.996 66.894 362.226 66.474C362.446 66.064 363.756 65.2739 363.836 66.1239C363.926 66.9739 363.086 81.3139 362.146 81.2639C361.206 81.2139 365.416 79.3439 366.016 78.2839C366.626 77.2239 374.476 69.2639 375.086 68.8439C375.706 68.4339 383.616 63.184 383.976 63.354C384.336 63.514 393.566 59.204 393.826 59.794C394.076 60.394 391.966 62.0139 391.346 62.6739C390.726 63.3239 383.086 68.9339 383.526 69.9039C383.976 70.8739 378.216 75.0039 378.916 75.5139C379.626 76.0339 384.776 74.224 385.586 73.354C386.396 72.484 393.076 70.004 393.076 69.144C393.066 68.364 408.466 64.6139 410.656 64.5939C410.776 64.5939 421.666 63.154 422.206 63.444C422.246 63.464 388.546 78.404 385.376 81.524C382.216 84.644 396.936 79.534 397.456 79.964C397.976 80.394 414.856 78.294 414.256 79.744C413.646 81.194 385.656 85.614 384.976 86.774C384.306 87.944 399.156 85.384 399.916 86.274C400.686 87.154 393.196 88.774 392.446 89.724C391.696 90.684 411.036 90.024 410.866 90.974C410.706 91.924 389.026 93.494 388.406 94.714C387.796 95.944 371.056 95.634 371.006 96.494C370.956 97.354 398.926 96.5339 398.736 97.9039C398.546 99.2839 391.306 99.6739 390.556 100.064C389.796 100.454 377.566 100.444 377.196 100.524C376.826 100.604 367.376 101.314 367.306 102.184C367.236 103.064 378.046 101.164 378.716 101.704C379.386 102.244 391.506 102.014 390.956 103.244C390.416 104.474 386.126 103.034 385.776 103.494C385.436 103.954 374.486 105.814 374.046 106.404C373.616 106.994 363.196 104.974 360.776 107.964C358.356 110.954 369.796 107.684 370.246 108.754C370.706 109.824 381.576 108.504 381.446 109.614C381.326 110.724 367.166 110.154 367.016 110.984C366.856 111.804 389.976 112.434 389.706 112.984C389.446 113.544 380.616 114.654 379.776 115.324C378.936 115.984 369.016 116.734 369.016 116.734C369.016 116.734 350.516 118.234 350.286 119.184C350.056 120.144 365.256 118.224 365.146 118.704C365.046 119.194 376.756 119.024 376.376 119.714C375.996 120.404 363.856 120.584 363.226 121.114C362.606 121.644 351.086 123.044 350.586 123.974C350.086 124.914 362.276 124.114 361.806 124.754C361.336 125.404 371.706 124.204 371.456 124.944C371.206 125.684 369.286 126.574 368.816 126.724C368.346 126.884 368.196 126.714 366.496 127.444C364.796 128.174 360.596 127.894 359.726 128.594C358.856 129.294 364.636 129.254 364.746 129.824C364.866 130.394 362.166 131.934 361.506 132.004C360.846 132.074 353.836 131.984 352.936 132.154C352.046 132.314 343.986 133.424 343.856 134.604C343.736 135.784 350.206 135.314 350.686 135.204C351.156 135.104 363.496 134.704 363.936 135.474C364.366 136.234 353.796 140.204 353.506 140.974C353.206 141.744 357.116 141.654 357.056 142.464C357.006 143.274 339.366 146.894 338.586 147.584C337.806 148.274 355.236 147.124 355.146 147.924C355.066 148.724 343.516 151.204 343.236 151.784C342.956 152.374 359.176 153.994 359.116 155.054C359.066 156.104 346.736 157.074 346.146 157.294C345.556 157.514 336.696 161.764 336.256 162.234C335.816 162.714 351.936 164.264 352.676 165.364C353.426 166.464 336.806 168.384 336.036 169.924C335.256 171.464 338.726 171.744 341.046 173.424C343.376 175.094 334.556 173.134 334.676 174.434C334.806 175.724 346.316 182.084 346.776 184.074C347.236 186.054 342.516 185.134 342.206 185.734C341.896 186.334 343.036 191.804 344.826 193.184C346.606 194.574 329.536 190.764 330.806 192.414C332.076 194.054 309.466 215.534 309.116 216.624Z" fill="#003F7F"/>
<path fill-rule="evenodd" clip-rule="evenodd" d="M356.566 308.584C356.566 308.584 367.096 297.084 367.386 297.954C367.676 298.824 360.036 311.684 361.346 312.844C362.656 314.014 368.566 302.624 369.076 304.064C369.576 305.494 365.026 314.914 365.996 315.894C366.966 316.884 370.726 310.224 370.786 311.504C370.866 312.784 368.156 321.574 372.346 327.894C373.496 329.624 373.356 317.754 373.756 320.124C374.146 322.484 377.016 330.524 377.716 331.424C378.406 332.334 378.946 326.904 378.956 326.714C378.976 326.534 381.776 334.414 382.666 335.474C383.546 336.544 383.776 319.324 384.046 318.794C384.316 318.264 385.196 325.104 386.036 325.174C386.876 325.244 386.946 310.174 386.476 309.184C386.006 308.194 387.866 311.674 388.376 312.534C388.876 313.384 388.956 297.964 381.756 288.074C374.556 278.184 385.116 291.244 385.276 290.054C385.436 288.864 376.516 275.454 377.176 275.994C377.836 276.544 380.356 278.544 380.426 278.104C380.846 275.534 379.706 273.394 379.706 273.394C378.016 270.274 376.156 267.144 373.976 263.984C373.976 263.984 365.636 255.284 363.896 254.494C362.156 253.694 336.176 233.954 336.166 234.004L327.276 235.094L327.266 235.174L333.166 244.244C333.166 244.244 330.836 251.344 330.176 252.674C329.516 253.994 330.836 255.274 330.836 255.274L336.626 244.784C336.626 244.784 331.556 261.584 333.636 266.464C334.496 268.484 338.666 254.324 339.586 253.414C340.506 252.494 343.726 250.024 343.726 250.024L340.976 255.794C340.976 255.794 332.656 266.934 334.786 271.624C335.376 272.934 343.156 260.854 343.486 260.454C345.286 258.224 339.286 275.494 339.496 277.604C339.666 279.304 350.746 263.384 351.066 262.944C353.456 259.594 348.626 271.924 347.476 273.634C347.476 273.634 343.206 280.384 342.986 283.394C342.756 286.394 355.146 267.964 355.146 267.964C353.736 272.314 351.806 276.464 349.726 280.554C349.726 280.554 343.746 293.154 344.616 294.724C345.496 296.294 354.856 280.644 354.476 280.044C355.736 279.474 355.376 281.804 352.646 288.384C352.646 288.384 348.786 293.874 349.976 295.684C351.166 297.504 353.896 292.304 353.896 292.304C353.896 292.304 357.786 285.344 358.196 285.104C358.596 284.864 355.166 296.694 355.066 298.394C354.976 300.094 358.196 295.644 361.906 291.364C362.726 290.424 354.066 307.214 355.566 308.684" fill="#003F7F"/>
<path fill-rule="evenodd" clip-rule="evenodd" d="M311.256 237.814L328.616 245.264L333.626 235.634C333.626 235.634 336.356 242.704 337.266 243.284C338.176 243.864 339.006 240.714 340.236 240.554C341.476 240.394 343.506 248.514 344.796 249.284C346.086 250.054 347.236 246.224 347.966 245.524C348.706 244.834 351.486 254.024 352.836 254.374C354.176 254.744 354.016 249.454 354.886 249.054C355.756 248.654 360.996 260.494 362.376 261.314C363.756 262.134 364.076 256.434 364.876 254.844C365.666 253.254 366.446 262.444 367.586 263.764C368.726 265.094 369.026 244.034 370.706 242.854C372.376 241.684 372.586 267.094 373.786 269.574C374.986 272.044 374.856 263.574 375.966 262.984C377.076 262.394 376.726 270.494 378.066 272.004C379.416 273.524 382.386 256.264 383.206 254.754C384.036 253.254 383.976 267.964 384.956 269.874C385.946 271.784 390.196 259.294 390.046 259.914C389.086 263.804 390.926 283.864 392.806 281.044C393.806 279.554 395.126 266.194 397.536 263.594C399.946 260.994 395.276 287.724 397.966 290.064C400.646 292.404 406.006 263.754 406.316 260.954C406.746 257.144 408.836 267.924 407.436 269.604C407.446 274.444 406.716 279.164 405.256 283.804C404.766 289.694 405.936 293.024 408.316 294.534C408.316 294.534 408.286 283.764 409.246 283.694C410.196 283.614 411.066 289.294 411.066 289.294C411.066 289.294 410.406 297.714 410.746 298.684C411.096 299.654 412.246 303.244 413.006 303.074C413.776 302.904 415.776 298.074 415.926 296.994C416.066 295.924 416.796 285.444 416.796 285.444C416.796 285.444 417.456 278.784 418.096 278.574C418.736 278.374 417.646 303.604 418.916 304.774C420.176 305.924 421.546 300.154 421.936 299.354C422.326 298.564 422.476 288.454 422.466 288.054C422.466 287.654 423.036 279.304 423.636 279.764C424.236 280.244 425.966 282.634 425.466 285.264C424.956 287.894 423.466 295.474 423.546 297.734C423.626 299.994 421.996 307.594 422.856 309.224C423.716 310.854 424.846 313.934 426.096 313.764C427.346 313.584 427.676 311.284 428.156 311.474C428.636 311.674 429.196 317.954 429.956 318.074C430.736 318.194 431.866 295.274 432.746 295.504C433.626 295.734 440.746 325.764 442.256 325.324C443.766 324.894 442.776 311.504 443.386 311.034C444.006 310.564 451.476 332.984 452.336 333.884C453.186 334.774 454.376 314.184 455.016 311.554C455.096 311.234 458.286 313.484 458.296 315.514C458.316 317.874 458.556 310.404 457.476 307.574C456.396 304.744 451.606 292.684 450.236 292.674C448.876 292.664 451.886 292.894 452.306 292.784C452.726 292.664 452.126 289.014 452.126 289.014C452.126 289.014 445.456 279.414 444.476 279.054C443.496 278.694 447.296 280.284 447.296 280.284C447.296 280.284 447.526 277.934 447.116 276.984C446.716 276.034 444.886 273.364 444.886 273.364C444.886 273.364 425.156 251.274 421.476 250.814C417.806 250.364 402.856 238.094 398.926 237.594C394.996 237.104 368.826 221.664 367.116 221.614C365.396 221.564 350.706 214.894 350.706 214.894L321.536 212.044C321.536 212.044 312.026 237.634 311.236 237.834L311.256 237.814Z" fill="#003F7F"/>
<path fill-rule="evenodd" clip-rule="evenodd" d="M295.456 202.175L354.774 204.879L395.743 209.305L427.674 214.797C427.674 214.797 449.943 216.929 450.526 217.91C451.098 218.901 462.819 224.885 463.299 224.804C463.77 224.722 455.833 224.272 455.833 224.272L460.778 226.799L471.882 229.087L482.292 232.525C482.292 232.525 478.654 234.766 476.49 234.011C474.328 233.247 469.429 232.351 469.429 232.351L479.477 237.198L490.149 242.913L496.414 247.46L494.897 248.145C494.897 248.145 490.296 247.046 490.034 246.799C489.784 246.543 482.874 244.767 482.874 244.767L481.245 244.621C481.245 244.621 483.805 246.741 484.093 246.78C484.371 246.817 490.658 250.638 490.793 251.097C490.928 251.556 497.932 257.721 498.348 257.72C498.773 257.722 501.966 262.679 501.75 262.936C501.522 263.202 500.73 263.381 500.686 263.282C500.642 263.184 496.324 258.938 495.771 259.269C495.225 259.613 487.64 254.181 487.182 254.489C486.724 254.796 481.79 250.77 481.79 250.77L476.568 246.35L475.963 246.987L477.949 249.202L482.715 255.817L486.704 261.224L489.702 265.296L491.139 268.35L489.833 268.037L487.643 265.949L484.144 263.324L482.057 261.345L479.023 257.896L476.857 255.194L474.335 252.076L472.911 250.251L470.899 248.244L470.642 249.337L471.65 250.685L472.913 253.274L473.677 255.281L474.043 256.642L476.133 260.691L478.94 264.932L481.02 269.274L481.657 270.954L480.86 270.991L479.996 269.627L478.556 267.961L475.775 264.931L473.812 262.344L471.074 259.423L468.992 256.937L465.827 254.258L464.432 253.574L463.367 252.205L461.833 250.077L460.545 248.052L458.852 246.08L457.91 244.823L456.874 243.815L455.703 242.114L454.804 242.215L454.906 243.52L455.334 245.054L456.753 246.97L459.044 250.069L461.449 253.278L463.543 256.587L465.869 259.428L468.108 263.614L469.503 266.793L470.034 269.572L469.298 269.842L468.714 268.688L466.812 267.288L463.848 264.207L461.676 261.889L457.647 257.611C457.647 257.611 453.249 253.24 453.098 252.94C452.944 252.65 449.646 248.548 449.646 248.548L447.527 244.971L445.316 241.815L443.223 238.263L440.59 234.903L439.605 235.029L440.434 236.591L442.044 239.168L443.867 242.816L445.764 246.213L447.819 250.641L449.124 254.17L450.445 258.21L450.094 259.671L449.177 259.698C449.177 259.698 447.809 257.72 447.476 257.592C447.143 257.464 444.903 255.013 444.723 254.638C444.552 254.274 440.311 248.205 440.311 248.205L436.708 243.635C436.708 243.635 433.684 239.234 433.511 239.062C433.327 238.889 427.409 229.806 427.409 229.806C427.409 229.806 421.992 223.973 421.76 223.903C421.519 223.831 424.126 229.246 424.126 229.246L427.083 236.121L431.643 246.687L431.782 249.561L430.448 249.709L429.061 247.789L426.64 244.678L424.202 240.824L421.692 236.744L419.483 232.685L416.202 227.947L415.36 227.945L415.687 228.883L418.069 232.231L420.344 237.093L422.52 241.349L425.057 245.869L427.564 250.445L430.272 256.577L429.269 257.106L427.42 255.219L423.728 248.787C423.728 248.787 414.686 234.82 414.473 234.641C414.27 234.465 407.732 223.835 407.557 223.734C407.381 223.633 402.502 218.693 402.173 218.303C401.834 217.91 402.441 219.647 402.441 219.647L404.563 222.788L406.553 225.278L411.982 234.136L416.207 241.368C416.207 241.368 417.506 244.46 417.034 244.492C416.564 244.513 415.64 243.98 415.64 243.98L412.393 239.105L406.547 231.444L402.786 226.309C402.786 226.309 400.123 223.664 399.61 223.638C399.099 223.601 399.055 224.933 399.403 225.51C399.751 226.086 402.973 230.511 403.086 230.743C403.197 230.985 408.212 237.51 408.201 237.813C408.188 238.125 410.763 242.956 410.52 243.371C410.267 243.785 411.991 246.706 409.381 244.699C406.773 242.682 405.373 240.06 404.985 239.659C404.587 239.256 399.807 233.734 399.833 233.343C399.87 232.944 391.541 223.724 391.367 223.552C391.184 223.379 385.586 218.489 385.409 218.631C385.231 218.783 388.3 226.194 388.622 226.685C388.942 227.186 390.563 237.079 389.149 237.761C387.744 238.445 388.197 237.812 387.373 236.454C386.561 235.088 383.865 228.228 383.291 228.029C382.727 227.821 379.081 225.587 379.081 225.587C379.081 225.587 377.013 234.567 378.214 235.735C379.406 236.892 380.086 240.761 379.982 240.896C379.87 241.018 381.481 247.278 378.442 242.429C375.401 237.599 372.473 235.315 372.392 233.526C372.312 231.737 372.933 225.29 372.7 224.814C372.465 224.348 367.928 218.533 367.179 218.76C366.441 218.979 366.784 226.91 366.706 227.13C366.621 227.328 365.595 235.674 365.911 236.317C366.218 236.957 365.229 238.118 364.603 236.966C363.978 235.815 363.808 227.112 363.042 226.008C362.275 224.914 362.659 219.684 361.158 219.266C359.669 218.839 356.302 215.557 354.555 215.807C352.818 216.059 339.842 213.036 339.045 213.245C338.251 213.444 319.11 210.7 317.804 210.68C316.499 210.661 295.418 202.219 295.418 202.219L295.456 202.175Z" fill="#003F7F"/>
<path d="M80.4917 154.913C95.6677 149.46 103.526 135.575 98.0438 123.899C92.5615 112.224 75.8146 107.179 60.6386 112.632C45.4626 118.084 37.6044 131.969 43.0867 143.645C48.5689 155.321 65.3157 160.366 80.4917 154.913Z" fill="#003F7F"/>
<path d="M169.585 122.021C184.761 116.568 192.619 102.683 187.137 91.0073C181.655 79.3317 164.908 74.2869 149.732 79.7395C134.556 85.1921 126.698 99.0772 132.18 110.753C137.662 122.429 154.409 127.473 169.585 122.021Z" fill="#003F7F"/>
<path d="M55.4381 32.0192L40.1192 37.5232L84.3678 131.76L99.6867 126.256L55.4381 32.0192Z" fill="#003F7F"/>
<path d="M145.119 2.14684L129.8 7.65079L174.049 101.887L189.368 96.3832L145.119 2.14684Z" fill="#003F7F"/>
<path fill-rule="evenodd" clip-rule="evenodd" d="M53.9651 32.4941C53.9651 32.4941 124.352 11.5863 129.967 7.54391C131.739 6.28121 146.186 15.4693 146.186 15.4693C145.903 19.8053 61.71 47.754 61.2922 44.1483" fill="#003F7F"/>
</svg>
