<svg width="100%" height="100%" viewBox="0 0 2732 2048" version="1.1" xmlns="http://www.w3.org/2000/svg" xmlns:xlink="http://www.w3.org/1999/xlink" xml:space="preserve" xmlns:serif="http://www.serif.com/" style="fill-rule:evenodd;clip-rule:evenodd;stroke-linecap:round;stroke-linejoin:round;stroke-miterlimit:1.5;">
    <path d="M1015.29,583.959C1015.52,583.292 1007.35,562.768 981.019,547.729C972.861,543.07 961.61,539.815 948.989,536.82C938.08,534.231 926.048,531.556 915.303,531.707C907.871,531.812 886.8,527.393 874.297,527.628C837.331,528.321 816.431,534.478 815.412,535.283C814.047,536.361 833.902,531.09 836.77,535.745C837.689,537.238 832.418,535.232 826.806,536.231C810.865,539.069 779.264,543.667 778.714,546.883C777.724,552.015 799.925,541.054 806.592,545.24C808.641,546.526 801.868,545.718 795.894,548.479C790.685,550.886 783.462,552.517 777.369,555.598C767.707,560.482 759.86,566.682 759.607,567.723C759.267,569.125 771.471,563.439 782.078,560.159C790.008,557.708 797.1,557.55 797.1,557.55L781.497,564.52L769.517,571.833L758.208,583.385C758.208,583.385 765.764,579.436 772.067,577.254C776.74,575.636 780.766,575.623 780.281,575.579C779.808,575.537 773.151,579.853 768.589,585.224C762.167,592.786 757.327,602.179 757.327,602.179L768.585,594.232L778.416,585.607L772.594,599.767L767.953,609.321L769.169,617.387C769.169,617.387 772.173,610.352 775.318,605.756C781.233,597.112 789.118,588.267 788.665,588.88C785.648,592.958 786.074,610.1 788.296,607.147C793.327,596.518 798.194,585.782 806.406,577.221C802.399,590.11 800.45,601.111 802.413,608.524L808.035,602.07C811.285,592.599 814.55,583.148 819.196,575.408C819.948,580.403 819.327,588.627 818.349,597.687C822.307,590.81 826.348,583.23 830.486,574.849C829.626,584.946 829.093,594.142 831.045,596.486L838.254,585.968L845.906,563.463L850.522,556.195C850.647,558.694 850.739,561.199 850.805,563.709C850.94,568.842 848.106,575.95 848.095,581.109C848.089,583.876 848.281,586.772 849.109,588.962C849.558,590.15 850.897,590.46 850.889,591.961L854.014,588.798C856.089,581.783 858.34,575.738 861.308,573.674C862.32,575.184 862.885,580.263 863.359,586.081C867.047,581.594 868.873,575.392 871.589,569.172C873.061,565.8 875.579,562.687 877.008,559.237L874.782,574.234L875.893,582.279L880.406,577.949C882.83,570.777 885.551,564.496 889.275,561.213L888.479,567.948L889.143,574.098L891.867,577.563C896.228,569.393 900.811,562.019 906.248,557.715C903.775,564.099 903.35,568.298 905.173,570.098C910.921,566.711 916.972,559.893 923.034,552.963C917.072,563.192 913.54,571.112 912.941,576.247C916.194,575.699 921.128,571.212 927.358,563.684C926.264,565.568 925.191,567.591 924.183,570.032C922.721,572.992 922.717,575.439 924.312,577.324L924.585,576.94C924.585,576.94 930.972,568.827 932.235,569.039C933.499,569.251 938.712,562.29 944.071,563.605C949.43,564.919 943.885,563.674 943.885,563.674C943.885,563.674 933.47,575.58 934.199,576.972C934.927,578.364 949.914,570.41 951.121,571.571C952.328,572.732 964.541,564.504 964.992,565.928C965.442,567.352 953.495,579.667 951.735,580.529C949.974,581.39 976.973,567.399 976.293,569.519C975.614,571.639 966.525,581.779 966.908,584.233C967.292,586.687 969.687,578.354 983.663,575.879C988.469,575.028 981.403,578.272 979.79,581.446C976.712,587.504 973.91,596.225 973.91,596.225C977.443,596.076 986.392,581.7 990.132,581.751C994.1,581.805 1001.55,579.548 1004.69,582.421C1006.6,584.171 1011.23,584.854 1012.41,587.46C1014.25,591.527 1012.57,597.456 1016.57,597.73L1015.7,584.109L1016.57,597.73"/>
    <path d="M1023.22,597.118C1023.22,597.118 1021.94,592.677 1015.75,589.177C1009.81,585.823 999.027,583.41 994.912,583.134C989.794,582.791 985.327,581.998 980.53,581.356C969.881,579.93 959.514,579.02 959.514,579.02C946.026,578.792 932.513,579.473 918.968,581.292C906.304,582.439 893.803,585.146 881.462,589.377L854.513,599.192C854.513,599.192 844.665,601.462 835.63,604.624C827.751,607.381 820.554,611.045 820.218,611.526C819.316,612.815 810.908,616.202 801.937,621.709C785.913,631.549 766.535,645.563 767.45,648.58C767.735,649.521 765.268,652.203 766.013,652.309C766.715,652.409 770.147,649.455 771.274,648.722C773.993,646.954 776.677,645.288 776.677,645.288L769.226,653.419C757.593,662.272 752.629,670.4 750.139,678.259L765.709,664.597C757.02,676.268 753.208,687.901 752.804,699.509C760.396,686.279 769.18,673.061 779.648,659.858C777.117,669.139 774.907,677.684 772.891,685.782C771.403,688.695 798.585,646.54 798.609,647.078C798.643,647.844 795.933,653.367 793.66,660.221C792.039,665.108 785.582,673.941 784.116,678.948C781.611,687.504 784.624,691.16 785.694,690.276C791.24,677.68 797.7,665.735 805.095,654.456C806.29,657.801 807.257,661.54 807.906,665.827C807.663,670.235 807.979,674.564 809.029,677.606C815.307,664.873 818.281,651.079 822.189,637.584C823.666,646.803 823.493,656.701 823.291,665.103C823.166,666.868 831.398,649.141 831.237,649.471C830.901,650.158 831.678,653.237 831.038,656.364C830.627,658.374 831.518,660.07 831.746,660.993C832.598,664.445 834.418,665.453 835.104,665.265C842.101,656.406 846.145,644.062 850.055,631.561C848.765,641.25 848.434,649.479 851.211,652.972C853.732,645.909 856.993,639.986 860.648,634.67C861.969,641.585 862.708,648.17 862.341,654.13L868.3,645.427L874.77,630.437C874.221,631.054 875.819,648.783 875.662,649.412C875.467,650.194 877.802,646.28 879.311,643.827C882.224,639.091 884.866,632.236 884.647,632.213C885.476,633.876 885.465,636.372 885.666,638.791C890.931,630.178 895.164,619.909 899.614,609.989C898.92,617.404 897.419,626.322 895.47,634.784C899.353,629.387 902.532,623.256 905.286,616.68C906.113,621.062 906.352,625.954 906.048,631.315C911.387,624.205 915.901,616.29 919.664,607.642C920.987,609.575 921.847,612.147 922.15,615.491C923.651,612.908 925.614,610.391 928.457,607.999C929.636,607.137 931.104,606.801 932.861,606.99C933.245,610.422 931.567,614.932 931.342,618.225C931.124,621.43 932.371,623.421 931.95,626.58C934.285,620.768 937.329,613.041 941.781,605.621C942.719,605.26 943.787,605.184 945.142,605.736C945.325,607.671 945.093,609.881 944.446,612.366C946.237,609.387 948.376,606.826 950.927,604.759C951.37,604.146 957.265,623.23 955.965,624.594C954.955,625.654 965.893,608.651 965.893,608.651L1023.22,597.118Z"/>
    <path d="M1023.06,599.7C1022.94,599.603 1017.95,609.115 1015.98,617.384C1014.26,624.637 1015.51,631.626 1015.82,632.482C1016.23,633.639 1012.76,628.862 1009.33,622.912C1005.87,616.914 1002.65,609.006 1002.31,607.953C1002.15,607.437 999.935,615.105 1004.36,627.137C1008.79,639.168 1011,651.672 1009.52,651.705C1008.72,651.723 1006.55,647.552 1004.29,643.807C1002.35,640.594 1000.21,637.744 1000.29,637.556C1000.39,637.311 997.547,632.592 996.157,627.826C995.286,624.838 994.461,621.233 994.465,620.786C994.472,620.02 991.392,618.765 991.882,629.168C992.189,635.67 996.66,645.97 998.794,653.092C1000.07,657.366 999.587,661.797 999.28,661.929C998.088,662.44 997.969,661.034 997.381,659.691C996.497,657.672 994.503,655.021 994.023,654.602C993.225,653.905 995.363,662.32 996.014,663.283C996.665,664.246 997.092,671.384 996.106,671.534C995.489,671.628 992.382,667.709 989.773,663.123C988.207,660.372 987.121,656.944 986.02,655.222C985.189,653.921 986.746,659.698 987.464,664.739C987.963,668.238 987.759,672.226 987.309,672.649C986.738,673.183 980.655,662.407 980.038,661.874C979.42,661.341 971.391,648.94 970.753,648.243C970.488,647.954 970.467,654.605 972.701,658.068C974.047,660.154 977.627,668.704 979.065,675.157C980.014,679.414 979.216,682.763 979.127,682.729C978.655,682.547 977.664,681.142 976.474,679.721C971.978,674.355 963.947,662.29 964.085,661.731C964.26,661.025 962.907,664.693 964.711,669.706C966.515,674.718 971.457,682.283 972.576,685.301C973.141,686.825 973.414,694.296 974.645,699.828C975.554,703.911 976.467,706.601 975.928,707.511C975.577,708.104 973.069,706.677 970.317,702.822C967.524,698.911 964.649,692.448 962.174,687.986C960.004,684.072 958.051,681.926 957.965,681.306C957.896,680.812 958.08,683.718 959.128,687.889C960.239,692.309 962.725,698.206 964.03,702.914C965.317,707.558 964.565,711.671 964.565,711.671L960.422,707.777L954.007,698.661L948.597,687.95L944.395,680.583C942.821,678.423 941.178,676.817 939.473,675.714C937.657,676.422 938.556,682.701 939.212,683.606C939.359,683.81 939.822,686.264 940.625,688.001C943.105,693.369 947.868,702.502 947.868,702.502C952.54,709.83 956.777,716.89 960.134,722.454C960.762,724.292 961.098,725.661 961.262,726.754L960.895,731.688C954.051,727.122 947.52,714.551 941.221,704.236C940.764,705.139 940.634,706.276 940.979,707.754C941.554,709.94 942.208,711.944 942.792,713.793C943.295,715.387 943.716,716.874 944.348,718.161C944.875,721.85 944.218,723.876 943.48,725.79C943.48,725.79 941.782,724.598 940.395,721.769C938.479,717.859 936.941,712.223 936.48,712.513C935.446,713.164 935.108,717.367 935.62,717.532C936.73,722.411 938.473,727.078 940.639,730.971C941.142,733.184 941.123,735.252 940.584,737.174C937.706,736.3 935.861,733.118 934.187,729.553C932.154,723.857 929.999,718.533 927.199,715.179C926.29,718.19 926.189,720.767 926.564,723.088C927.454,727.584 927.7,730.573 927.602,732.758C926.642,733.777 924.389,730.249 921.551,724.88C921.339,733.544 920.811,741.154 920.14,748.081C917.423,746.442 915.003,743.209 912.92,738.161C911.075,734.452 910.598,728.684 909.962,722.784C910.592,715.917 911.233,710.828 913.328,706.924C912.393,706.333 912.479,705.94 912.375,706.635C912.375,706.635 911.438,708.47 910.149,710.675C908.711,713.134 907.336,716.626 907.007,717.358C906.589,718.288 904.704,722.027 903.562,725.107C902.756,727.285 902.568,729.218 902.444,729.228C902.025,729.259 898.955,723.215 899.966,716.534C900.978,709.852 912.294,693.542 911.051,693.492C909.808,693.441 894.603,711.46 894.152,713.233C893.701,715.006 893.487,709.827 894.352,708.727C895.217,707.628 895.349,704.956 899.124,701.062C902.898,697.167 890.388,706.254 890.377,707.447C890.365,708.639 891.071,699.61 892.135,699.227C893.199,698.843 897.611,690.358 903.969,686.864C910.327,683.371 927.158,669.584 926.247,669.302C925.93,669.203 921.959,670.25 916.902,672.891C907.417,677.846 893.87,686.535 891.748,690.593C888.495,696.814 895.126,681.57 895.978,680.93C898.304,679.181 913.022,666.528 917.773,665.01C918.504,664.776 900.37,668.533 898.395,672.072C897.661,673.386 888.749,675.347 888.677,674.867C888.485,673.601 892.697,670.453 892.697,670.453L887.987,670.678C887.561,670.513 897.585,662.84 898.481,662.258C900.358,661.037 922.832,648.843 923.125,648.676C924.091,648.123 909.769,651.033 907.495,653.344C907.09,653.756 886.424,661.073 886.276,661.947C886.188,662.467 884.865,658.713 894.716,653.974C904.485,649.274 916.523,646.282 916.224,644.978C915.998,643.997 896.818,649.37 896.1,650.036C895.383,650.702 883.989,653.755 884.077,654.561C884.165,655.366 890.488,647.644 897.473,644.753C904.5,641.845 927.257,631.288 928.545,632.551C928.979,632.975 944.704,624.901 945.148,625.817C945.401,626.336 928.348,625.963 922.4,629.989C916.453,634.015 890.489,641.609 890.222,641.029C889.955,640.448 907.366,631.392 906.686,630.923C906.375,630.709 926.267,622.416 926.209,622.142C926.097,621.605 910.861,624.47 908.522,626.872C906.182,629.273 894.48,631.599 893.625,631.782C892.77,631.964 904.7,624.109 904.7,624.109L923.399,616.704C923.399,616.704 952.555,611.426 952.991,610.897C953.984,609.693 917.012,613.927 916.7,614.89C921.163,613.01 924.574,610.365 929.315,608.96C937.571,606.513 947.436,605.785 956.504,604.731L950.211,600.541L943.705,592.59C944.804,593.06 946.007,593.35 947.594,592.989C948.302,593.42 963.145,601.178 964.118,600.398C964.346,598.917 950.054,589.514 949.529,588.048C958.009,587.93 966.087,590.031 974.188,592.004L1023.06,599.7Z"/>
    <path d="M1014.54,584.844C1014.54,584.844 949.492,501.922 947.39,505.434C945.288,508.946 951.82,508.172 950.418,511.627C949.017,515.081 925.246,489.195 925.088,490.047C924.931,490.9 912.001,477.042 909.846,481.65C907.69,486.257 928.694,498.389 928.455,499.984C928.217,501.579 910.464,488.479 910.248,487.431C910.033,486.382 885.755,475.365 884.651,477.132C883.546,478.898 903.311,487.898 901.252,490.744C899.194,493.589 879.591,479.7 878.115,480.641C876.638,481.581 859.375,473.352 858.581,476.036C858.249,477.157 863.263,478.111 868.731,480.142C874.05,482.119 879.783,485.157 882.631,487.34C883.864,488.286 885.137,488.742 884.778,489.695C884.214,491.195 882.822,489.175 880.115,488.553C873.042,486.93 861.009,483.045 861.009,483.045C861.009,483.045 837.933,479.806 826.437,478.676C822.866,478.324 820.034,477.101 819.755,478.034C819.31,479.519 826.264,481.642 826.264,481.642C826.264,481.642 836.403,483.815 836.141,484.335C835.88,484.854 819.468,484.124 818.62,484.128C817.773,484.132 761.293,486.517 761.224,489.328C761.155,492.139 812.014,488.806 811.819,489.655C811.624,490.503 791.753,493.677 791.147,494.671C790.541,495.666 833.333,492.019 833.173,492.674C833.013,493.33 779.48,508.553 779.215,510.276C778.949,511.999 798.971,509.984 799.549,509.111C800.127,508.238 814.221,506.125 814.32,506.263C814.418,506.401 808.891,510.174 809.46,511.889C810.029,513.603 824.356,508.55 824.23,508.095C824.104,507.64 855.43,498.938 855.664,500.328C855.898,501.717 837.736,505.405 837.45,506.408C837.164,507.411 822.056,511.836 822.455,514.322C822.855,516.807 838.803,510.766 839.302,510.44C839.8,510.115 892.994,497.594 892.551,500.215C892.108,502.836 849.007,514.507 848.969,518.028C848.93,521.55 856.401,516.914 855.96,517.784C855.519,518.654 832.264,529.289 832.514,530.468C832.765,531.647 856.849,520.48 856.924,522.197C856.998,523.913 880.568,512.154 884.008,513.044C887.449,513.935 896.223,510.997 896.693,511.394C897.163,511.791 851.774,526.502 853.243,530.975C854.712,535.447 866.964,524.88 867.222,526.142C867.48,527.404 897.602,514.121 899.009,516.773C900.416,519.426 860.117,535.231 860.082,536.885C860.047,538.54 879.716,531.362 879.332,532.492C878.948,533.623 876.157,540.499 876.521,541.503C876.657,541.876 878.9,539.015 882.239,536.47C887.874,532.174 893.836,528.746 895.734,528.647C898.048,528.527 925.305,518.429 930.849,521.33C934.407,523.192 905.498,525.173 899.933,534.514C895.859,538.588 904.087,532.854 912.64,530.329C925.277,526.598 941.349,524.247 941.69,525.068C942.261,526.447 905.276,536.429 905.266,541.464C905.262,543.094 908.666,540.906 912.889,539.67C921.711,537.088 935.062,532.631 935.093,533.527C935.138,534.85 925.9,540.3 925.968,541.582C926.037,542.864 945.857,534.406 946.563,534.927C947.269,535.448 935.338,548.49 937.286,550.42C939.234,552.351 953.105,539.401 953.359,541.193C953.612,542.984 1014.54,584.844 1014.54,584.844Z"/>
    <path d="M1016.88,588.669C1016.88,588.669 1014.47,572.052 1015.37,571.212C1016.26,570.372 1015.63,555.335 1013.71,553.675C1011.8,552.014 1011.8,528.09 1011.24,530.619C1010.69,533.149 1012.68,526.708 1006.92,530.334C1001.15,533.96 1007.22,519.973 1007.22,519.973C1007.22,519.973 1003.67,521.371 1002.36,524.521C1001.05,527.672 1004.82,513.922 1004.4,512.784C1003.99,511.647 1002.56,502.563 1004.19,503.403C1005.82,504.243 998.148,510.582 997.825,512.838C997.501,515.095 1000.64,488.015 997.905,489.232C995.169,490.449 994.602,505.853 992.654,505.301C990.706,504.75 991.643,498.702 992.037,498.531C992.43,498.36 993.217,496.401 993.635,495.961C994.053,495.52 988.494,468.313 987.267,469.593C986.04,470.874 987.665,482.512 986.447,483.336C985.229,484.16 985.161,478.062 984.029,478.424C982.896,478.785 984.475,488.179 983.077,488.249C981.679,488.319 981.134,477.194 980.443,477.533C979.752,477.872 978.429,462.453 976.877,463.293C975.325,464.133 975.551,465.46 975.42,468.167C975.289,470.874 976.329,481.847 976.469,483.714C976.608,485.58 972.844,477.644 973.255,474.817C973.667,471.989 967.99,461.356 967.828,460.95C967.667,460.544 961.699,449.319 962.052,449.03C962.404,448.741 960.728,448.081 959.779,452.304C958.829,456.527 964.345,460.453 963.661,462.439C962.977,464.424 969.261,472.535 967.587,473.912C965.914,475.29 966.209,470.177 964.359,468.225C962.508,466.272 956.268,451.362 956.227,452.5C956.144,454.825 956.391,462.509 955.978,462.573C954.513,462.801 952.179,454.638 952.179,454.638L951.016,447.316C949.008,441.81 946.603,437.338 943.456,434.802L941.88,438.693C941.88,438.693 943.302,443.91 942.632,445.003C941.961,446.097 939.142,442.577 938.949,441.652C938.755,440.726 929.649,425.61 928.167,426.086C926.686,426.563 929.329,435.732 929.816,435.972C930.302,436.212 920.94,426.164 919.318,426.512C917.696,426.859 912.413,420.103 911.319,420.932C910.224,421.761 906.304,419.978 906.697,421.232C907.09,422.487 915.93,428.888 916.22,430.131C916.509,431.373 931.135,443.232 929.593,445.036C928.051,446.841 924.549,442.058 922.893,440.933C921.237,439.809 911.01,434.993 910.599,435.353C910.188,435.713 922.488,446.955 921.731,447.778C920.974,448.601 937.01,456.487 936.965,457.352C936.921,458.216 924.928,453.694 924.356,453.256C923.784,452.818 912.33,448.172 911.918,449.017C911.507,449.863 925.22,457.88 925.597,456.698C925.974,455.515 943.302,467.821 943.155,468.274C943.007,468.727 933.469,466.371 932.712,465.562C931.956,464.752 919.523,460.121 919.147,460.753C918.771,461.385 927.855,469.533 927.853,469.157C927.851,468.782 946.349,477.333 945.887,478.003C945.425,478.673 935.95,477.628 935.818,478.501C935.685,479.373 941.383,482.568 940.955,483.159C940.527,483.75 955.776,493.551 956.043,493.21C956.31,492.868 941.674,490.453 941.238,491.167C940.802,491.882 950.74,497.218 951.161,497.002C951.583,496.787 958.124,499.923 958.678,499.913C959.63,499.896 937.017,495.2 936.504,496.341C935.991,497.481 942.638,500.614 943.03,501.047C943.422,501.48 957.408,503.923 957.97,505.139C958.532,506.355 967.593,507.531 967.771,508.415C967.95,509.298 951.166,507.082 951.371,506.737C951.577,506.393 964.805,511.472 964.668,511.984C964.531,512.497 949.422,509.998 949.115,510.977C948.808,511.956 961.237,514.955 961.155,516.041C961.073,517.127 976.503,518.05 982.943,526.766C984.227,528.504 984.029,528.938 983.08,528.423C980.697,527.13 962.461,520.243 960.018,524.695C959.666,525.884 965.907,525.888 971.661,528.902C980.87,533.727 991.411,541.95 991.105,542.602C990.607,543.662 974.21,534.439 973.655,534.73C973.1,535.021 981.459,540.314 981.899,541.151C982.34,541.988 987.622,545.753 988.599,546.037C989.576,546.321 1000.78,550.369 1000.76,551.393C1000.73,552.418 988.576,548.702 988.077,549.898C987.578,551.094 994.956,556.842 993.552,558.775C992.149,560.708 1016.88,588.669 1016.88,588.669Z"/>
    <path d="M1020.29,587.483L1022.85,583.672L1028.59,585.362C1028.59,585.362 1033.43,591.943 1035.47,593.053C1037.51,594.163 1034.09,580.318 1034.95,580.39C1035.81,580.462 1046.88,592.178 1049.23,592.989C1051.57,593.799 1042.77,578.197 1044.2,578.299C1045.63,578.401 1069.16,583.319 1069.15,584.861C1069.15,586.403 1056.99,575.476 1057.43,574.211C1057.88,572.945 1070.54,571.308 1072.09,573.824C1073.64,576.34 1069.16,567.08 1067.64,567.163C1066.12,567.247 1084.24,572.46 1085.55,572.278C1086.86,572.096 1076.27,566.192 1076.69,564.219C1076.93,563.097 1094.32,567.194 1094.65,569.16C1094.98,571.127 1082.98,559.184 1082.98,559.184C1082.98,559.184 1086.13,556.744 1088.13,558.54C1090.13,560.336 1108.04,568.649 1108.91,570.251C1109.77,571.854 1089.23,551.416 1090.46,549.613C1091.44,548.174 1121.17,572.544 1125.96,572.199C1130.75,571.854 1118.36,558.714 1120.92,559.04C1123.47,559.366 1145.21,572.544 1147.01,573.472C1148.81,574.4 1124.17,544.331 1125.64,543.786C1127.11,543.24 1158.44,571.809 1160.11,571.892C1161.79,571.975 1139.53,544.384 1140.65,542.418C1141.78,540.451 1173.87,569.656 1176.62,569.482C1179.37,569.308 1175.89,553.531 1177.87,553.841C1179.85,554.152 1191.66,568.27 1193.64,568.546C1195.61,568.823 1170.85,535.909 1172.89,536.463C1174.94,537.017 1204.81,564.224 1205.71,564.785C1207.92,566.165 1200.87,547.176 1198.12,544.467C1196.25,542.62 1217.22,554.94 1216.55,558.564C1215.88,562.188 1224.88,549.735 1218.95,548.035C1213.02,546.334 1148.46,525.552 1147.84,525.489C1146.6,525.364 1165.74,523.85 1168.75,525.857C1171.75,527.864 1134.91,513.961 1111.57,517.399C1088.23,520.836 1157.99,505.282 1156.45,506.015C1154.9,506.748 1119.37,505.524 1118.24,506.737C1117.11,507.95 1162.52,492.644 1163.44,490.375C1163.82,489.442 1111.41,501.797 1110.86,498.662C1110.62,497.324 1167.04,481.975 1166.57,481.582C1165.03,480.293 1162.49,480.73 1162.49,480.73L1171.8,477.603C1171.8,477.603 1141.21,480.028 1131.61,482.748C1122.01,485.468 1168.86,472.144 1168.16,471.45C1167.27,470.568 1141.65,476.96 1135.49,477.271C1130.11,477.542 1192.23,458.044 1191.83,456.892C1190.86,454.117 1161.65,460.282 1129.66,473.982C1095.33,488.685 1057.86,511.556 1050.02,525.85C1040.56,543.09 1020.29,587.483 1020.29,587.483Z"/>
    <path d="M1017.41,579.653L1019.42,568.137C1019.42,568.137 1015.5,560.326 1016.25,557.885C1016.99,555.445 1018.23,547.944 1018.03,544.899C1017.83,541.855 1012.25,520.143 1013.63,517.722C1015,515.301 1014.77,507.222 1014.98,505.086C1015.08,503.972 1016.16,501.824 1016.16,501.824C1016.76,499.838 1023.73,517.681 1022.73,518.612C1021.93,518.504 1024.99,519.259 1024.93,517.868C1024.86,516.476 1018.85,495.62 1019.21,494.508C1019.71,492.989 1016.84,480.898 1021.09,478.851C1024.07,477.416 1024.25,492.79 1025.34,494.571C1026.43,496.353 1025.59,497.525 1026.45,496.569C1027.33,495.614 1027.63,481.815 1027.3,481.346C1026.97,480.877 1025.06,470.47 1025.16,469.515C1025.27,468.56 1026.05,454.397 1026.62,454.866C1027.18,455.335 1025.62,454.167 1028.22,454.991C1030.83,455.814 1031.17,468.756 1031.66,469.187C1032.15,469.618 1032.74,476.033 1033.27,476.594C1033.8,477.155 1034.17,475.413 1034.34,473.961C1034.52,472.508 1033.15,467.911 1033.69,467.426C1034.24,466.941 1035.02,452.223 1035.02,452.223C1035.02,452.223 1038.92,445.831 1039.71,445.776C1040.5,445.72 1041.74,445.966 1041.9,446.85C1042.06,447.733 1040.24,466.346 1040.44,467.151C1040.64,467.957 1041.91,469.804 1042.38,469.444C1042.85,469.085 1044.28,464.599 1043.89,463.899C1043.49,463.2 1044.58,452.186 1045.05,452.428C1045.53,452.671 1047.8,461.654 1046.87,463.294C1045.93,464.935 1049.24,462.851 1049.45,461.805C1049.65,460.758 1051.29,444.054 1052.14,444.273C1053,444.493 1057.87,433.626 1060.32,434.545C1062.77,435.464 1060.77,438.028 1060.88,437.578C1060.98,437.129 1058.58,441.966 1058.68,442.503C1058.78,443.039 1056.68,452.279 1056.94,452.549C1057.2,452.82 1057.95,453.347 1058.3,452.669C1058.64,451.992 1060.4,446.08 1061.22,444.37C1062.05,442.659 1066.27,434.032 1067.05,434.176C1067.84,434.319 1070.29,429.924 1070.52,429.505C1070.74,429.086 1072.05,428.298 1072.13,429.148C1072.22,429.998 1071.38,444.338 1070.44,444.288C1069.5,444.238 1073.71,442.371 1074.31,441.311C1074.92,440.252 1082.77,432.288 1083.38,431.874C1084,431.46 1091.91,426.215 1092.27,426.377C1092.63,426.538 1101.86,422.225 1102.12,422.823C1102.37,423.422 1100.26,425.043 1099.64,425.698C1099.02,426.353 1091.38,431.963 1091.82,432.932C1092.27,433.901 1086.51,438.03 1087.21,438.544C1087.92,439.058 1093.07,437.254 1093.88,436.381C1094.69,435.508 1101.37,433.033 1101.37,432.171C1101.36,431.394 1116.76,427.644 1118.95,427.616C1119.07,427.615 1129.96,426.181 1130.5,426.468C1130.54,426.488 1096.84,441.428 1093.67,444.551C1090.51,447.673 1105.23,442.559 1105.75,442.99C1106.27,443.421 1123.15,441.322 1122.55,442.771C1121.94,444.22 1093.95,448.637 1093.27,449.803C1092.6,450.969 1107.45,448.407 1108.21,449.295C1108.98,450.183 1101.49,451.797 1100.74,452.752C1099.99,453.707 1119.33,453.054 1119.16,454.003C1119,454.953 1097.32,456.519 1096.7,457.742C1096.09,458.966 1079.35,458.66 1079.3,459.52C1079.25,460.379 1107.22,459.557 1107.03,460.932C1106.84,462.308 1099.6,462.697 1098.85,463.09C1098.09,463.483 1085.86,463.467 1085.49,463.547C1085.12,463.628 1075.67,464.34 1075.6,465.214C1075.53,466.088 1086.34,464.195 1087.01,464.733C1087.68,465.27 1099.8,465.036 1099.25,466.266C1098.71,467.495 1094.42,466.064 1094.07,466.522C1093.73,466.98 1082.78,468.837 1082.34,469.427C1081.91,470.017 1071.49,468.005 1069.07,470.992C1066.65,473.979 1078.09,470.715 1078.54,471.784C1079,472.854 1089.87,471.526 1089.74,472.636C1089.62,473.745 1075.46,473.181 1075.31,474.008C1075.15,474.835 1098.27,475.46 1098,476.015C1097.74,476.571 1088.91,477.679 1088.07,478.345C1087.23,479.011 1077.31,479.763 1077.31,479.763C1077.31,479.763 1058.81,481.259 1058.58,482.213C1058.35,483.166 1073.55,481.247 1073.44,481.732C1073.34,482.217 1085.05,482.051 1084.67,482.739C1084.29,483.426 1072.15,483.613 1071.52,484.141C1070.9,484.669 1059.38,486.066 1058.88,487.001C1058.38,487.936 1070.57,487.136 1070.1,487.781C1069.63,488.427 1080,487.226 1079.75,487.97C1079.5,488.714 1077.58,489.599 1077.11,489.755C1076.64,489.91 1076.49,489.741 1074.79,490.473C1073.09,491.205 1068.89,490.919 1068.02,491.617C1067.15,492.316 1072.93,492.277 1073.04,492.85C1073.16,493.423 1070.46,494.963 1069.8,495.032C1069.14,495.102 1062.13,495.012 1061.23,495.177C1060.34,495.341 1052.28,496.455 1052.15,497.635C1052.03,498.814 1058.5,498.337 1058.98,498.234C1059.45,498.131 1071.79,497.733 1072.23,498.498C1072.66,499.262 1062.09,503.234 1061.8,504.001C1061.5,504.767 1065.41,504.682 1065.35,505.493C1065.3,506.304 1047.66,509.922 1046.88,510.613C1046.1,511.304 1063.53,510.153 1063.44,510.951C1063.36,511.749 1051.81,514.229 1051.53,514.813C1051.25,515.396 1067.47,517.023 1067.41,518.079C1067.36,519.134 1055.03,520.097 1054.44,520.32C1053.85,520.543 1044.99,524.787 1044.55,525.262C1044.11,525.737 1060.23,527.288 1060.97,528.391C1061.72,529.494 1045.1,531.41 1044.33,532.95C1043.55,534.49 1047.02,534.767 1049.34,536.445C1051.67,538.123 1042.85,536.161 1042.97,537.455C1043.1,538.748 1054.61,545.113 1055.07,547.096C1055.53,549.08 1050.81,548.161 1050.5,548.762C1050.19,549.364 1051.33,554.831 1053.12,556.213C1054.9,557.595 1037.83,553.788 1039.1,555.436C1040.37,557.084 1017.76,578.562 1017.41,579.653Z"/>
    <path d="M1014,596.672C1014,596.672 1118.71,581.513 1156.81,586.364C1194.91,591.215 1248.51,598.969 1244.77,601.335C1241.88,603.164 1221.05,597.297 1218.35,600.215C1217.16,601.499 1226.51,601.545 1234.55,603.435C1242.37,605.274 1249.15,607.921 1249,609.02C1248.89,609.829 1259.01,610.229 1259.01,610.229C1264.33,612.23 1267.86,614.939 1271.08,617.766C1275.13,618.788 1277.48,620.92 1280.16,622.615C1279.88,623.48 1265.77,617.541 1260.53,617.138C1255.14,616.725 1253.4,614.64 1263.71,621.457C1271.25,626.44 1279.85,630.754 1285.04,634.829C1286.95,636.33 1292.11,640.006 1292.84,641.521C1294.51,645.018 1292.54,644.447 1292.54,644.447L1276.64,635.447C1275.09,634.211 1286.26,645.344 1285.46,645.056C1284.53,644.721 1287.68,646.901 1289.86,649.497C1292.04,652.093 1293.25,655.104 1293.25,655.104C1294.12,657.383 1293.66,658.912 1291.58,659.536C1284.75,652.868 1282.68,651.778 1279.69,650.429L1268.8,641.518C1263.81,636.391 1259.86,631.765 1257.87,628.076C1252.13,622.951 1249.04,620.177 1247.69,619.528C1248.19,622.272 1249.16,625.253 1251.41,628.892L1259.11,637.039C1261.77,640.203 1264.14,645.284 1265.47,648.636C1263.9,648.175 1261.9,646.121 1260.02,644.947C1255.49,639.702 1252.66,637.893 1250.38,636.751L1243.13,627.885L1237.11,619.102C1237.11,619.102 1233.12,614.398 1232.48,614.403C1231.84,614.408 1231.72,615.107 1231.72,615.107L1234.01,617.998L1238.43,625.176C1238.43,625.176 1243.77,632.679 1243.8,633.298C1243.82,633.917 1247.59,639.735 1247.59,639.735L1250.81,645.296L1253.41,650.842L1256.29,657.063L1255.12,657.077L1252.04,654.838L1249.34,651.922L1246.48,647.183L1243.65,640.547L1237.37,632.862L1228.72,622.8L1215.76,608.271L1213.85,606.727L1214.48,609.096L1218.64,614.573L1223.7,621.497L1229.61,629.987L1236.78,640.818L1239.71,647.282L1242.36,653.975C1242.36,653.975 1239.24,653.364 1237.94,651.593C1236.65,649.822 1231.97,643.369 1231.97,643.369L1224.43,633.566L1217.73,623.74L1213.08,614.518L1209.85,610.255L1210.14,613.35L1212.59,618.64L1216.27,625.927C1216.27,625.927 1219.88,631.408 1220.35,631.672C1220.82,631.935 1224.48,637.842 1224.48,637.842L1227.61,644.066L1229.59,649.552L1230.11,652.264L1228.49,652.319L1226.42,650.788L1223.76,647.911L1220.62,643.536L1217.72,639.106L1212.58,633.104L1209.27,628.527L1205.87,623.769L1202.97,618.906L1200.2,614.579L1198.08,610.919L1195.39,608.843L1195.06,610.262L1198.26,614.454L1200.68,618.919L1203.41,624.216L1205.57,628.967L1208.48,635.864L1210.27,641.922L1213.2,646.807L1215.74,651.551C1215.74,651.551 1216.78,654.29 1216.61,654.694C1216.44,655.098 1215.03,654.582 1215.03,654.582C1215.03,654.582 1213.43,653.59 1213.09,653.025C1212.75,652.46 1209.78,649.558 1209.78,649.558L1205.62,645.219C1205.62,645.219 1203.16,641.156 1202.71,640.609C1202.25,640.061 1198.92,636.018 1198.92,636.018L1196.61,631.525L1193.65,626.738L1192.44,625.383L1192.22,627.403L1193.48,629.84L1196.95,634.892L1198.88,639.414L1201.69,644.64L1203.78,649.44L1203.88,651.487L1202.14,650.941C1202.14,650.941 1198.82,647.466 1198.71,647.165C1198.6,646.864 1193.55,639.44 1193.4,639.159C1193.26,638.878 1184.8,622.987 1183.92,621.82C1183.05,620.652 1178.4,615.001 1178.12,614.875C1177.84,614.748 1177.41,615.47 1177.42,615.836C1177.43,616.202 1182.47,627.124 1182.77,627.008C1183.06,626.892 1186.35,634.528 1186.35,634.528C1186.35,634.528 1187.71,643.169 1187.66,643.459C1187.61,643.749 1186.68,643.399 1186.01,642.734C1185.34,642.069 1184.24,639.913 1184.24,639.913L1181.09,633.243C1181.09,633.243 1178.05,628.463 1177.85,628.151C1177.65,627.84 1175.94,627.343 1175.94,627.343L1176.86,629.644L1178.57,632.998L1180.11,638.018L1179.51,641.68L1178.31,641.7C1178.31,641.7 1177.21,640.64 1177.07,640.383C1176.92,640.126 1174.89,638.038 1174.81,637.326C1174.72,636.613 1172.17,632.352 1172,632.107C1171.83,631.862 1168.04,627.115 1168.04,627.115L1164.97,622.679L1162.49,619.329C1162.49,619.329 1159.1,613.91 1158.76,613.424C1158.41,612.938 1154.18,607.138 1154.18,607.138L1150.98,603.791L1152.27,607.329L1155.72,613.078L1158.32,618.329L1160.08,623.524L1160.87,627.475L1160.99,630.395L1158.76,631.726L1157.09,630.184L1157.67,627.354L1156.73,625.227L1155.5,623.065L1153.62,619.51L1150.75,615.597L1148.49,612.339L1145.87,610.561L1146.63,613.025L1147.89,616.066L1148.17,622.386L1145.72,622.982L1143.6,619.789C1143.6,619.789 1142.38,617.31 1141.88,616.397C1141.38,615.483 1138.74,613.51 1138.74,613.51L1136.15,612.015C1136.15,612.015 1015.15,597.08 1014,596.672Z"/>
    <path d="M1086.93,742.697C1086.93,742.697 1104.67,723.315 1105.17,724.78C1105.66,726.245 1092.79,747.916 1094.99,749.881C1097.19,751.846 1107.16,732.661 1108.01,735.075C1108.86,737.489 1101.19,753.36 1102.82,755.025C1104.45,756.69 1110.79,745.473 1110.9,747.622C1111.03,749.771 1106.47,764.594 1113.53,775.237C1115.47,778.154 1115.24,758.16 1115.9,762.139C1116.56,766.118 1121.39,779.664 1122.57,781.194C1123.74,782.724 1124.64,773.572 1124.66,773.261C1124.69,772.95 1129.42,786.227 1130.91,788.022C1132.39,789.816 1132.78,760.804 1133.23,759.914C1133.69,759.025 1135.16,770.55 1136.59,770.669C1138.01,770.788 1138.12,745.386 1137.33,743.73C1136.54,742.073 1139.67,747.922 1140.53,749.365C1141.38,750.808 1141.51,724.823 1129.38,708.149C1117.25,691.475 1135.04,713.492 1135.32,711.479C1135.59,709.465 1120.56,686.869 1121.67,687.788C1122.79,688.707 1127.03,692.077 1127.15,691.345C1127.85,687.018 1125.93,683.422 1125.93,683.422C1123.09,678.157 1119.95,672.876 1116.28,667.57C1116.28,667.57 1102.22,652.91 1099.3,651.578C1096.36,650.238 1052.59,616.971 1052.57,617.053L1037.58,618.894L1037.57,619.035L1047.52,634.31C1047.52,634.31 1043.59,646.277 1042.48,648.508C1041.37,650.74 1043.59,652.894 1043.59,652.894L1053.35,635.206C1053.35,635.206 1044.81,663.518 1048.31,671.742C1049.76,675.138 1056.78,651.284 1058.34,649.737C1059.89,648.19 1065.32,644.016 1065.32,644.016L1060.69,653.745C1060.69,653.745 1046.67,672.531 1050.26,680.429C1051.26,682.626 1064.37,662.284 1064.92,661.606C1067.96,657.863 1057.84,686.962 1058.2,690.511C1058.49,693.376 1077.16,666.552 1077.7,665.805C1081.72,660.159 1073.58,680.939 1071.65,683.816C1071.65,683.816 1064.45,695.195 1064.08,700.256C1063.7,705.316 1084.57,674.257 1084.57,674.257C1082.19,681.586 1078.94,688.582 1075.44,695.479C1075.44,695.479 1065.36,716.715 1066.83,719.358C1068.31,722.001 1084.09,695.626 1083.44,694.622C1085.56,693.659 1084.95,697.59 1080.36,708.674C1080.36,708.674 1073.85,717.919 1075.86,720.978C1077.87,724.037 1082.47,715.286 1082.47,715.286C1082.47,715.286 1089.03,703.559 1089.71,703.148C1090.39,702.737 1084.6,722.676 1084.44,725.549C1084.29,728.422 1089.71,720.907 1095.96,713.703C1097.34,712.113 1082.75,740.412 1085.27,742.884"/>
    <path d="M1028.55,613.921L1049.33,622.835L1055.33,611.31C1055.33,611.31 1058.6,619.773 1059.69,620.472C1060.78,621.172 1061.77,617.39 1063.25,617.198C1064.74,617.006 1067.17,626.725 1068.71,627.646C1070.26,628.567 1071.63,623.991 1072.5,623.154C1073.38,622.318 1076.71,633.319 1078.33,633.755C1079.94,634.191 1079.74,627.864 1080.78,627.382C1081.82,626.901 1088.09,641.078 1089.75,642.061C1091.4,643.044 1091.79,636.222 1092.74,634.321C1093.69,632.421 1094.62,643.422 1095.98,645.003C1097.34,646.585 1097.7,621.38 1099.71,619.974C1101.71,618.568 1101.96,648.994 1103.4,651.956C1104.84,654.917 1104.68,644.776 1106.01,644.066C1107.34,643.356 1106.92,653.056 1108.53,654.872C1110.15,656.688 1113.7,636.027 1114.68,634.224C1115.67,632.421 1115.6,650.029 1116.78,652.317C1117.96,654.605 1123.05,639.665 1122.87,640.401C1121.72,645.058 1123.92,669.07 1126.18,665.691C1127.38,663.907 1128.96,647.907 1131.84,644.798C1134.73,641.69 1129.14,673.691 1132.35,676.49C1135.56,679.289 1141.98,644.994 1142.35,641.644C1142.86,637.081 1145.37,649.992 1143.69,651.998C1143.7,657.786 1142.83,663.452 1141.08,668.997C1140.49,676.051 1141.9,680.043 1144.74,681.837C1144.74,681.837 1144.71,668.952 1145.85,668.863C1146.99,668.773 1148.03,675.564 1148.03,675.564C1148.03,675.564 1147.24,685.636 1147.65,686.796C1148.07,687.955 1149.44,692.257 1150.36,692.053C1151.28,691.849 1153.68,686.059 1153.86,684.774C1154.03,683.489 1154.9,670.937 1154.9,670.937C1154.9,670.937 1155.69,662.972 1156.46,662.723C1157.23,662.475 1155.92,692.694 1157.44,694.075C1158.95,695.456 1160.59,688.549 1161.06,687.594C1161.53,686.638 1161.71,674.539 1161.7,674.061C1161.7,673.583 1162.38,663.581 1163.1,664.144C1163.82,664.708 1165.89,667.578 1165.29,670.724C1164.68,673.869 1162.9,682.942 1162.99,685.649C1163.08,688.356 1161.13,697.45 1162.16,699.402C1163.19,701.354 1164.54,705.037 1166.04,704.827C1167.54,704.618 1167.93,701.855 1168.51,702.091C1169.09,702.328 1169.75,709.853 1170.67,709.99C1171.6,710.128 1172.96,682.701 1174.01,682.97C1175.06,683.24 1183.59,719.19 1185.4,718.673C1187.21,718.156 1186.02,702.124 1186.75,701.562C1187.49,701 1196.43,727.843 1197.46,728.91C1198.48,729.977 1199.9,705.328 1200.67,702.182C1200.77,701.798 1204.58,704.492 1204.6,706.918C1204.62,709.736 1204.91,700.804 1203.62,697.411C1202.33,694.017 1196.59,679.587 1194.95,679.572C1193.32,679.556 1196.92,679.834 1197.43,679.695C1197.93,679.556 1197.21,675.193 1197.21,675.193C1197.21,675.193 1189.22,663.7 1188.05,663.27C1186.88,662.841 1191.42,664.736 1191.42,664.736C1191.42,664.736 1191.7,661.927 1191.21,660.789C1190.73,659.652 1188.54,656.456 1188.54,656.456C1188.54,656.456 1164.92,630.009 1160.52,629.463C1156.13,628.916 1138.23,614.231 1133.53,613.634C1128.82,613.036 1097.5,594.559 1095.45,594.502C1093.39,594.444 1075.8,586.46 1075.8,586.46L1040.88,583.047C1040.88,583.047 1029.5,613.678 1028.55,613.921Z"/>
    <path d="M1032.92,619.75C1032.92,619.75 1089.79,1066.88 1013.08,1165.16C1009.71,1169.47 958.993,1146.56 931.997,1154.28C931.997,1154.28 1064.48,924.188 1005.24,625.594" style="stroke:white;stroke-width:1px;"/>
    <path d="M1018.69,589.485L1097.1,569.91L1152.24,559.143L1196.01,552.954C1196.01,552.954 1225.87,546.796 1227.01,547.644C1228.14,548.493 1245.73,550.503 1246.32,550.232C1246.9,549.961 1236.38,552.494 1236.38,552.494L1243.8,553.343L1259.17,551.603L1274.07,551.364C1274.07,551.364 1270.19,555.163 1267.07,555.164C1263.95,555.164 1257.22,556.054 1257.22,556.054L1272.19,557.471L1288.31,559.592L1298.24,562.121L1296.52,563.436C1296.52,563.436 1290.09,564.005 1289.66,563.827C1289.23,563.649 1279.54,564.346 1279.54,564.346L1277.36,564.808C1277.36,564.808 1281.52,566.123 1281.9,566.059C1282.28,565.995 1291.95,567.725 1292.3,568.174C1292.65,568.623 1304.16,572.609 1304.71,572.45C1305.26,572.291 1311.34,576.418 1311.15,576.782C1310.96,577.146 1309.99,577.651 1309.9,577.562C1309.8,577.472 1302.53,574.527 1301.94,575.103C1301.36,575.68 1289.38,572.687 1288.89,573.2C1288.41,573.713 1280.42,571.23 1280.42,571.23L1271.91,568.441L1271.37,569.362L1274.82,570.995L1283.59,576.332L1290.88,580.654L1296.36,583.903L1299.41,586.655L1297.58,586.806L1293.92,585.39L1288.35,583.886L1284.87,582.555L1279.59,579.982L1275.72,577.891L1271.23,575.476L1268.67,574.054L1265.28,572.651L1265.37,573.923L1267.21,574.988L1269.86,577.305L1271.63,579.171L1272.63,580.505L1276.91,584.069L1282.21,587.577L1286.59,591.474L1288.07,593.04L1287.05,593.384L1285.4,592.239L1282.88,590.985L1278.08,588.783L1274.52,586.743L1269.82,584.634L1266.15,582.744L1260.99,581.05L1258.9,580.841L1256.98,579.774L1254.16,578.06L1251.7,576.364L1248.73,574.883L1247.01,573.878L1245.27,573.191L1243.09,571.802L1241.96,572.245L1242.59,573.616L1243.74,575.105L1246.33,576.637L1250.51,579.108L1254.89,581.657L1258.9,584.435L1263.03,586.606L1267.56,590.267L1270.61,593.174L1272.37,595.962L1271.51,596.528L1270.3,595.515L1267.28,594.724L1262.22,592.521L1258.5,590.836L1251.6,587.752C1251.6,587.752 1244.18,584.695 1243.87,584.443C1243.56,584.191 1237.68,581.01 1237.68,581.01L1233.54,577.958L1229.44,575.403L1225.34,572.359L1220.61,569.733L1219.38,570.238L1221.07,571.607L1224.16,573.779L1227.95,577.016L1231.73,579.957L1236.12,583.961L1239.18,587.272L1242.46,591.129L1242.57,592.843L1241.38,593.218C1241.38,593.218 1238.84,591.604 1238.35,591.59C1237.86,591.576 1234,589.785 1233.62,589.452C1233.25,589.119 1225.39,584.184 1225.39,584.184L1218.93,580.621C1218.93,580.621 1213.29,577.025 1213,576.904C1212.7,576.783 1201.47,569.227 1201.47,569.227C1201.47,569.227 1192.16,564.988 1191.83,565.006C1191.49,565.024 1196.98,569.868 1196.98,569.868L1203.49,576.159L1213.51,585.817L1214.8,588.866L1213.12,589.539L1210.57,587.995L1206.21,585.557L1201.54,582.329L1196.69,578.879L1192.24,575.335L1186.14,571.467L1185.04,571.789L1185.83,572.684L1190.23,575.388L1195.07,579.773L1199.55,583.532L1204.6,587.443L1209.63,591.422L1215.53,596.998L1214.42,597.948L1211.28,596.621L1203.98,591.077C1203.98,591.077 1186.8,579.449 1186.46,579.34C1186.13,579.231 1173.51,570.242 1173.23,570.202C1172.96,570.162 1164.7,566.683 1164.11,566.391C1163.52,566.099 1164.98,567.738 1164.98,567.738L1168.96,570.315L1172.52,572.249L1183.02,579.74L1191.32,585.944C1191.32,585.944 1194.21,588.781 1193.6,588.986C1192.99,589.191 1191.58,588.97 1191.58,588.97L1185.47,584.941L1174.89,578.898L1168,574.791C1168,574.791 1163.51,572.95 1162.83,573.107C1162.15,573.265 1162.61,574.724 1163.28,575.213C1163.95,575.701 1169.86,579.249 1170.1,579.462C1170.34,579.676 1179.39,584.81 1179.49,585.144C1179.59,585.478 1184.82,589.706 1184.66,590.246C1184.49,590.787 1187.87,593.295 1183.68,592.113C1179.5,590.932 1176.67,588.628 1176,588.344C1175.33,588.06 1166.96,583.921 1166.85,583.481C1166.74,583.041 1152.33,576.251 1152.04,576.132C1151.74,576.014 1142.55,572.859 1142.37,573.083C1142.19,573.307 1149.06,580.138 1149.66,580.554C1150.27,580.97 1156.2,591.016 1154.62,592.286C1153.05,593.557 1153.4,592.703 1151.8,591.548C1150.21,590.394 1144.05,584.014 1143.23,584.008C1142.41,584.003 1136.8,582.972 1136.8,582.972C1136.8,582.972 1137.57,593.441 1139.58,594.235C1141.58,595.028 1143.96,598.946 1143.87,599.128C1143.77,599.31 1148.28,605.436 1142.45,601.371C1136.62,597.306 1131.92,595.961 1131.13,594.06C1130.33,592.159 1128.66,584.966 1128.17,584.554C1127.69,584.141 1119.53,579.579 1118.64,580.107C1117.76,580.634 1121.27,589.052 1121.25,589.307C1121.22,589.562 1123.1,598.954 1123.76,599.519C1124.41,600.085 1123.56,601.719 1122.3,600.72C1121.04,599.72 1117.46,590.396 1116.04,589.501C1114.62,588.606 1113.1,582.824 1110.99,582.936C1108.88,583.048 1103.23,580.778 1101.05,581.708C1098.88,582.638 1080.79,584.296 1079.84,584.825C1078.88,585.354 1052.86,589.655 1051.15,590.121C1049.44,590.586 1018.69,589.485 1018.69,589.485Z"/>
    <g transform="matrix(1.23592,-0.507639,0.46078,1.12184,-460.517,243.255)">
        <ellipse cx="717.549" cy="466.927" rx="13.847" ry="13.418"/>
        <g transform="matrix(1,0,0,1,45.0842,-0.478904)">
            <ellipse cx="717.549" cy="466.927" rx="13.847" ry="13.418"/>
        </g>
        <g transform="matrix(0.984842,0,0,1.04912,10.9733,-20.0763)">
            <rect x="723.908" y="408.71" width="7.845" height="57.023"/>
        </g>
        <g transform="matrix(0.984842,0,0,1.04912,55.6995,-18.8003)">
            <rect x="723.908" y="408.71" width="7.845" height="57.023"/>
        </g>
        <path d="M730.896,408.675C730.896,408.675 765.494,411.063 768.731,409.964C769.749,409.618 774.123,417.427 774.123,417.427C773.124,419.726 731.153,418.475 731.698,416.443"/>
    </g>
</svg>
