<?xml version="1.0" encoding="UTF-8" standalone="no"?>
<!-- Created with Inkscape (http://www.inkscape.org/) -->

<svg
   width="210mm"
   height="297mm"
   viewBox="0 0 210 297"
   version="1.1"
   id="svg5"
   xml:space="preserve"
   inkscape:export-filename="bitmap.png"
   inkscape:export-xdpi="96"
   inkscape:export-ydpi="96"
   inkscape:version="1.2 (dc2aeda, 2022-05-15)"
   sodipodi:docname="palm_white.svg"
   xmlns:inkscape="http://www.inkscape.org/namespaces/inkscape"
   xmlns:sodipodi="http://sodipodi.sourceforge.net/DTD/sodipodi-0.dtd"
   xmlns="http://www.w3.org/2000/svg"
   xmlns:svg="http://www.w3.org/2000/svg"><sodipodi:namedview
     id="namedview7"
     pagecolor="#505050"
     bordercolor="#eeeeee"
     borderopacity="1"
     inkscape:showpageshadow="0"
     inkscape:pageopacity="0"
     inkscape:pagecheckerboard="0"
     inkscape:deskcolor="#505050"
     inkscape:document-units="mm"
     showgrid="false"
     inkscape:zoom="0.5286591"
     inkscape:cx="214.69412"
     inkscape:cy="533.42503"
     inkscape:window-width="1390"
     inkscape:window-height="1200"
     inkscape:window-x="0"
     inkscape:window-y="25"
     inkscape:window-maximized="0"
     inkscape:current-layer="layer1" /><defs
     id="defs2">
        
        
        
        
        
    
            
        
            
        </defs><g
     inkscape:label="Layer 1"
     inkscape:groupmode="layer"
     id="layer1"><path
       d="m 130.86248,131.47496 c 0.0563,-0.17648 -1.94637,-5.60678 -8.40104,-9.58585 -1.99982,-1.2327 -4.75783,-2.09391 -7.85169,-2.88634 -2.67418,-0.68501 -5.62365,-1.39277 -8.25763,-1.35282 -1.82185,0.0278 -6.987096,-1.14141 -10.052024,-1.07923 -9.061679,0.18335 -14.18501,1.81239 -14.434803,2.02538 -0.33461,0.28522 4.532555,-1.10939 5.235603,0.12224 0.22528,0.39502 -1.066829,-0.13573 -2.442529,0.12859 -3.907705,0.75089 -11.654231,1.96744 -11.789056,2.81834 -0.242684,1.35784 5.199569,-1.54226 6.833887,-0.43471 0.502283,0.34025 -1.15802,0.12647 -2.622459,0.85699 -1.276911,0.63685 -3.047524,1.06838 -4.541135,1.88356 -2.368498,1.29223 -4.292077,2.93265 -4.354096,3.20808 -0.08335,0.37094 2.908287,-1.13348 5.508439,-2.00131 1.943924,-0.6485 3.682425,-0.6903 3.682425,-0.6903 l -3.824848,1.84415 -2.936724,1.93489 -2.772237,3.05647 c 0,0 1.852244,-1.04484 3.397333,-1.62216 1.145518,-0.4281 2.132433,-0.43153 2.013542,-0.44318 -0.115949,-0.0111 -1.747816,1.13083 -2.866123,2.55191 -1.57426,2.00078 -2.760716,4.48601 -2.760716,4.48601 l 2.759735,-2.10264 2.409927,-2.28203 -1.427179,3.7465 -1.137674,2.52782 0.298085,2.13413 c 0,0 0.736387,-1.86134 1.507338,-3.07737 1.449977,-2.28705 3.38287,-4.62729 3.271823,-4.4651 -0.739573,1.07897 -0.635145,5.61445 -0.09045,4.83314 1.233276,-2.81226 2.426351,-5.65282 4.439403,-7.91792 -0.982258,3.41021 -1.460028,6.3209 -0.978826,8.28225 l 1.378151,-1.70762 c 0.796691,-2.50587 1.597058,-5.00645 2.735958,-7.05432 0.184341,1.32159 0.03211,3.49753 -0.20763,5.89465 0.970246,-1.81954 1.960839,-3.82508 2.975209,-6.04255 -0.210816,2.6715 -0.341473,5.1046 0.13703,5.72479 l 1.767183,-2.78289 1.875776,-5.95445 1.131546,-1.92299 c 0.03064,0.66119 0.05319,1.32398 0.06938,1.98808 0.03309,1.35811 -0.661621,3.23876 -0.664318,4.60375 -0.0015,0.7321 0.04559,1.49833 0.248568,2.07777 0.110066,0.31433 0.438302,0.39635 0.436341,0.79349 l 0.766048,-0.83688 c 0.508656,-1.85605 1.060456,-3.45546 1.788019,-4.00156 0.248077,0.39952 0.386578,1.74334 0.502772,3.28269 0.90406,-1.18719 1.351678,-2.82813 2.017465,-4.47384 0.36084,-0.89218 0.97809,-1.71582 1.328389,-2.62864 l -0.545671,3.96796 0.272346,2.12857 1.106296,-1.14564 c 0.594208,-1.8976 1.261221,-3.55944 2.174107,-4.42807 l -0.195129,1.78197 0.162771,1.62719 0.667752,0.91678 c 1.06904,-2.16165 2.19248,-4.11269 3.52528,-5.25145 -0.60621,1.6891 -0.7104,2.80008 -0.26351,3.27633 1.40903,-0.89614 2.89235,-2.70007 4.37836,-4.53363 -1.4615,2.70642 -2.32731,4.80192 -2.47415,6.16056 0.79742,-0.145 2.00692,-1.33218 3.53412,-3.32397 -0.26819,0.49848 -0.53121,1.03373 -0.7783,1.67958 -0.3584,0.78317 -0.35937,1.4306 0.0316,1.92934 l 0.0669,-0.1016 c 0,0 1.56568,-2.14656 1.87529,-2.09047 0.30984,0.0561 1.58774,-1.78567 2.90142,-1.43775 1.31368,0.34767 -0.0456,0.0183 -0.0456,0.0183 0,0 -2.55309,3.15013 -2.37439,3.51843 0.17846,0.3683 3.85231,-1.7362 4.14818,-1.42902 0.29588,0.30718 3.28972,-1.86981 3.40028,-1.49304 0.11031,0.37677 -2.81833,3.63511 -3.24976,3.86318 -0.43169,0.22781 6.18673,-3.47398 6.02003,-2.91306 -0.16644,0.56092 -2.39448,3.24379 -2.30059,3.89308 0.0941,0.64929 0.68123,-1.55549 4.10724,-2.21033 1.17812,-0.22516 -0.55401,0.63315 -0.94941,1.47293 -0.75453,1.60285 -1.44139,3.91028 -1.44139,3.91028 0.86606,-0.0394 3.05978,-3.84307 3.97658,-3.82958 0.9727,0.0143 2.79896,-0.58288 3.56869,0.17727 0.46821,0.46302 1.60318,0.64373 1.89244,1.33324 0.45105,1.07606 0.0392,2.64477 1.01977,2.71727 l -0.21327,-3.60389 0.21327,3.60389"
       id="path9"
       style="clip-rule:evenodd;fill:#ffffff;fill-opacity:1;fill-rule:evenodd;stroke-width:0.254674;stroke-linecap:round;stroke-linejoin:round;stroke-miterlimit:1.5" /><path
       d="m 132.93573,134.95661 c 0,0 -0.26822,-1.17501 -1.56535,-2.10105 -1.24475,-0.88741 -3.50435,-1.52585 -4.36665,-1.59888 -1.07249,-0.0907 -2.00856,-0.30057 -3.01378,-0.47043 -2.23152,-0.37729 -4.40395,-0.61807 -4.40395,-0.61807 -2.82644,-0.0603 -5.65812,0.11986 -8.49651,0.60114 -2.65376,0.30348 -5.27337,1.0197 -7.85945,2.13915 l -5.647231,2.59689 c 0,0 -2.06367,0.6006 -3.956975,1.43722 -1.651061,0.72945 -3.159208,1.69889 -3.229618,1.82615 -0.189016,0.34105 -1.950931,1.23719 -3.830825,2.69425 -3.357864,2.6035 -7.418567,6.31137 -7.226827,7.10962 0.05972,0.24897 -0.457243,0.95859 -0.301127,0.98663 0.147106,0.0265 0.866289,-0.75512 1.102454,-0.94906 0.569773,-0.46778 1.132211,-0.90858 1.132211,-0.90858 l -1.561373,2.15133 c -2.437721,2.34236 -3.477938,4.49289 -3.999723,6.57225 l 3.262728,-3.61474 c -1.8208,3.08795 -2.619612,6.16585 -2.704272,9.23714 1.590921,-3.50044 3.431627,-6.9977 5.62522,-10.491 -0.530376,2.4556 -0.993486,4.71646 -1.415944,6.85906 -0.311813,0.77073 5.384234,-10.38278 5.389265,-10.24043 0.0071,0.20267 -0.560763,1.66396 -1.037075,3.47742 -0.339685,1.29301 -1.692762,3.63008 -1.999967,4.95485 -0.524928,2.26377 0.106453,3.23109 0.330674,2.9972 1.162177,-3.33269 2.515884,-6.49314 4.065522,-9.47738 0.250415,0.88503 0.453052,1.87431 0.589052,3.00858 -0.05092,1.16628 0.0153,2.31166 0.235327,3.11653 1.315569,-3.36894 1.938777,-7.01861 2.757708,-10.58916 0.309508,2.4392 0.273255,5.05804 0.230926,7.28107 -0.02619,0.46699 1.698839,-4.22328 1.665101,-4.13597 -0.07041,0.18177 0.09241,0.99643 -0.0417,1.82378 -0.08612,0.53181 0.100584,0.98054 0.148363,1.22475 0.178538,0.91335 0.559923,1.18005 0.703676,1.1303 1.466237,-2.34394 2.313666,-5.60996 3.133016,-8.91751 -0.270323,2.56355 -0.339685,4.7408 0.242242,5.66499 0.528281,-1.86875 1.211631,-3.43588 1.977545,-4.8424 0.276817,1.82959 0.431677,3.57187 0.354771,5.14879 l 1.248716,-2.30267 1.35581,-3.9661 c -0.11505,0.16324 0.21982,4.85404 0.18692,5.02046 -0.0409,0.20691 0.44843,-0.82867 0.76465,-1.47769 0.61043,-1.25307 1.16406,-3.06679 1.11817,-3.07287 0.17372,0.44 0.17141,1.1004 0.21353,1.74042 1.1033,-2.27885 1.99033,-4.99586 2.92283,-7.62052 -0.14543,1.96188 -0.45996,4.32144 -0.86838,6.56034 0.8137,-1.42796 1.47986,-3.05012 2.05696,-4.79002 0.17329,1.15941 0.22338,2.45375 0.15968,3.87218 1.1188,-1.88119 2.06472,-3.97536 2.85326,-6.26348 0.27725,0.51144 0.45746,1.19195 0.52095,2.07671 0.31454,-0.68342 0.72588,-1.34937 1.32164,-1.98225 0.24707,-0.22808 0.55469,-0.31698 0.92288,-0.26697 0.0804,0.90805 -0.27116,2.10132 -0.31831,2.97259 -0.0457,0.84799 0.21562,1.37478 0.1274,2.2106 0.48931,-1.53776 1.12719,-3.5822 2.06011,-5.5454 0.19655,-0.0955 0.42037,-0.11563 0.7043,0.0304 0.0384,0.51197 -0.0103,1.0967 -0.14584,1.75419 0.37531,-0.78819 0.82354,-1.46579 1.3581,-2.01268 0.0928,-0.16219 1.32815,4.88711 1.05573,5.24801 -0.21165,0.28045 2.08043,-4.21826 2.08043,-4.21826 z"
       id="path11"
       style="clip-rule:evenodd;fill:#ffffff;fill-opacity:1;fill-rule:evenodd;stroke-width:0.235466;stroke-linecap:round;stroke-linejoin:round;stroke-miterlimit:1.5" /><path
       d="m 138.26704,137.10531 c -0.0317,-0.0257 -1.35202,2.49105 -1.87325,4.67889 -0.45508,1.91902 -0.12435,3.7682 -0.0423,3.99468 0.10848,0.30612 -0.80963,-0.95779 -1.71715,-2.53206 -0.91546,-1.58697 -1.76741,-3.6793 -1.85737,-3.95791 -0.0423,-0.13652 -0.62839,1.8923 0.54239,5.07577 1.17211,3.1832 1.75684,6.49155 1.36525,6.50028 -0.21166,0.005 -0.78581,-1.09881 -1.38377,-2.08968 -0.51329,-0.8501 -1.0795,-1.60416 -1.05833,-1.65391 0.0265,-0.0648 -0.72575,-1.31339 -1.09352,-2.57439 -0.23046,-0.79058 -0.44874,-1.7444 -0.44768,-1.86267 0.002,-0.20267 -0.81306,-0.53472 -0.68342,2.21774 0.0812,1.72032 1.26418,4.44553 1.8288,6.32989 0.33761,1.13083 0.20982,2.3032 0.12859,2.33812 -0.31538,0.13521 -0.34687,-0.2368 -0.50244,-0.59213 -0.2339,-0.5342 -0.76147,-1.23561 -0.88847,-1.34647 -0.21114,-0.18441 0.35454,2.04206 0.52678,2.29685 0.17224,0.25479 0.28522,2.14339 0.0243,2.18308 -0.16325,0.0249 -0.98531,-1.01203 -1.6756,-2.22541 -0.41434,-0.72787 -0.70168,-1.63486 -0.99298,-2.09048 -0.21987,-0.34422 0.19208,1.18428 0.38205,2.51804 0.13203,0.92578 0.0781,1.98094 -0.041,2.09286 -0.15107,0.14128 -1.76053,-2.70987 -1.92378,-2.85089 -0.16351,-0.14102 -2.28785,-3.42212 -2.45666,-3.60653 -0.0701,-0.0765 -0.0757,1.68328 0.51541,2.59953 0.35613,0.55192 1.30334,2.81411 1.68381,4.52146 0.25109,1.12633 0.04,2.01242 0.0164,2.00343 -0.12488,-0.0482 -0.38708,-0.4199 -0.70194,-0.79587 -1.18956,-1.41975 -3.31443,-4.61195 -3.27792,-4.75985 0.0463,-0.1868 -0.31168,0.78369 0.16563,2.11005 0.47731,1.32609 1.78488,3.32766 2.08095,4.12618 0.14949,0.40322 0.22172,2.37992 0.54742,3.8436 0.24051,1.08029 0.48207,1.79202 0.33946,2.03279 -0.0929,0.1569 -0.75644,-0.22066 -1.48458,-1.24063 -0.73898,-1.03479 -1.49966,-2.74479 -2.1545,-3.92536 -0.57414,-1.03558 -1.09088,-1.60337 -1.11363,-1.76741 -0.0183,-0.13071 0.0304,0.63817 0.30771,1.74175 0.29395,1.16946 0.95171,2.7297 1.29699,3.97536 0.34052,1.22873 0.14155,2.31696 0.14155,2.31696 l -1.09617,-1.03029 -1.6973,-2.41194 -1.4314,-2.83395 -1.11178,-1.94919 c -0.41645,-0.5715 -0.85116,-0.99642 -1.30228,-1.28825 -0.48048,0.18732 -0.24262,1.84864 -0.0691,2.08809 0.0389,0.054 0.16139,0.70326 0.37385,1.16284 0.65617,1.42028 1.91638,3.83672 1.91638,3.83672 1.23614,1.93887 2.35717,3.80683 3.24538,5.27897 0.16616,0.4863 0.25506,0.84852 0.29845,1.13771 l -0.0971,1.30545 c -1.81081,-1.20808 -3.5388,-4.53416 -5.20541,-7.26334 -0.12092,0.23892 -0.15531,0.53975 -0.064,0.93081 0.15213,0.57837 0.32517,1.1086 0.47969,1.59781 0.13308,0.42175 0.24447,0.81519 0.41169,1.1557 0.13943,0.97605 -0.0344,1.5121 -0.22966,2.01851 0,0 -0.44926,-0.31538 -0.81624,-1.06389 -0.50694,-1.03452 -0.91387,-2.52571 -1.03584,-2.44898 -0.27358,0.17224 -0.36301,1.28428 -0.22754,1.32794 0.29368,1.2909 0.75485,2.52571 1.32794,3.55574 0.13308,0.58552 0.12806,1.13268 -0.0145,1.64121 -0.76147,-0.23125 -1.24963,-1.07315 -1.69254,-2.01639 -0.5379,-1.50707 -1.10808,-2.91571 -1.84891,-3.80312 -0.24051,0.79666 -0.26723,1.47849 -0.16801,2.09259 0.23548,1.18956 0.30057,1.9804 0.27464,2.55852 -0.254,0.26961 -0.85011,-0.66384 -1.601,-2.08439 -0.0561,2.29235 -0.19579,4.30583 -0.37332,6.1386 -0.71888,-0.43365 -1.35917,-1.28905 -1.9103,-2.62467 -0.48815,-0.98134 -0.61436,-2.50746 -0.78263,-4.0685 0.16668,-1.81689 0.33628,-3.16336 0.89058,-4.19629 -0.24738,-0.15637 -0.22463,-0.26035 -0.25214,-0.0765 0,0 -0.24792,0.48551 -0.58897,1.06891 -0.38047,0.65061 -0.74427,1.57454 -0.83132,1.76821 -0.11059,0.24607 -0.60933,1.23534 -0.91149,2.05026 -0.21325,0.57626 -0.26299,1.0877 -0.2958,1.09035 -0.11086,0.008 -0.92313,-1.59094 -0.65564,-3.35862 0.26776,-1.76795 3.26178,-6.0833 2.93291,-6.09653 -0.32888,-0.0135 -4.35187,4.75403 -4.4712,5.22314 -0.11932,0.4691 -0.17594,-0.90117 0.0529,-1.19222 0.22887,-0.29077 0.26379,-0.99774 1.2626,-2.02803 0.99853,-1.03055 -2.3114,1.37372 -2.31431,1.68937 -0.003,0.31538 0.18362,-2.07354 0.46513,-2.17488 0.28152,-0.1016 1.44886,-2.34659 3.13108,-3.27104 1.68222,-0.92419 6.13542,-4.572 5.89439,-4.64661 -0.0839,-0.0262 -1.13454,0.25082 -2.47254,0.94959 -2.50957,1.31101 -6.09388,3.60997 -6.65532,4.68365 -0.86069,1.64597 0.89376,-2.38733 1.11919,-2.55667 0.61542,-0.46275 4.50955,-3.81053 5.76659,-4.21216 0.19341,-0.0619 -4.60455,0.93212 -5.1271,1.86848 -0.1942,0.34767 -2.55217,0.86651 -2.57122,0.73951 -0.0508,-0.33496 1.06363,-1.16787 1.06363,-1.16787 l -1.24619,0.0595 c -0.11271,-0.0436 2.53947,-2.0738 2.77654,-2.22779 0.49662,-0.32305 6.44286,-3.54938 6.52039,-3.59357 0.25558,-0.14631 -3.53378,0.62362 -4.13544,1.23508 -0.10716,0.109 -5.57503,2.04496 -5.61419,2.27621 -0.0233,0.13758 -0.37333,-0.85567 2.23308,-2.10953 2.58471,-1.24354 5.76977,-2.03517 5.69066,-2.38019 -0.0598,-0.25955 -5.1345,1.16205 -5.32447,1.33826 -0.18971,0.17622 -3.20437,0.98399 -3.18109,1.19724 0.0233,0.21299 1.69624,-1.83012 3.54436,-2.59503 1.85922,-0.76941 7.88034,-3.56261 8.22113,-3.22845 0.11483,0.11219 4.2754,-2.02406 4.39288,-1.7817 0.0669,0.13732 -4.445,0.0386 -6.01875,1.10384 -1.57347,1.06521 -8.44311,3.07446 -8.51376,2.921 -0.0706,-0.15372 4.53602,-2.54979 4.3561,-2.67388 -0.0823,-0.0566 5.18081,-2.25081 5.16546,-2.3233 -0.0296,-0.14208 -4.06082,0.61595 -4.67968,1.25148 -0.61913,0.63526 -3.71528,1.25068 -3.9415,1.2991 -0.22622,0.0481 2.93026,-2.03015 2.93026,-2.03015 l 4.94744,-1.95924 c 0,0 7.71419,-1.39647 7.82955,-1.53643 0.26273,-0.31856 -9.51944,0.80169 -9.60199,1.05648 1.18083,-0.49742 2.08333,-1.19724 3.33772,-1.56898 2.1844,-0.64744 4.79451,-0.84005 7.19375,-1.11892 l -1.66502,-1.10861 -1.72138,-2.1037 c 0.29078,0.12435 0.60907,0.20108 1.02897,0.10557 0.18732,0.11403 4.11453,2.16667 4.37197,1.9603 0.0603,-0.39185 -3.7211,-2.87973 -3.86001,-3.26761 2.24367,-0.0312 4.38098,0.52467 6.52437,1.04669 z"
       id="path13"
       style="clip-rule:evenodd;fill:#ffffff;fill-opacity:1;fill-rule:evenodd;stroke-width:0.264583;stroke-linecap:round;stroke-linejoin:round;stroke-miterlimit:1.5" /><path
       d="m 130.63915,131.70912 c 0,0 -15.52758,-21.93979 -16.02935,-21.01057 -0.50176,0.92922 1.05749,0.72443 0.72282,1.63857 -0.33444,0.91387 -6.0088,-5.93514 -6.04652,-5.70971 -0.0374,0.22569 -3.12399,-3.44091 -3.63842,-2.22171 -0.51465,1.21894 4.49921,4.42886 4.44216,4.85087 -0.0568,0.42201 -4.29463,-3.04403 -4.34619,-3.32131 -0.0513,-0.27755 -5.846712,-3.19246 -6.110247,-2.72495 -0.263774,0.46726 4.454317,2.84851 3.962817,3.60151 -0.49126,0.75274 -5.170687,-2.92206 -5.523023,-2.67308 -0.352574,0.24871 -4.473418,-1.92855 -4.662953,-1.21841 -0.07925,0.2966 1.117638,0.54901 2.422902,1.08638 1.269697,0.52308 2.638219,1.32689 3.318063,1.90447 0.294329,0.2503 0.598207,0.37095 0.51251,0.62309 -0.134632,0.39688 -0.466916,-0.13758 -1.113103,-0.30215 -1.688392,-0.42942 -4.560786,-1.45732 -4.560786,-1.45732 0,0 -5.508463,-0.85699 -8.252668,-1.15597 -0.852432,-0.0931 -1.528458,-0.41672 -1.595057,-0.16986 -0.106226,0.3929 1.553761,0.95461 1.553761,0.95461 0,0 2.420276,0.57494 2.357734,0.71253 -0.06231,0.13732 -3.980005,-0.0558 -4.18243,-0.0548 -0.202187,10e-4 -13.684506,0.63209 -13.700977,1.37583 -0.01647,0.74374 12.124061,-0.13811 12.077512,0.0865 -0.04654,0.22437 -4.789947,1.06416 -4.934604,1.32715 -0.144659,0.26326 10.070203,-0.70167 10.032009,-0.52837 -0.03819,0.17357 -12.817034,4.20132 -12.880293,4.65719 -0.0635,0.45588 4.715948,-0.0773 4.853922,-0.30823 0.137974,-0.23099 3.502347,-0.79005 3.525979,-0.75354 0.02339,0.0365 -1.295955,1.03479 -1.160129,1.48855 0.135826,0.45349 3.555819,-0.88345 3.525741,-1.00383 -0.03008,-0.12039 7.44774,-2.42279 7.503597,-2.05502 0.05586,0.36751 -4.279585,1.34329 -4.347856,1.60867 -0.06827,0.26537 -3.674695,1.43615 -3.57945,2.09391 0.09548,0.65749 3.902424,-0.94086 4.02154,-1.02711 0.118878,-0.086 12.816799,-3.39884 12.711049,-2.70537 -0.10575,0.69347 -10.394372,3.78143 -10.403443,4.71302 -0.0093,0.93187 1.774089,-0.29474 1.668819,-0.0646 -0.105271,0.23019 -5.656462,3.04404 -5.596786,3.35598 0.05992,0.31195 5.808999,-2.64266 5.826901,-2.18837 0.01767,0.45403 5.644051,-2.65721 6.465211,-2.42173 0.821398,0.23574 2.915838,-0.5416 3.028028,-0.43656 0.1122,0.10504 -10.722593,3.99733 -10.371928,5.18081 0.350664,1.18322 3.275334,-1.61264 3.336922,-1.27873 0.06158,0.3339 7.251996,-3.18056 7.587866,-2.47889 0.33585,0.70194 -9.283898,4.88369 -9.292253,5.32131 -0.0084,0.43788 4.686824,-1.4613 4.59516,-1.16232 -0.09167,0.29925 -0.757903,2.11852 -0.671013,2.38416 0.03246,0.0987 0.56789,-0.65828 1.364941,-1.33165 1.345125,-1.13665 2.768315,-2.04364 3.221385,-2.06983 0.55238,-0.0317 7.05888,-2.70352 8.38229,-1.93596 0.84933,0.49266 -6.05153,1.0168 -7.37995,3.48827 -0.9725,1.07791 0.9916,-0.43921 3.03328,-1.10728 3.01658,-0.98716 6.85311,-1.6092 6.93452,-1.39198 0.1363,0.36487 -8.69237,3.00594 -8.69476,4.33811 -9.1e-4,0.43127 0.81161,-0.14763 1.81968,-0.47466 2.1059,-0.68315 5.29291,-1.8624 5.30031,-1.62533 0.0107,0.35004 -2.19445,1.79202 -2.17822,2.13121 0.0165,0.3392 4.74769,-1.89865 4.91622,-1.7608 0.16853,0.13785 -2.67952,3.58855 -2.21451,4.09919 0.46501,0.51091 3.77614,-2.91544 3.83678,-2.44131 0.0604,0.47387 14.60449,11.54933 14.60449,11.54933 z"
       id="path15"
       style="clip-rule:evenodd;fill:#ffffff;fill-opacity:1;fill-rule:evenodd;stroke-width:0.251313;stroke-linecap:round;stroke-linejoin:round;stroke-miterlimit:1.5" /><path
       d="m 131.25828,132.72115 c 0,0 -0.63765,-4.39658 -0.39952,-4.61883 0.23547,-0.22225 0.0688,-4.20079 -0.43921,-4.64 -0.50536,-0.43947 -0.50536,-6.76936 -0.65352,-6.10023 -0.14552,0.66939 0.381,-1.03479 -1.143,-0.0754 -1.52665,0.95938 0.0794,-2.74135 0.0794,-2.74135 0,0 -0.93927,0.36989 -1.28587,1.20333 -0.34661,0.8337 0.65087,-2.80433 0.53975,-3.10542 -0.10848,-0.30083 -0.48684,-2.70431 -0.0556,-2.48206 0.43127,0.22225 -1.59861,1.89945 -1.68407,2.49635 -0.0857,0.59716 0.7448,-6.56776 0.0212,-6.24576 -0.7239,0.322 -0.87392,4.39764 -1.38933,4.25159 -0.51541,-0.14578 -0.26749,-1.74598 -0.16325,-1.79123 0.10398,-0.0452 0.31221,-0.56356 0.42281,-0.67998 0.11059,-0.11668 -1.36023,-7.3152 -1.68487,-6.97653 -0.32464,0.33893 0.1053,3.41815 -0.21696,3.63617 -0.32226,0.21802 -0.34025,-1.39541 -0.63976,-1.29963 -0.29977,0.0955 0.118,2.58101 -0.25188,2.59953 -0.36989,0.0185 -0.51409,-2.92497 -0.69692,-2.83528 -0.18282,0.0897 -0.53287,-3.989915 -0.9435,-3.767665 -0.41063,0.22225 -0.35084,0.573355 -0.3855,1.289575 -0.0347,0.71623 0.24051,3.6195 0.27755,4.11348 0.0368,0.49371 -0.95911,-1.60602 -0.85037,-2.354 0.10901,-0.74824 -1.39303,-3.561553 -1.43589,-3.668974 -0.0426,-0.107421 -1.62164,-3.077369 -1.52824,-3.153833 0.0931,-0.07646 -0.35031,-0.25109 -0.6014,0.866245 -0.25135,1.117336 1.20809,2.15609 1.02712,2.681553 -0.18098,0.525197 1.48166,2.671229 1.03875,3.035569 -0.44265,0.36459 -0.3646,-0.98822 -0.85407,-1.50469 -0.48975,-0.51673 -2.14075,-4.461669 -2.1516,-4.160573 -0.022,0.615156 0.0434,2.648214 -0.0659,2.665148 -0.38761,0.06033 -1.00515,-2.099469 -1.00515,-2.099469 l -0.30771,-1.937279 c -0.53128,-1.456796 -1.16761,-2.640013 -2.00025,-3.310996 l -0.41698,1.029494 c 0,0 0.37623,1.380331 0.19896,1.669521 -0.17753,0.289454 -0.92339,-0.64188 -0.97446,-0.886619 -0.0513,-0.245004 -2.46062,-4.244446 -2.85273,-4.118504 -0.39185,0.126206 0.30744,2.552171 0.43629,2.615671 0.12859,0.0635 -2.34844,-2.595034 -2.77759,-2.502959 -0.42916,0.09181 -1.82695,-1.695714 -2.1164,-1.476375 -0.28972,0.21934 -1.32689,-0.252412 -1.22291,0.07937 0.10398,0.332052 2.4429,2.02565 2.51963,2.354527 0.0765,0.328613 3.94626,3.466307 3.53827,3.943615 -0.40799,0.477573 -1.33456,-0.787929 -1.77271,-1.085586 -0.43815,-0.297391 -3.14404,-1.571625 -3.25278,-1.476375 -0.10875,0.09525 3.14563,3.069696 2.94534,3.287448 -0.20029,0.217752 4.04257,2.304257 4.03066,2.533121 -0.0116,0.2286 -3.18479,-0.967846 -3.33613,-1.083733 -0.15134,-0.115888 -3.18188,-1.345142 -3.29089,-1.121569 -0.10874,0.223838 3.51949,2.345002 3.61924,2.032265 0.0997,-0.313002 4.68444,2.942957 4.64555,3.062817 -0.0392,0.11986 -2.56275,-0.5035 -2.76304,-0.71755 -0.20003,-0.214313 -3.48959,-1.439599 -3.58908,-1.272382 -0.0995,0.167217 2.304,2.323042 2.30347,2.223562 -5.3e-4,-0.0992 4.89373,2.16323 4.77149,2.3405 -0.12224,0.17727 -2.62916,-0.0992 -2.66409,0.13176 -0.0352,0.23072 1.47241,1.07606 1.35917,1.23243 -0.11324,0.15637 3.92139,2.74955 3.99203,2.65933 0.0706,-0.0905 -3.8018,-0.72946 -3.91716,-0.54054 -0.11535,0.18917 2.51408,1.60099 2.62546,1.54384 0.11166,-0.0569 1.8423,0.77285 1.98888,0.7702 0.25188,-0.005 -5.73114,-1.24698 -5.86687,-0.94509 -0.13573,0.30163 1.62295,1.13056 1.72667,1.24513 0.10371,0.11456 3.80418,0.76094 3.95287,1.08267 0.1487,0.32174 2.54609,0.63289 2.59318,0.86678 0.0474,0.23363 -4.3934,-0.35269 -4.33916,-0.44397 0.0545,-0.091 3.55441,1.2528 3.51816,1.38827 -0.0362,0.13573 -4.03384,-0.52547 -4.11506,-0.26644 -0.0812,0.25903 3.20728,1.05251 3.18558,1.33985 -0.0217,0.28734 4.06083,0.53155 5.76474,2.83766 0.33973,0.45984 0.28734,0.57467 0.0362,0.43841 -0.6305,-0.3421 -5.45544,-2.16429 -6.10182,-0.98636 -0.0931,0.31458 1.55813,0.31564 3.08054,1.1131 2.43655,1.27661 5.22552,3.45228 5.14456,3.62479 -0.13176,0.28046 -4.47013,-2.15979 -4.61698,-2.0828 -0.14684,0.077 2.06481,1.47743 2.18123,1.69889 0.11668,0.22145 1.51421,1.21761 1.77271,1.29275 0.25849,0.0751 3.22288,1.14618 3.21759,1.41711 -0.008,0.2712 -3.22368,-0.71199 -3.35571,-0.39555 -0.13202,0.31644 1.82007,1.83727 1.4486,2.34871 -0.37121,0.51143 6.1722,7.90945 6.1722,7.90945 z"
       id="path17"
       style="clip-rule:evenodd;fill:#ffffff;fill-opacity:1;fill-rule:evenodd;stroke-width:0.264583;stroke-linecap:round;stroke-linejoin:round;stroke-miterlimit:1.5" /><path
       d="m 132.16051,132.40735 0.67733,-1.00832 1.51871,0.44714 c 0,0 1.28058,1.74123 1.82033,2.03491 0.53975,0.29369 -0.36512,-3.36947 -0.13758,-3.35042 0.22754,0.0191 3.15648,3.11891 3.77825,3.33349 0.61912,0.21431 -1.70921,-3.91372 -1.33086,-3.88673 0.37836,0.027 6.604,1.32821 6.60136,1.7362 0,0.40798 -3.21734,-2.48312 -3.10092,-2.81782 0.11906,-0.33496 3.46869,-0.76808 3.87879,-0.10239 0.41011,0.66569 -0.77523,-1.78435 -1.17739,-1.76239 -0.40217,0.0222 4.39208,1.4015 4.73868,1.35334 0.34661,-0.0482 -2.45533,-1.61025 -2.3442,-2.13227 0.0635,-0.29687 4.6646,0.78713 4.75191,1.3073 0.0873,0.52044 -3.08769,-2.63948 -3.08769,-2.63948 0,0 0.83344,-0.64558 1.36261,-0.17039 0.52917,0.47519 5.26785,2.67467 5.49804,3.09853 0.22754,0.42413 -5.207,-4.98342 -4.88156,-5.46047 0.25929,-0.38073 8.12535,6.06716 9.39271,5.97588 1.26735,-0.0913 -2.01084,-3.5679 -1.3335,-3.48165 0.67468,0.0862 6.42673,3.57293 6.90298,3.81847 0.47625,0.24553 -6.04309,-7.71023 -5.65415,-7.85442 0.38894,-0.14447 8.67833,7.41441 9.12019,7.43637 0.4445,0.022 -5.44513,-7.27815 -5.14879,-7.79832 0.29897,-0.52044 8.78945,7.20672 9.51706,7.16068 0.7276,-0.046 -0.19315,-4.22037 0.33073,-4.13835 0.52387,0.0823 3.6486,3.81767 4.17248,3.8907 0.52123,0.0733 -6.02986,-8.63521 -5.49011,-8.48863 0.5424,0.14658 8.4455,7.3451 8.68363,7.49353 0.58473,0.36513 -1.28059,-4.65905 -2.00819,-5.3758 -0.49477,-0.48869 5.05354,2.77098 4.87627,3.72983 -0.17727,0.95885 2.20398,-2.33601 0.635,-2.7858 -1.56898,-0.45006 -18.65048,-5.94863 -18.81452,-5.9653 -0.32808,-0.0331 4.73604,-0.43365 5.53244,0.0974 0.79375,0.53102 -8.9535,-3.14749 -15.12888,-2.23785 -6.17537,0.90937 12.28196,-3.20596 11.8745,-3.01202 -0.4101,0.19394 -9.81075,-0.12991 -10.10973,0.19103 -0.29898,0.32094 11.71575,-3.72877 11.95917,-4.32911 0.10054,-0.24686 -13.76627,3.02207 -13.91179,2.1926 -0.0635,-0.35401 14.86429,-4.4151 14.73994,-4.51908 -0.40746,-0.34105 -1.0795,-0.22543 -1.0795,-0.22543 l 2.46327,-0.82735 c 0,0 -8.09361,0.64162 -10.63361,1.36128 -2.54,0.71967 9.85573,-2.80564 9.67052,-2.98926 -0.23548,-0.23336 -7.0141,1.45786 -8.64393,1.54014 -1.42346,0.0717 15.01245,-5.087143 14.90662,-5.391943 -0.25665,-0.734219 -7.98512,0.896937 -16.44915,4.521733 -9.08314,3.89017 -18.99708,9.94145 -21.07141,13.72341 -2.50296,4.56142 -7.86606,16.30706 -7.86606,16.30706 z"
       id="path19"
       style="clip-rule:evenodd;fill:#ffffff;fill-opacity:1;fill-rule:evenodd;stroke-width:0.264583;stroke-linecap:round;stroke-linejoin:round;stroke-miterlimit:1.5" /><path
       d="m 131.39851,130.33567 0.53181,-3.04695 c 0,0 -1.03717,-2.06666 -0.83873,-2.7125 0.19579,-0.64559 0.52387,-2.63023 0.47096,-3.43588 -0.0529,-0.80539 -1.52929,-6.55003 -1.16417,-7.19059 0.36248,-0.64055 0.30163,-2.77812 0.35719,-3.34327 0.0265,-0.29475 0.31221,-0.86307 0.31221,-0.86307 0.15875,-0.52547 2.00289,4.19549 1.73831,4.44182 -0.21167,-0.0286 0.59796,0.17119 0.58208,-0.19685 -0.0185,-0.3683 -1.60866,-5.88645 -1.51341,-6.18067 0.13229,-0.4019 -0.62707,-3.60098 0.49741,-4.14258 0.78846,-0.37967 0.83609,3.68803 1.12448,4.15925 0.2884,0.47149 0.0662,0.78158 0.29369,0.52864 0.23283,-0.25268 0.31221,-3.90366 0.22489,-4.02775 -0.0873,-0.12409 -0.59266,-2.87761 -0.5662,-3.13029 0.0291,-0.25267 0.23548,-3.999969 0.38629,-3.875879 0.14816,0.12409 -0.26459,-0.184944 0.42333,0.03307 0.69056,0.217752 0.78052,3.641989 0.91017,3.756029 0.12964,0.11403 0.28575,1.81133 0.42598,1.95977 0.14023,0.14843 0.23812,-0.31248 0.2831,-0.69665 0.0476,-0.38444 -0.31485,-1.60073 -0.17198,-1.72905 0.14552,-0.12833 0.3519,-4.022466 0.3519,-4.022466 0,0 1.03187,-1.691216 1.24089,-1.705768 0.20902,-0.01482 0.53711,0.05027 0.57944,0.284162 0.0423,0.233627 -0.43921,5.158322 -0.38629,5.371302 0.0529,0.21326 0.38894,0.70194 0.51329,0.60669 0.12436,-0.095 0.50271,-1.281902 0.39952,-1.467111 -0.10583,-0.184944 0.18256,-3.099064 0.30692,-3.035035 0.127,0.06429 0.7276,2.441046 0.48154,2.874962 -0.24871,0.434182 0.62706,-0.11721 0.68263,-0.393964 0.0529,-0.277019 0.48683,-4.696619 0.71172,-4.638675 0.22755,0.05821 1.51607,-2.817019 2.1643,-2.573867 0.64823,0.243152 0.11906,0.921544 0.14816,0.802481 0.0265,-0.118798 -0.60854,1.160992 -0.58208,1.303073 0.0265,0.141817 -0.52917,2.586567 -0.46038,2.658004 0.0688,0.0717 0.26723,0.211138 0.35984,0.03175 0.09,-0.179123 0.55562,-1.743339 0.77258,-2.195777 0.21961,-0.452702 1.33615,-2.735262 1.54252,-2.697162 0.20902,0.03784 0.85725,-1.125008 0.91811,-1.235869 0.0582,-0.11086 0.40481,-0.319352 0.42598,-0.09446 0.0238,0.224896 -0.19844,4.019021 -0.44715,4.005792 -0.24871,-0.01323 0.86519,-0.507207 1.02394,-0.787665 0.16139,-0.280194 2.23837,-2.387335 2.39977,-2.496873 0.16404,-0.109537 2.25689,-1.497277 2.35214,-1.454415 0.0952,0.0426 2.53736,-1.098549 2.60615,-0.940329 0.0661,0.158486 -0.49213,0.587375 -0.65617,0.760677 -0.16404,0.173302 -2.18546,1.657615 -2.06904,1.913996 0.11906,0.256381 -1.40494,1.348846 -1.21973,1.484842 0.18786,0.135996 1.55046,-0.341313 1.76477,-0.572294 0.21432,-0.230981 1.98173,-0.885825 1.98173,-1.113896 -0.003,-0.205581 4.07194,-1.197768 4.65138,-1.205177 0.0318,-2.64e-4 2.91306,-0.379677 3.05593,-0.303741 0.0106,0.0053 -8.90587,3.958166 -9.7446,4.78446 -0.83608,0.826029 3.05858,-0.52705 3.19617,-0.413015 0.13758,0.114036 4.60375,-0.441325 4.445,-0.05794 -0.1614,0.383381 -7.56709,1.552045 -7.747,1.86055 -0.17727,0.308504 3.75179,-0.369359 3.95287,-0.134409 0.20373,0.23495 -1.778,0.661988 -1.97644,0.914665 -0.19843,0.252677 4.91861,0.0799 4.87363,0.330994 -0.0423,0.251354 -5.7785,0.665691 -5.94254,0.989277 -0.1614,0.32385 -4.59052,0.242887 -4.60375,0.470429 -0.0132,0.227277 7.38716,0.0098 7.33689,0.373591 -0.0503,0.364067 -1.96585,0.46699 -2.16429,0.570971 -0.20108,0.103982 -3.43694,0.09975 -3.53483,0.120915 -0.0979,0.02143 -2.59821,0.209814 -2.61673,0.441065 -0.0185,0.23124 2.84162,-0.269615 3.0189,-0.127269 0.17727,0.142079 3.38402,0.08017 3.2385,0.405609 -0.14288,0.32517 -1.27794,-0.0535 -1.37055,0.0677 -0.0899,0.12118 -2.98714,0.61251 -3.10356,0.76861 -0.11377,0.15611 -2.87073,-0.37624 -3.51102,0.41408 -0.64029,0.79031 2.38654,-0.0733 2.5056,0.20955 0.12171,0.2831 2.99773,-0.0683 2.96334,0.22542 -0.0318,0.29342 -3.77825,0.1442 -3.81794,0.36301 -0.0423,0.21881 6.07483,0.38417 6.0034,0.53102 -0.0688,0.14711 -2.40507,0.44026 -2.62732,0.61648 -0.22225,0.17621 -2.84691,0.37518 -2.84691,0.37518 0,0 -4.89479,0.39581 -4.95565,0.64822 -0.0609,0.25215 3.96081,-0.25558 3.93171,-0.12726 -0.0265,0.12832 3.07181,0.0844 2.97127,0.26644 -0.10054,0.18176 -3.31258,0.23124 -3.47927,0.37094 -0.16404,0.1397 -3.21204,0.50932 -3.34433,0.75671 -0.1323,0.24739 3.09298,0.0357 2.96862,0.20637 -0.12435,0.17093 2.61938,-0.14684 2.55323,0.05 -0.0661,0.19685 -0.57415,0.43101 -0.6985,0.47229 -0.12435,0.041 -0.16404,-0.004 -0.61383,0.18997 -0.44979,0.19367 -1.56104,0.118 -1.79123,0.30268 -0.23019,0.18494 1.2991,0.17462 1.32821,0.32623 0.0318,0.15161 -0.68263,0.55907 -0.85725,0.57732 -0.17463,0.0185 -2.02936,-0.005 -2.26748,0.0384 -0.23548,0.0434 -2.36802,0.33814 -2.40242,0.65035 -0.0317,0.31194 1.6801,0.18573 1.8071,0.15848 0.12436,-0.0272 3.38932,-0.13255 3.50573,0.0699 0.11377,0.20214 -2.68287,1.25307 -2.7596,1.456 -0.0794,0.20268 0.95515,0.18019 0.93927,0.39476 -0.0132,0.21458 -4.68048,1.17184 -4.88685,1.35467 -0.20638,0.18283 4.40531,-0.12171 4.3815,0.0894 -0.0212,0.21114 -3.07711,0.8673 -3.15119,1.02182 -0.0741,0.15425 4.21746,0.58473 4.20158,0.86413 -0.0132,0.27913 -3.27554,0.53393 -3.43164,0.59293 -0.15611,0.059 -2.50032,1.1819 -2.61673,1.30757 -0.11642,0.12568 4.14866,0.53605 4.34446,0.82789 0.19843,0.29183 -4.19894,0.79877 -4.40267,1.20623 -0.20638,0.40746 0.71173,0.48075 1.32556,0.92472 0.61648,0.44397 -1.71714,-0.0751 -1.68539,0.26723 0.0344,0.3421 3.07975,2.02618 3.20145,2.55085 0.12171,0.52493 -1.12712,0.28178 -1.20914,0.44079 -0.082,0.15928 0.2196,1.60576 0.69321,1.97141 0.47095,0.36566 -4.04548,-0.64161 -3.70946,-0.20558 0.33602,0.43603 -5.64621,6.11876 -5.73881,6.40742 z"
       id="path21"
       style="clip-rule:evenodd;fill:#ffffff;fill-opacity:1;fill-rule:evenodd;stroke-width:0.264583;stroke-linecap:round;stroke-linejoin:round;stroke-miterlimit:1.5" /><path
       d="m 130.49628,134.83861 c 0,0 23.92919,-4.01082 32.63611,-2.72733 8.70693,1.2835 20.95603,3.33508 20.10134,3.96108 -0.66044,0.48392 -5.42069,-1.06839 -6.03772,-0.29633 -0.27194,0.33972 1.86479,0.35189 3.70216,0.85196 1.78709,0.48657 3.33652,1.18692 3.30223,1.47769 -0.0251,0.21405 2.28757,0.31989 2.28757,0.31989 1.21577,0.52943 2.02247,1.24618 2.75834,1.99416 0.92553,0.2704 1.46257,0.8345 2.07504,1.28297 -0.064,0.22886 -3.28853,-1.3425 -4.48602,-1.44913 -1.23176,-0.10927 -1.6294,-0.66093 0.72672,1.14274 1.72311,1.31842 3.68844,2.45983 4.87451,3.53801 0.43649,0.39714 1.6157,1.36974 1.78252,1.77059 0.38165,0.92525 -0.0686,0.77417 -0.0686,0.77417 l -3.6336,-2.38125 c -0.35422,-0.32703 2.19844,2.61858 2.01562,2.54238 -0.21254,-0.0886 0.50733,0.48816 1.00552,1.17501 0.4982,0.68686 0.77471,1.48352 0.77471,1.48352 0.19882,0.60299 0.0937,1.00754 -0.38164,1.17264 -1.56085,-1.76425 -2.0339,-2.05264 -2.7172,-2.40956 l -2.48867,-2.35771 c -1.14036,-1.35652 -2.04305,-2.58048 -2.49782,-3.55653 -1.31175,-1.35598 -2.0179,-2.08994 -2.32641,-2.26165 0.11426,0.72601 0.33593,1.51474 0.85012,2.47755 l 1.75967,2.15556 c 0.60788,0.83715 1.14949,2.18149 1.45344,3.06838 -0.35879,-0.12198 -0.81585,-0.66543 -1.24548,-0.97605 -1.03524,-1.38774 -1.68197,-1.86637 -2.20302,-2.16853 l -1.65682,-2.34579 -1.37575,-2.32384 c 0,0 -0.91182,-1.2446 -1.05808,-1.24327 -0.14626,10e-4 -0.17368,0.18626 -0.17368,0.18626 l 0.52333,0.76491 1.01009,1.89918 c 0,0 1.22035,1.98517 1.2272,2.14895 0.004,0.16378 0.86613,1.70312 0.86613,1.70312 l 0.73585,1.47135 0.59418,1.46738 0.65816,1.64597 -0.26738,0.004 -0.70387,-0.59241 -0.61702,-0.77152 -0.65359,-1.25386 -0.64674,-1.75578 -1.43515,-2.03332 -1.97677,-2.66224 -2.96173,-3.84413 -0.43648,-0.40851 0.14396,0.62679 0.95068,1.44913 1.15635,1.83197 1.35061,2.24631 1.63854,2.86571 0.66959,1.71026 0.6056,1.77086 c 0,0 -0.713,-0.16166 -1.01009,-0.63024 -0.2948,-0.46858 -1.36431,-2.17593 -1.36431,-2.17593 l -1.72311,-2.59371 -1.53114,-2.5998 -1.06265,-2.43999 -0.73815,-1.12791 0.0662,0.81888 0.55989,1.39965 0.84099,1.92801 c 0,0 0.82498,1.45019 0.93239,1.52004 0.10741,0.0696 0.94382,1.63248 0.94382,1.63248 l 0.71529,1.64676 0.45249,1.45151 0.11883,0.71755 -0.37021,0.0145 -0.47305,-0.40508 -0.60789,-0.76121 -0.71758,-1.15755 -0.66273,-1.1721 -1.17464,-1.58803 -0.75643,-1.211 -0.77699,-1.25889 -0.66273,-1.28666 -0.63303,-1.14486 -0.48447,-0.96837 -0.61474,-0.54928 -0.0754,0.37545 0.7313,1.10913 0.55303,1.18137 0.62389,1.40149 0.49362,1.25704 0.66501,1.82483 0.40907,1.60285 0.66959,1.29248 0.58046,1.25519 c 0,0 0.23767,0.72469 0.19883,0.83158 -0.0389,0.1069 -0.36109,-0.0296 -0.36109,-0.0296 0,0 -0.36564,-0.26247 -0.44334,-0.41196 -0.0777,-0.14949 -0.75643,-0.91731 -0.75643,-0.91731 l -0.95068,-1.14802 c 0,0 -0.56217,-1.07501 -0.66501,-1.21973 -0.10512,-0.14499 -0.86612,-1.2147 -0.86612,-1.2147 l -0.5279,-1.18878 -0.67645,-1.26656 -0.27651,-0.35851 -0.0503,0.53446 0.28794,0.64479 0.793,1.33667 0.44105,1.19645 0.64217,1.38271 0.47762,1.27 0.0229,0.5416 -0.39764,-0.14446 c 0,0 -0.75871,-0.91942 -0.78385,-0.99906 -0.0251,-0.0796 -1.17921,-2.04391 -1.21348,-2.11826 -0.032,-0.0744 -1.96535,-4.27884 -2.16645,-4.58761 -0.19882,-0.30903 -1.26148,-1.80419 -1.32547,-1.83753 -0.064,-0.0336 -0.16225,0.15743 -0.15997,0.25426 0.003,0.0968 1.15407,2.98662 1.22263,2.95593 0.0662,-0.0307 0.81813,1.98967 0.81813,1.98967 0,0 0.3108,2.28626 0.29937,2.36299 -0.0114,0.0767 -0.22395,-0.0159 -0.37706,-0.19182 -0.15313,-0.17595 -0.40451,-0.74639 -0.40451,-0.74639 l -0.71985,-1.76477 c 0,0 -0.69473,-1.26471 -0.74043,-1.34726 -0.0457,-0.0823 -0.4365,-0.21379 -0.4365,-0.21379 l 0.21025,0.60881 0.39079,0.88741 0.35192,1.32821 -0.13712,0.96891 -0.27423,0.005 c 0,0 -0.25138,-0.28046 -0.28337,-0.34846 -0.0343,-0.068 -0.49819,-0.62045 -0.51648,-0.80883 -0.0206,-0.18865 -0.60331,-1.31604 -0.64216,-1.38086 -0.0389,-0.0648 -0.90497,-1.3208 -0.90497,-1.3208 l -0.70158,-1.17369 -0.56675,-0.88636 c 0,0 -0.77471,-1.43377 -0.85241,-1.56236 -0.08,-0.12859 -1.04666,-1.66317 -1.04666,-1.66317 l -0.73129,-0.88556 0.2948,0.93609 0.78843,1.52109 0.59416,1.38933 0.40222,1.37451 0.18053,1.04537 0.0275,0.77258 -0.50962,0.35216 -0.38164,-0.40798 0.13254,-0.74877 -0.21481,-0.56277 -0.28109,-0.57203 -0.42963,-0.9406 -0.65588,-1.03531 -0.51647,-0.86201 -0.59875,-0.47043 0.17368,0.65193 0.28795,0.8046 0.064,1.67217 -0.55989,0.15769 -0.48448,-0.84482 c 0,0 -0.27881,-0.6559 -0.39307,-0.89746 -0.11426,-0.24183 -0.71758,-0.76386 -0.71758,-0.76386 l -0.59188,-0.39555 c 0,0 -27.65191,-3.95155 -27.91472,-4.0595 z"
       id="path23"
       style="clip-rule:evenodd;fill:#ffffff;fill-opacity:1;fill-rule:evenodd;stroke-width:0.245896;stroke-linecap:round;stroke-linejoin:round;stroke-miterlimit:1.5" /><path
       d="m 149.79234,173.47439 c 0,0 4.69371,-5.12815 4.826,-4.74054 0.12964,0.38762 -3.27554,6.1214 -2.69346,6.64131 0.58208,0.5199 3.21998,-4.55613 3.44488,-3.91742 0.22489,0.6387 -1.80446,4.8379 -1.37319,5.27843 0.43127,0.44053 2.10873,-2.5273 2.13783,-1.95871 0.0344,0.56859 -1.1721,4.49051 0.69586,7.30647 0.51329,0.77179 0.45243,-4.51829 0.62706,-3.46551 0.17462,1.05278 1.45256,4.63682 1.76477,5.04163 0.30956,0.40482 0.54769,-2.01665 0.55298,-2.09893 0.008,-0.0823 1.25941,3.43058 1.65364,3.90551 0.39159,0.47466 0.49477,-7.20143 0.61384,-7.43691 0.12171,-0.23521 0.51064,2.81411 0.889,2.8456 0.37571,0.0315 0.40481,-6.68946 0.19579,-7.12761 -0.20902,-0.43842 0.61912,1.10913 0.84667,1.49092 0.22489,0.3818 0.25929,-6.4934 -2.95011,-10.90506 -3.20939,-4.41167 1.49754,1.41366 1.57163,0.88106 0.0714,-0.53287 -3.90525,-6.5114 -3.61157,-6.26825 0.29634,0.24316 1.41817,1.1348 1.44992,0.94113 0.18521,-1.14485 -0.32279,-2.0963 -0.32279,-2.0963 -0.75142,-1.39303 -1.58221,-2.79029 -2.55323,-4.19417 0,0 -3.72004,-3.87879 -4.49263,-4.23122 -0.77787,-0.35454 -12.35868,-9.15643 -12.36397,-9.13474 l -3.96611,0.4871 -0.003,0.0373 2.6326,4.04151 c 0,0 -1.03981,3.16627 -1.3335,3.75655 -0.29369,0.59055 0.29369,1.16046 0.29369,1.16046 l 2.58233,-4.67995 c 0,0 -2.25954,7.49089 -1.3335,9.66682 0.38365,0.89853 2.24102,-5.41285 2.65377,-5.82216 0.41011,-0.40931 1.84679,-1.51368 1.84679,-1.51368 l -1.22502,2.57413 c 0,0 -3.70946,4.97047 -2.7596,7.06015 0.26458,0.58129 3.73327,-4.80087 3.87879,-4.98026 0.80433,-0.99033 -1.87325,6.70878 -1.778,7.64778 0.0767,0.75804 5.0165,-6.33915 5.15937,-6.53679 1.06363,-1.49384 -1.09008,4.0042 -1.60072,4.76541 0,0 -1.905,3.01069 -2.0029,4.34975 -0.10054,1.33879 5.42131,-6.8789 5.42131,-6.8789 -0.62971,1.93913 -1.4896,3.79015 -2.41564,5.61498 0,0 -2.667,5.6187 -2.27807,6.31799 0.39159,0.69929 4.56671,-6.27909 4.39473,-6.54473 0.56092,-0.2548 0.39952,0.78528 -0.81491,3.71792 0,0 -1.72244,2.44607 -1.19063,3.25544 0.53181,0.80936 1.7489,-1.50601 1.7489,-1.50601 0,0 1.73566,-3.10277 1.91558,-3.21152 0.17992,-0.10874 -1.35202,5.16679 -1.39435,5.92694 -0.0397,0.76014 1.39435,-1.2282 3.048,-3.13426 0.36512,-0.42069 -3.49515,7.06676 -2.8284,7.72081"
       id="path25"
       style="clip-rule:evenodd;fill:#ffffff;fill-opacity:1;fill-rule:evenodd;stroke-width:0.264583;stroke-linecap:round;stroke-linejoin:round;stroke-miterlimit:1.5" /><path
       d="m 134.34596,139.40241 5.49805,2.35849 1.5875,-3.04932 c 0,0 0.86518,2.23917 1.15358,2.42411 0.28839,0.18521 0.55033,-0.81544 0.94192,-0.86624 0.39422,-0.0508 1.03716,2.52068 1.44462,2.76436 0.4101,0.24368 0.77258,-0.96705 1.00277,-1.1885 0.23283,-0.2212 1.1139,2.68948 1.54252,2.80484 0.42598,0.11536 0.37306,-1.55866 0.64823,-1.68619 0.27517,-0.12726 1.93411,3.62374 2.37331,3.88382 0.43657,0.26009 0.53975,-1.5449 0.79111,-2.04787 0.25135,-0.50271 0.49741,2.40797 0.85725,2.82628 0.35983,0.41857 0.45508,-6.25026 0.98689,-6.62226 0.52917,-0.372 0.59532,7.67821 0.97632,8.4619 0.381,0.78344 0.33866,-1.8997 0.69056,-2.08756 0.35189,-0.18785 0.24077,2.37861 0.66675,2.85909 0.42862,0.48048 1.36789,-4.98607 1.62719,-5.46312 0.26193,-0.47704 0.24341,4.18174 0.55562,4.78711 0.31221,0.60537 1.65894,-3.34751 1.61131,-3.15278 -0.30427,1.23217 0.27782,7.58534 0.87577,6.69132 0.3175,-0.47202 0.73555,-4.70535 1.49755,-5.52794 0.76464,-0.82233 -0.71438,7.6446 0.13493,8.38517 0.84932,0.74057 2.54794,-8.33331 2.64584,-9.21967 0.13493,-1.20729 0.79904,2.20874 0.35454,2.7395 0.003,1.53141 -0.22754,3.03053 -0.69056,4.49765 -0.15611,1.86637 0.21695,2.92259 0.96837,3.39725 0,0 -0.008,-3.40916 0.29369,-3.43271 0.30162,-0.0238 0.57679,1.77298 0.57679,1.77298 0,0 -0.20902,2.66488 -0.10054,2.9718 0.11112,0.30665 0.4736,1.44489 0.71702,1.39091 0.24342,-0.054 0.87842,-1.58591 0.92604,-1.9259 0.045,-0.33999 0.27517,-3.66104 0.27517,-3.66104 0,0 0.20902,-2.10741 0.41275,-2.17329 0.20373,-0.0656 -0.14288,7.92983 0.25929,8.29522 0.39952,0.36539 0.83344,-1.46209 0.95779,-1.71476 0.12436,-0.25295 0.17198,-3.45414 0.16933,-3.58061 0,-0.12647 0.17992,-2.77283 0.37042,-2.62387 0.1905,0.14922 0.73819,0.90858 0.57944,1.74095 -0.1614,0.83212 -0.63236,3.23268 -0.60854,3.94891 0.0238,0.71623 -0.49213,3.12235 -0.21961,3.63882 0.27252,0.51646 0.62971,1.49092 1.02659,1.43536 0.39687,-0.0553 0.50006,-0.78634 0.65352,-0.7239 0.15346,0.0627 0.32808,2.0537 0.5715,2.08994 0.24606,0.0365 0.60589,-7.22021 0.88371,-7.14904 0.27781,0.0714 2.5347,9.58321 3.0136,9.44642 0.4789,-0.13679 0.16404,-4.37859 0.35719,-4.52728 0.19579,-0.1487 2.56116,6.95351 2.83368,7.23582 0.26988,0.28231 0.64559,-6.2394 0.84932,-7.07178 0.0265,-0.1016 1.03452,0.61118 1.03981,1.25306 0.005,0.7456 0.082,-1.61766 -0.25929,-2.51539 -0.34131,-0.898 -1.86002,-4.71593 -2.29394,-4.7199 -0.43127,-0.004 0.52123,0.0693 0.65617,0.0325 0.13229,-0.0368 -0.0582,-1.19115 -0.0582,-1.19115 0,0 -2.11402,-3.04086 -2.42358,-3.15463 -0.30957,-0.11351 0.89164,0.38788 0.89164,0.38788 0,0 0.0741,-0.74322 -0.0556,-1.04431 -0.127,-0.30083 -0.70644,-1.14644 -0.70644,-1.14644 0,0 -6.24946,-6.99744 -7.41362,-7.1419 -1.16152,-0.14473 -5.89757,-4.03013 -7.14111,-4.18809 -1.24619,-0.15822 -9.53294,-5.04692 -10.07533,-5.06201 -0.54504,-0.0153 -5.19906,-2.12778 -5.19906,-2.12778 l -9.23925,-0.90302 c 0,0 -3.01096,8.10445 -3.26232,8.16875 z"
       id="path27"
       style="clip-rule:evenodd;fill:#ffffff;fill-opacity:1;fill-rule:evenodd;stroke-width:0.264583;stroke-linecap:round;stroke-linejoin:round;stroke-miterlimit:1.5" /><path
       d="m 135.188,125.5492 c 0,0 15.04686,118.30315 -5.24933,144.3064 -0.89165,1.14035 -14.31052,-4.92125 -21.45321,-2.87867 0,0 35.05279,-60.87851 19.37888,-139.8815"
       style="clip-rule:evenodd;fill-rule:evenodd;stroke:#ffffff;stroke-width:0.264583px;stroke-linecap:round;stroke-linejoin:round;stroke-miterlimit:1.5;fill:#ffffff;fill-opacity:1"
       id="path29" /><path
       d="m 120.01287,134.40259 20.74598,-5.17922 14.58913,-2.84877 11.58081,-1.6375 c 0,0 7.90046,-1.62931 8.20208,-1.40494 0.29898,0.22463 4.953,0.75644 5.10911,0.68474 0.15345,-0.0717 -2.62996,0.59849 -2.62996,0.59849 l 1.96321,0.22463 4.06664,-0.46038 3.94229,-0.0632 c 0,0 -1.02658,1.00515 -1.85208,1.00541 -0.8255,0 -2.60615,0.23548 -2.60615,0.23548 l 3.96082,0.37492 4.26508,0.56118 2.62731,0.66913 -0.45508,0.34793 c 0,0 -1.70127,0.15055 -1.81504,0.10345 -0.11377,-0.0471 -2.67759,0.13732 -2.67759,0.13732 l -0.57679,0.12224 c 0,0 1.10067,0.34792 1.20121,0.33099 0.10054,-0.0169 2.65906,0.4408 2.75167,0.55959 0.0926,0.1188 3.13796,1.17343 3.28348,1.13136 0.14552,-0.0421 1.75418,1.04987 1.70391,1.14618 -0.0503,0.0963 -0.30691,0.22992 -0.33073,0.20637 -0.0264,-0.0238 -1.94998,-0.80301 -2.10608,-0.65061 -0.15346,0.15267 -3.32317,-0.63923 -3.45281,-0.5035 -0.127,0.13573 -2.24102,-0.52123 -2.24102,-0.52123 l -2.25161,-0.73792 -0.14287,0.24368 0.91281,0.43206 2.3204,1.41208 1.92881,1.14353 1.44992,0.85964 0.80697,0.72813 -0.48418,0.0399 -0.96838,-0.37465 -1.47373,-0.39793 -0.92075,-0.35216 -1.397,-0.68078 -1.02393,-0.55324 -1.18798,-0.63897 -0.67734,-0.37624 -0.89693,-0.37121 0.0238,0.33655 0.48683,0.28178 0.70115,0.61304 0.46831,0.49372 0.26458,0.35295 1.13242,0.94298 1.40229,0.92815 1.15888,1.03109 0.39158,0.41433 -0.26988,0.091 -0.43656,-0.30295 -0.66675,-0.33179 -1.27,-0.58261 -0.94191,-0.53975 -1.24355,-0.558 -0.97102,-0.50007 -1.36525,-0.4482 -0.55298,-0.0553 -0.508,-0.28231 -0.74612,-0.4535 -0.65088,-0.44873 -0.78581,-0.39185 -0.45508,-0.2659 -0.46038,-0.18177 -0.57679,-0.36751 -0.29898,0.11721 0.16669,0.36275 0.30427,0.39396 0.68527,0.40534 1.10596,0.65379 1.15887,0.67442 1.06098,0.73501 1.09273,0.57441 1.19857,0.96864 0.80697,0.76915 0.46567,0.73766 -0.22754,0.14975 -0.32015,-0.26802 -0.79904,-0.20929 -1.33879,-0.58288 -0.98425,-0.44582 -1.82562,-0.81597 c 0,0 -1.96321,-0.80883 -2.04523,-0.87551 -0.082,-0.0667 -1.63777,-0.90831 -1.63777,-0.90831 l -1.09538,-0.80751 -1.08479,-0.67601 -1.08479,-0.80539 -1.25148,-0.6948 -0.32544,0.13361 0.44715,0.36222 0.81756,0.57467 1.00277,0.85646 1.00013,0.77814 1.16152,1.05939 0.80962,0.87604 0.86783,1.02049 0.0291,0.4535 -0.31486,0.0992 c 0,0 -0.67204,-0.42704 -0.80168,-0.43074 -0.12965,-0.004 -1.15094,-0.47758 -1.25148,-0.56568 -0.0979,-0.0881 -2.17752,-1.39383 -2.17752,-1.39383 l -1.70921,-0.94271 c 0,0 -1.49225,-0.95144 -1.56898,-0.98345 -0.0794,-0.032 -3.05065,-2.03121 -3.05065,-2.03121 0,0 -2.46327,-1.12157 -2.55058,-1.11681 -0.09,0.005 1.3626,1.28641 1.3626,1.28641 l 1.72244,1.66449 2.65113,2.55535 0.34131,0.80671 -0.4445,0.17807 -0.67469,-0.40852 -1.15358,-0.64505 -1.23561,-0.85408 -1.28322,-0.91281 -1.1774,-0.93768 -1.61396,-1.02341 -0.29104,0.0852 0.20902,0.2368 1.16417,0.71544 1.28058,1.1602 1.18533,0.99456 1.33615,1.03479 1.33085,1.05278 1.56105,1.47531 -0.29369,0.25136 -0.83079,-0.3511 -1.93146,-1.46685 c 0,0 -4.54554,-3.07658 -4.6355,-3.10542 -0.0873,-0.0288 -3.42636,-2.40718 -3.50044,-2.41776 -0.0714,-0.0106 -2.2569,-0.93107 -2.413,-1.00833 -0.1561,-0.0773 0.23019,0.3564 0.23019,0.3564 l 1.05304,0.68183 0.94192,0.5117 2.77812,1.98199 2.19604,1.64148 c 0,0 0.76465,0.75062 0.60325,0.80486 -0.16139,0.0542 -0.53446,-0.004 -0.53446,-0.004 l -1.6166,-1.06601 -2.79929,-1.59887 -1.82298,-1.08665 c 0,0 -1.18798,-0.4871 -1.3679,-0.44556 -0.17991,0.0418 -0.0582,0.42783 0.11907,0.55722 0.17727,0.12911 1.74095,1.06785 1.80445,1.12421 0.0635,0.0566 2.45798,1.41499 2.48444,1.50336 0.0265,0.0884 1.41023,1.20703 1.3679,1.34991 -0.045,0.14314 0.84931,0.80671 -0.25929,0.49397 -1.10596,-0.31247 -1.85473,-0.92207 -2.032,-0.99721 -0.17727,-0.0751 -2.39184,-1.17025 -2.42094,-1.28667 -0.0291,-0.11642 -3.84175,-1.91294 -3.91848,-1.94442 -0.0794,-0.0312 -2.5109,-0.86598 -2.55852,-0.80672 -0.0476,0.0593 1.77006,1.86664 1.92881,1.97671 0.1614,0.11006 1.73038,2.76807 1.31233,3.10409 -0.41539,0.33628 -0.32279,0.11033 -0.74612,-0.19527 -0.42069,-0.30532 -2.05052,-1.99337 -2.26748,-1.99495 -0.21696,-0.001 -1.70127,-0.27411 -1.70127,-0.27411 0,0 0.20373,2.76992 0.73554,2.98 0.52917,0.20981 1.15888,1.24645 1.13506,1.29461 -0.0265,0.0482 1.16682,1.66899 -0.3757,0.59346 -1.54253,-1.07553 -2.78607,-1.4314 -2.99509,-1.93437 -0.21166,-0.50297 -0.65352,-2.40612 -0.78316,-2.51513 -0.127,-0.10927 -2.286,-1.3163 -2.52148,-1.1766 -0.23284,0.13943 0.69585,2.36669 0.69056,2.43416 -0.008,0.0675 0.48948,2.55244 0.6641,2.70193 0.17198,0.14975 -0.0529,0.58208 -0.38629,0.31776 -0.33337,-0.26458 -1.28058,-2.73156 -1.65629,-2.96836 -0.37571,-0.2368 -0.77788,-1.76662 -1.33615,-1.73699 -0.55827,0.0296 -2.05316,-0.57097 -2.62995,-0.32491 -0.57415,0.24607 -5.36046,0.68475 -5.61182,0.82471 -0.254,0.13997 -7.13846,1.27794 -7.59089,1.40123 -0.45244,0.12304 -8.58838,-0.16827 -8.58838,-0.16827 z"
       id="path31"
       style="clip-rule:evenodd;fill:#ffffff;fill-opacity:1;fill-rule:evenodd;stroke-width:0.264583;stroke-linecap:round;stroke-linejoin:round;stroke-miterlimit:1.5" /><ellipse
       cx="3.3517361"
       cy="75.053741"
       rx="4.8950944"
       ry="4.3055978"
       id="ellipse33"
       transform="matrix(0.92501219,-0.37993743,0.379936,0.92501278,0,0)"
       style="clip-rule:evenodd;fill-rule:evenodd;stroke-width:0.336803;stroke-linecap:round;stroke-linejoin:round;stroke-miterlimit:1.5;fill:#ffffff;fill-opacity:1" /><ellipse
       cx="19.289585"
       cy="74.90007"
       rx="4.8950944"
       ry="4.3055978"
       id="ellipse35"
       style="clip-rule:evenodd;fill-rule:evenodd;stroke-width:0.337001;stroke-linecap:round;stroke-linejoin:round;stroke-miterlimit:1.5;stroke-dasharray:none;stroke:#ffffff;stroke-opacity:1;fill:#ffffff;fill-opacity:1"
       transform="matrix(0.92501219,-0.37993743,0.379936,0.92501278,0,0)" /><g
       transform="matrix(0.32204711,-0.13227691,0.12790316,0.31139997,-258.80982,18.501998)"
       id="g41"
       style="clip-rule:evenodd;fill-rule:evenodd;stroke-linecap:round;stroke-linejoin:round;stroke-miterlimit:1.5;fill:#ffffff;fill-opacity:1">
            <rect
   x="723.90802"
   y="408.70999"
   width="7.8449998"
   height="57.022999"
   id="rect39"
   style="fill:#ffffff;fill-opacity:1" />
        </g><rect
       x="21.411135"
       y="56.782234"
       width="2.7312715"
       height="19.196449"
       id="rect43"
       transform="matrix(0.92501219,-0.37993744,0.37993599,0.92501278,0,0)"
       style="clip-rule:evenodd;fill-rule:evenodd;stroke-width:0.342351;stroke-linecap:round;stroke-linejoin:round;stroke-miterlimit:1.5;fill:#ffffff;fill-opacity:1" /><path
       d="m 28.878755,49.069179 c 0,0 11.604811,-3.938148 12.529338,-4.699124 0.290708,-0.239431 2.673055,1.490954 2.673055,1.490954 -0.04639,0.816568 -13.923588,6.082489 -13.993102,5.40615"
       id="path47"
       style="clip-rule:evenodd;fill-rule:evenodd;stroke-width:0.336803;stroke-linecap:round;stroke-linejoin:round;stroke-miterlimit:1.5;fill:#ffffff;fill-opacity:1" /></g></svg>
